<?xml version="1.0" encoding="utf-8" standalone="no"?>
<!DOCTYPE svg PUBLIC "-//W3C//DTD SVG 1.1//EN"
  "http://www.w3.org/Graphics/SVG/1.1/DTD/svg11.dtd">
<svg height="179.816713pt" version="1.1" viewBox="0 0 396.194625 179.816713" width="396.194625pt" xmlns="http://www.w3.org/2000/svg" xmlns:xlink="http://www.w3.org/1999/xlink">
 <metadata>
  <rdf:RDF xmlns:cc="http://creativecommons.org/ns#" xmlns:dc="http://purl.org/dc/elements/1.1/" xmlns:rdf="http://www.w3.org/1999/02/22-rdf-syntax-ns#">
   <cc:Work>
    <dc:type rdf:resource="http://purl.org/dc/dcmitype/StillImage"/>
    <dc:date>2021-12-20T02:53:17.471835</dc:date>
    <dc:format>image/svg+xml</dc:format>
    <dc:creator>
     <cc:Agent>
      <dc:title>Matplotlib v3.4.3, https://matplotlib.org/</dc:title>
     </cc:Agent>
    </dc:creator>
   </cc:Work>
  </rdf:RDF>
 </metadata>
 <defs>
  <style type="text/css">*{stroke-linecap:butt;stroke-linejoin:round;}</style>
 </defs>
 <g id="figure_1">
  <g id="patch_1">
   <path d="M 0 179.816713 
L 396.194625 179.816713 
L 396.194625 0 
L 0 0 
z
" style="fill:#ffffff;"/>
  </g>
  <g id="axes_1">
   <g id="patch_2">
    <path d="M 40.741 143.489338 
L 247.201 143.489338 
L 247.201 7.589338 
L 40.741 7.589338 
z
" style="fill:#ffffff;"/>
   </g>
   <g id="matplotlib.axis_1">
    <g id="xtick_1">
     <g id="line2d_1">
      <path clip-path="url(#pc48b409352)" d="M 50.125545 143.489338 
L 50.125545 7.589338 
" style="fill:none;stroke:#cccccc;stroke-linecap:round;stroke-width:0.8;"/>
     </g>
     <g id="text_1">
      <!-- 0 -->
      <g style="fill:#262626;" transform="translate(47.678733 158.088213)scale(0.088 -0.088)">
       <defs>
        <path d="M 266 2259 
Q 266 3072 433 3567 
Q 600 4063 929 4331 
Q 1259 4600 1759 4600 
Q 2128 4600 2406 4451 
Q 2684 4303 2865 4023 
Q 3047 3744 3150 3342 
Q 3253 2941 3253 2259 
Q 3253 1453 3087 958 
Q 2922 463 2592 192 
Q 2263 -78 1759 -78 
Q 1097 -78 719 397 
Q 266 969 266 2259 
z
M 844 2259 
Q 844 1131 1108 757 
Q 1372 384 1759 384 
Q 2147 384 2411 759 
Q 2675 1134 2675 2259 
Q 2675 3391 2411 3762 
Q 2147 4134 1753 4134 
Q 1366 4134 1134 3806 
Q 844 3388 844 2259 
z
" id="ArialMT-30" transform="scale(0.015625)"/>
       </defs>
       <use xlink:href="#ArialMT-30"/>
      </g>
     </g>
    </g>
    <g id="xtick_2">
     <g id="line2d_2">
      <path clip-path="url(#pc48b409352)" d="M 91.834636 143.489338 
L 91.834636 7.589338 
" style="fill:none;stroke:#cccccc;stroke-linecap:round;stroke-width:0.8;"/>
     </g>
     <g id="text_2">
      <!-- 2 -->
      <g style="fill:#262626;" transform="translate(89.387824 158.088213)scale(0.088 -0.088)">
       <defs>
        <path d="M 3222 541 
L 3222 0 
L 194 0 
Q 188 203 259 391 
Q 375 700 629 1000 
Q 884 1300 1366 1694 
Q 2113 2306 2375 2664 
Q 2638 3022 2638 3341 
Q 2638 3675 2398 3904 
Q 2159 4134 1775 4134 
Q 1369 4134 1125 3890 
Q 881 3647 878 3216 
L 300 3275 
Q 359 3922 746 4261 
Q 1134 4600 1788 4600 
Q 2447 4600 2831 4234 
Q 3216 3869 3216 3328 
Q 3216 3053 3103 2787 
Q 2991 2522 2730 2228 
Q 2469 1934 1863 1422 
Q 1356 997 1212 845 
Q 1069 694 975 541 
L 3222 541 
z
" id="ArialMT-32" transform="scale(0.015625)"/>
       </defs>
       <use xlink:href="#ArialMT-32"/>
      </g>
     </g>
    </g>
    <g id="xtick_3">
     <g id="line2d_3">
      <path clip-path="url(#pc48b409352)" d="M 133.543727 143.489338 
L 133.543727 7.589338 
" style="fill:none;stroke:#cccccc;stroke-linecap:round;stroke-width:0.8;"/>
     </g>
     <g id="text_3">
      <!-- 4 -->
      <g style="fill:#262626;" transform="translate(131.096915 158.088213)scale(0.088 -0.088)">
       <defs>
        <path d="M 2069 0 
L 2069 1097 
L 81 1097 
L 81 1613 
L 2172 4581 
L 2631 4581 
L 2631 1613 
L 3250 1613 
L 3250 1097 
L 2631 1097 
L 2631 0 
L 2069 0 
z
M 2069 1613 
L 2069 3678 
L 634 1613 
L 2069 1613 
z
" id="ArialMT-34" transform="scale(0.015625)"/>
       </defs>
       <use xlink:href="#ArialMT-34"/>
      </g>
     </g>
    </g>
    <g id="xtick_4">
     <g id="line2d_4">
      <path clip-path="url(#pc48b409352)" d="M 175.252818 143.489338 
L 175.252818 7.589338 
" style="fill:none;stroke:#cccccc;stroke-linecap:round;stroke-width:0.8;"/>
     </g>
     <g id="text_4">
      <!-- 6 -->
      <g style="fill:#262626;" transform="translate(172.806006 158.088213)scale(0.088 -0.088)">
       <defs>
        <path d="M 3184 3459 
L 2625 3416 
Q 2550 3747 2413 3897 
Q 2184 4138 1850 4138 
Q 1581 4138 1378 3988 
Q 1113 3794 959 3422 
Q 806 3050 800 2363 
Q 1003 2672 1297 2822 
Q 1591 2972 1913 2972 
Q 2475 2972 2870 2558 
Q 3266 2144 3266 1488 
Q 3266 1056 3080 686 
Q 2894 316 2569 119 
Q 2244 -78 1831 -78 
Q 1128 -78 684 439 
Q 241 956 241 2144 
Q 241 3472 731 4075 
Q 1159 4600 1884 4600 
Q 2425 4600 2770 4297 
Q 3116 3994 3184 3459 
z
M 888 1484 
Q 888 1194 1011 928 
Q 1134 663 1356 523 
Q 1578 384 1822 384 
Q 2178 384 2434 671 
Q 2691 959 2691 1453 
Q 2691 1928 2437 2201 
Q 2184 2475 1800 2475 
Q 1419 2475 1153 2201 
Q 888 1928 888 1484 
z
" id="ArialMT-36" transform="scale(0.015625)"/>
       </defs>
       <use xlink:href="#ArialMT-36"/>
      </g>
     </g>
    </g>
    <g id="xtick_5">
     <g id="line2d_5">
      <path clip-path="url(#pc48b409352)" d="M 216.961909 143.489338 
L 216.961909 7.589338 
" style="fill:none;stroke:#cccccc;stroke-linecap:round;stroke-width:0.8;"/>
     </g>
     <g id="text_5">
      <!-- 8 -->
      <g style="fill:#262626;" transform="translate(214.515097 158.088213)scale(0.088 -0.088)">
       <defs>
        <path d="M 1131 2484 
Q 781 2613 612 2850 
Q 444 3088 444 3419 
Q 444 3919 803 4259 
Q 1163 4600 1759 4600 
Q 2359 4600 2725 4251 
Q 3091 3903 3091 3403 
Q 3091 3084 2923 2848 
Q 2756 2613 2416 2484 
Q 2838 2347 3058 2040 
Q 3278 1734 3278 1309 
Q 3278 722 2862 322 
Q 2447 -78 1769 -78 
Q 1091 -78 675 323 
Q 259 725 259 1325 
Q 259 1772 486 2073 
Q 713 2375 1131 2484 
z
M 1019 3438 
Q 1019 3113 1228 2906 
Q 1438 2700 1772 2700 
Q 2097 2700 2305 2904 
Q 2513 3109 2513 3406 
Q 2513 3716 2298 3927 
Q 2084 4138 1766 4138 
Q 1444 4138 1231 3931 
Q 1019 3725 1019 3438 
z
M 838 1322 
Q 838 1081 952 856 
Q 1066 631 1291 507 
Q 1516 384 1775 384 
Q 2178 384 2440 643 
Q 2703 903 2703 1303 
Q 2703 1709 2433 1975 
Q 2163 2241 1756 2241 
Q 1359 2241 1098 1978 
Q 838 1716 838 1322 
z
" id="ArialMT-38" transform="scale(0.015625)"/>
       </defs>
       <use xlink:href="#ArialMT-38"/>
      </g>
     </g>
    </g>
    <g id="text_6">
     <!-- mutated base pairs -->
     <g style="fill:#262626;" transform="translate(103.15075 170.708713)scale(0.096 -0.096)">
      <defs>
       <path d="M 422 0 
L 422 3319 
L 925 3319 
L 925 2853 
Q 1081 3097 1340 3245 
Q 1600 3394 1931 3394 
Q 2300 3394 2536 3241 
Q 2772 3088 2869 2813 
Q 3263 3394 3894 3394 
Q 4388 3394 4653 3120 
Q 4919 2847 4919 2278 
L 4919 0 
L 4359 0 
L 4359 2091 
Q 4359 2428 4304 2576 
Q 4250 2725 4106 2815 
Q 3963 2906 3769 2906 
Q 3419 2906 3187 2673 
Q 2956 2441 2956 1928 
L 2956 0 
L 2394 0 
L 2394 2156 
Q 2394 2531 2256 2718 
Q 2119 2906 1806 2906 
Q 1569 2906 1367 2781 
Q 1166 2656 1075 2415 
Q 984 2175 984 1722 
L 984 0 
L 422 0 
z
" id="ArialMT-6d" transform="scale(0.015625)"/>
       <path d="M 2597 0 
L 2597 488 
Q 2209 -75 1544 -75 
Q 1250 -75 995 37 
Q 741 150 617 320 
Q 494 491 444 738 
Q 409 903 409 1263 
L 409 3319 
L 972 3319 
L 972 1478 
Q 972 1038 1006 884 
Q 1059 663 1231 536 
Q 1403 409 1656 409 
Q 1909 409 2131 539 
Q 2353 669 2445 892 
Q 2538 1116 2538 1541 
L 2538 3319 
L 3100 3319 
L 3100 0 
L 2597 0 
z
" id="ArialMT-75" transform="scale(0.015625)"/>
       <path d="M 1650 503 
L 1731 6 
Q 1494 -44 1306 -44 
Q 1000 -44 831 53 
Q 663 150 594 308 
Q 525 466 525 972 
L 525 2881 
L 113 2881 
L 113 3319 
L 525 3319 
L 525 4141 
L 1084 4478 
L 1084 3319 
L 1650 3319 
L 1650 2881 
L 1084 2881 
L 1084 941 
Q 1084 700 1114 631 
Q 1144 563 1211 522 
Q 1278 481 1403 481 
Q 1497 481 1650 503 
z
" id="ArialMT-74" transform="scale(0.015625)"/>
       <path d="M 2588 409 
Q 2275 144 1986 34 
Q 1697 -75 1366 -75 
Q 819 -75 525 192 
Q 231 459 231 875 
Q 231 1119 342 1320 
Q 453 1522 633 1644 
Q 813 1766 1038 1828 
Q 1203 1872 1538 1913 
Q 2219 1994 2541 2106 
Q 2544 2222 2544 2253 
Q 2544 2597 2384 2738 
Q 2169 2928 1744 2928 
Q 1347 2928 1158 2789 
Q 969 2650 878 2297 
L 328 2372 
Q 403 2725 575 2942 
Q 747 3159 1072 3276 
Q 1397 3394 1825 3394 
Q 2250 3394 2515 3294 
Q 2781 3194 2906 3042 
Q 3031 2891 3081 2659 
Q 3109 2516 3109 2141 
L 3109 1391 
Q 3109 606 3145 398 
Q 3181 191 3288 0 
L 2700 0 
Q 2613 175 2588 409 
z
M 2541 1666 
Q 2234 1541 1622 1453 
Q 1275 1403 1131 1340 
Q 988 1278 909 1158 
Q 831 1038 831 891 
Q 831 666 1001 516 
Q 1172 366 1500 366 
Q 1825 366 2078 508 
Q 2331 650 2450 897 
Q 2541 1088 2541 1459 
L 2541 1666 
z
" id="ArialMT-61" transform="scale(0.015625)"/>
       <path d="M 2694 1069 
L 3275 997 
Q 3138 488 2766 206 
Q 2394 -75 1816 -75 
Q 1088 -75 661 373 
Q 234 822 234 1631 
Q 234 2469 665 2931 
Q 1097 3394 1784 3394 
Q 2450 3394 2872 2941 
Q 3294 2488 3294 1666 
Q 3294 1616 3291 1516 
L 816 1516 
Q 847 969 1125 678 
Q 1403 388 1819 388 
Q 2128 388 2347 550 
Q 2566 713 2694 1069 
z
M 847 1978 
L 2700 1978 
Q 2663 2397 2488 2606 
Q 2219 2931 1791 2931 
Q 1403 2931 1139 2672 
Q 875 2413 847 1978 
z
" id="ArialMT-65" transform="scale(0.015625)"/>
       <path d="M 2575 0 
L 2575 419 
Q 2259 -75 1647 -75 
Q 1250 -75 917 144 
Q 584 363 401 755 
Q 219 1147 219 1656 
Q 219 2153 384 2558 
Q 550 2963 881 3178 
Q 1213 3394 1622 3394 
Q 1922 3394 2156 3267 
Q 2391 3141 2538 2938 
L 2538 4581 
L 3097 4581 
L 3097 0 
L 2575 0 
z
M 797 1656 
Q 797 1019 1065 703 
Q 1334 388 1700 388 
Q 2069 388 2326 689 
Q 2584 991 2584 1609 
Q 2584 2291 2321 2609 
Q 2059 2928 1675 2928 
Q 1300 2928 1048 2622 
Q 797 2316 797 1656 
z
" id="ArialMT-64" transform="scale(0.015625)"/>
       <path id="ArialMT-20" transform="scale(0.015625)"/>
       <path d="M 941 0 
L 419 0 
L 419 4581 
L 981 4581 
L 981 2947 
Q 1338 3394 1891 3394 
Q 2197 3394 2470 3270 
Q 2744 3147 2920 2923 
Q 3097 2700 3197 2384 
Q 3297 2069 3297 1709 
Q 3297 856 2875 390 
Q 2453 -75 1863 -75 
Q 1275 -75 941 416 
L 941 0 
z
M 934 1684 
Q 934 1088 1097 822 
Q 1363 388 1816 388 
Q 2184 388 2453 708 
Q 2722 1028 2722 1663 
Q 2722 2313 2464 2622 
Q 2206 2931 1841 2931 
Q 1472 2931 1203 2611 
Q 934 2291 934 1684 
z
" id="ArialMT-62" transform="scale(0.015625)"/>
       <path d="M 197 991 
L 753 1078 
Q 800 744 1014 566 
Q 1228 388 1613 388 
Q 2000 388 2187 545 
Q 2375 703 2375 916 
Q 2375 1106 2209 1216 
Q 2094 1291 1634 1406 
Q 1016 1563 777 1677 
Q 538 1791 414 1992 
Q 291 2194 291 2438 
Q 291 2659 392 2848 
Q 494 3038 669 3163 
Q 800 3259 1026 3326 
Q 1253 3394 1513 3394 
Q 1903 3394 2198 3281 
Q 2494 3169 2634 2976 
Q 2775 2784 2828 2463 
L 2278 2388 
Q 2241 2644 2061 2787 
Q 1881 2931 1553 2931 
Q 1166 2931 1000 2803 
Q 834 2675 834 2503 
Q 834 2394 903 2306 
Q 972 2216 1119 2156 
Q 1203 2125 1616 2013 
Q 2213 1853 2448 1751 
Q 2684 1650 2818 1456 
Q 2953 1263 2953 975 
Q 2953 694 2789 445 
Q 2625 197 2315 61 
Q 2006 -75 1616 -75 
Q 969 -75 630 194 
Q 291 463 197 991 
z
" id="ArialMT-73" transform="scale(0.015625)"/>
       <path d="M 422 -1272 
L 422 3319 
L 934 3319 
L 934 2888 
Q 1116 3141 1344 3267 
Q 1572 3394 1897 3394 
Q 2322 3394 2647 3175 
Q 2972 2956 3137 2557 
Q 3303 2159 3303 1684 
Q 3303 1175 3120 767 
Q 2938 359 2589 142 
Q 2241 -75 1856 -75 
Q 1575 -75 1351 44 
Q 1128 163 984 344 
L 984 -1272 
L 422 -1272 
z
M 931 1641 
Q 931 1000 1190 694 
Q 1450 388 1819 388 
Q 2194 388 2461 705 
Q 2728 1022 2728 1688 
Q 2728 2322 2467 2637 
Q 2206 2953 1844 2953 
Q 1484 2953 1207 2617 
Q 931 2281 931 1641 
z
" id="ArialMT-70" transform="scale(0.015625)"/>
       <path d="M 425 3934 
L 425 4581 
L 988 4581 
L 988 3934 
L 425 3934 
z
M 425 0 
L 425 3319 
L 988 3319 
L 988 0 
L 425 0 
z
" id="ArialMT-69" transform="scale(0.015625)"/>
       <path d="M 416 0 
L 416 3319 
L 922 3319 
L 922 2816 
Q 1116 3169 1280 3281 
Q 1444 3394 1641 3394 
Q 1925 3394 2219 3213 
L 2025 2691 
Q 1819 2813 1613 2813 
Q 1428 2813 1281 2702 
Q 1134 2591 1072 2394 
Q 978 2094 978 1738 
L 978 0 
L 416 0 
z
" id="ArialMT-72" transform="scale(0.015625)"/>
      </defs>
      <use xlink:href="#ArialMT-6d"/>
      <use x="83.300781" xlink:href="#ArialMT-75"/>
      <use x="138.916016" xlink:href="#ArialMT-74"/>
      <use x="166.699219" xlink:href="#ArialMT-61"/>
      <use x="222.314453" xlink:href="#ArialMT-74"/>
      <use x="250.097656" xlink:href="#ArialMT-65"/>
      <use x="305.712891" xlink:href="#ArialMT-64"/>
      <use x="361.328125" xlink:href="#ArialMT-20"/>
      <use x="389.111328" xlink:href="#ArialMT-62"/>
      <use x="444.726562" xlink:href="#ArialMT-61"/>
      <use x="500.341797" xlink:href="#ArialMT-73"/>
      <use x="550.341797" xlink:href="#ArialMT-65"/>
      <use x="605.957031" xlink:href="#ArialMT-20"/>
      <use x="633.740234" xlink:href="#ArialMT-70"/>
      <use x="689.355469" xlink:href="#ArialMT-61"/>
      <use x="744.970703" xlink:href="#ArialMT-69"/>
      <use x="767.1875" xlink:href="#ArialMT-72"/>
      <use x="800.488281" xlink:href="#ArialMT-73"/>
     </g>
    </g>
   </g>
   <g id="matplotlib.axis_2">
    <g id="ytick_1">
     <g id="line2d_6">
      <path clip-path="url(#pc48b409352)" d="M 40.741 134.728275 
L 247.201 134.728275 
" style="fill:none;stroke:#cccccc;stroke-linecap:round;stroke-width:0.8;"/>
     </g>
     <g id="text_7">
      <!-- 0.0 -->
      <g style="fill:#262626;" transform="translate(20.209 137.877713)scale(0.088 -0.088)">
       <defs>
        <path d="M 581 0 
L 581 641 
L 1222 641 
L 1222 0 
L 581 0 
z
" id="ArialMT-2e" transform="scale(0.015625)"/>
       </defs>
       <use xlink:href="#ArialMT-30"/>
       <use x="55.615234" xlink:href="#ArialMT-2e"/>
       <use x="83.398438" xlink:href="#ArialMT-30"/>
      </g>
     </g>
    </g>
    <g id="ytick_2">
     <g id="line2d_7">
      <path clip-path="url(#pc48b409352)" d="M 40.741 109.852508 
L 247.201 109.852508 
" style="fill:none;stroke:#cccccc;stroke-linecap:round;stroke-width:0.8;"/>
     </g>
     <g id="text_8">
      <!-- 0.2 -->
      <g style="fill:#262626;" transform="translate(20.209 113.001945)scale(0.088 -0.088)">
       <use xlink:href="#ArialMT-30"/>
       <use x="55.615234" xlink:href="#ArialMT-2e"/>
       <use x="83.398438" xlink:href="#ArialMT-32"/>
      </g>
     </g>
    </g>
    <g id="ytick_3">
     <g id="line2d_8">
      <path clip-path="url(#pc48b409352)" d="M 40.741 84.97674 
L 247.201 84.97674 
" style="fill:none;stroke:#cccccc;stroke-linecap:round;stroke-width:0.8;"/>
     </g>
     <g id="text_9">
      <!-- 0.4 -->
      <g style="fill:#262626;" transform="translate(20.209 88.126178)scale(0.088 -0.088)">
       <use xlink:href="#ArialMT-30"/>
       <use x="55.615234" xlink:href="#ArialMT-2e"/>
       <use x="83.398438" xlink:href="#ArialMT-34"/>
      </g>
     </g>
    </g>
    <g id="ytick_4">
     <g id="line2d_9">
      <path clip-path="url(#pc48b409352)" d="M 40.741 60.100973 
L 247.201 60.100973 
" style="fill:none;stroke:#cccccc;stroke-linecap:round;stroke-width:0.8;"/>
     </g>
     <g id="text_10">
      <!-- 0.6 -->
      <g style="fill:#262626;" transform="translate(20.209 63.25041)scale(0.088 -0.088)">
       <use xlink:href="#ArialMT-30"/>
       <use x="55.615234" xlink:href="#ArialMT-2e"/>
       <use x="83.398438" xlink:href="#ArialMT-36"/>
      </g>
     </g>
    </g>
    <g id="ytick_5">
     <g id="line2d_10">
      <path clip-path="url(#pc48b409352)" d="M 40.741 35.225205 
L 247.201 35.225205 
" style="fill:none;stroke:#cccccc;stroke-linecap:round;stroke-width:0.8;"/>
     </g>
     <g id="text_11">
      <!-- 0.8 -->
      <g style="fill:#262626;" transform="translate(20.209 38.374643)scale(0.088 -0.088)">
       <use xlink:href="#ArialMT-30"/>
       <use x="55.615234" xlink:href="#ArialMT-2e"/>
       <use x="83.398438" xlink:href="#ArialMT-38"/>
      </g>
     </g>
    </g>
    <g id="ytick_6">
     <g id="line2d_11">
      <path clip-path="url(#pc48b409352)" d="M 40.741 10.349438 
L 247.201 10.349438 
" style="fill:none;stroke:#cccccc;stroke-linecap:round;stroke-width:0.8;"/>
     </g>
     <g id="text_12">
      <!-- 1.0 -->
      <g style="fill:#262626;" transform="translate(20.209 13.498875)scale(0.088 -0.088)">
       <defs>
        <path d="M 2384 0 
L 1822 0 
L 1822 3584 
Q 1619 3391 1289 3197 
Q 959 3003 697 2906 
L 697 3450 
Q 1169 3672 1522 3987 
Q 1875 4303 2022 4600 
L 2384 4600 
L 2384 0 
z
" id="ArialMT-31" transform="scale(0.015625)"/>
       </defs>
       <use xlink:href="#ArialMT-31"/>
       <use x="55.615234" xlink:href="#ArialMT-2e"/>
       <use x="83.398438" xlink:href="#ArialMT-30"/>
      </g>
     </g>
    </g>
    <g id="text_13">
     <!-- impact of basepairing -->
     <g style="fill:#262626;" transform="translate(14.1885 121.161838)rotate(-90)scale(0.096 -0.096)">
      <defs>
       <path d="M 2588 1216 
L 3141 1144 
Q 3050 572 2676 248 
Q 2303 -75 1759 -75 
Q 1078 -75 664 370 
Q 250 816 250 1647 
Q 250 2184 428 2587 
Q 606 2991 970 3192 
Q 1334 3394 1763 3394 
Q 2303 3394 2647 3120 
Q 2991 2847 3088 2344 
L 2541 2259 
Q 2463 2594 2264 2762 
Q 2066 2931 1784 2931 
Q 1359 2931 1093 2626 
Q 828 2322 828 1663 
Q 828 994 1084 691 
Q 1341 388 1753 388 
Q 2084 388 2306 591 
Q 2528 794 2588 1216 
z
" id="ArialMT-63" transform="scale(0.015625)"/>
       <path d="M 213 1659 
Q 213 2581 725 3025 
Q 1153 3394 1769 3394 
Q 2453 3394 2887 2945 
Q 3322 2497 3322 1706 
Q 3322 1066 3130 698 
Q 2938 331 2570 128 
Q 2203 -75 1769 -75 
Q 1072 -75 642 372 
Q 213 819 213 1659 
z
M 791 1659 
Q 791 1022 1069 705 
Q 1347 388 1769 388 
Q 2188 388 2466 706 
Q 2744 1025 2744 1678 
Q 2744 2294 2464 2611 
Q 2184 2928 1769 2928 
Q 1347 2928 1069 2612 
Q 791 2297 791 1659 
z
" id="ArialMT-6f" transform="scale(0.015625)"/>
       <path d="M 556 0 
L 556 2881 
L 59 2881 
L 59 3319 
L 556 3319 
L 556 3672 
Q 556 4006 616 4169 
Q 697 4388 901 4523 
Q 1106 4659 1475 4659 
Q 1713 4659 2000 4603 
L 1916 4113 
Q 1741 4144 1584 4144 
Q 1328 4144 1222 4034 
Q 1116 3925 1116 3625 
L 1116 3319 
L 1763 3319 
L 1763 2881 
L 1116 2881 
L 1116 0 
L 556 0 
z
" id="ArialMT-66" transform="scale(0.015625)"/>
       <path d="M 422 0 
L 422 3319 
L 928 3319 
L 928 2847 
Q 1294 3394 1984 3394 
Q 2284 3394 2536 3286 
Q 2788 3178 2913 3003 
Q 3038 2828 3088 2588 
Q 3119 2431 3119 2041 
L 3119 0 
L 2556 0 
L 2556 2019 
Q 2556 2363 2490 2533 
Q 2425 2703 2258 2804 
Q 2091 2906 1866 2906 
Q 1506 2906 1245 2678 
Q 984 2450 984 1813 
L 984 0 
L 422 0 
z
" id="ArialMT-6e" transform="scale(0.015625)"/>
       <path d="M 319 -275 
L 866 -356 
Q 900 -609 1056 -725 
Q 1266 -881 1628 -881 
Q 2019 -881 2231 -725 
Q 2444 -569 2519 -288 
Q 2563 -116 2559 434 
Q 2191 0 1641 0 
Q 956 0 581 494 
Q 206 988 206 1678 
Q 206 2153 378 2554 
Q 550 2956 876 3175 
Q 1203 3394 1644 3394 
Q 2231 3394 2613 2919 
L 2613 3319 
L 3131 3319 
L 3131 450 
Q 3131 -325 2973 -648 
Q 2816 -972 2473 -1159 
Q 2131 -1347 1631 -1347 
Q 1038 -1347 672 -1080 
Q 306 -813 319 -275 
z
M 784 1719 
Q 784 1066 1043 766 
Q 1303 466 1694 466 
Q 2081 466 2343 764 
Q 2606 1063 2606 1700 
Q 2606 2309 2336 2618 
Q 2066 2928 1684 2928 
Q 1309 2928 1046 2623 
Q 784 2319 784 1719 
z
" id="ArialMT-67" transform="scale(0.015625)"/>
      </defs>
      <use xlink:href="#ArialMT-69"/>
      <use x="22.216797" xlink:href="#ArialMT-6d"/>
      <use x="105.517578" xlink:href="#ArialMT-70"/>
      <use x="161.132812" xlink:href="#ArialMT-61"/>
      <use x="216.748047" xlink:href="#ArialMT-63"/>
      <use x="266.748047" xlink:href="#ArialMT-74"/>
      <use x="294.53125" xlink:href="#ArialMT-20"/>
      <use x="322.314453" xlink:href="#ArialMT-6f"/>
      <use x="377.929688" xlink:href="#ArialMT-66"/>
      <use x="405.712891" xlink:href="#ArialMT-20"/>
      <use x="433.496094" xlink:href="#ArialMT-62"/>
      <use x="489.111328" xlink:href="#ArialMT-61"/>
      <use x="544.726562" xlink:href="#ArialMT-73"/>
      <use x="594.726562" xlink:href="#ArialMT-65"/>
      <use x="650.341797" xlink:href="#ArialMT-70"/>
      <use x="705.957031" xlink:href="#ArialMT-61"/>
      <use x="761.572266" xlink:href="#ArialMT-69"/>
      <use x="783.789062" xlink:href="#ArialMT-72"/>
      <use x="817.089844" xlink:href="#ArialMT-69"/>
      <use x="839.306641" xlink:href="#ArialMT-6e"/>
      <use x="894.921875" xlink:href="#ArialMT-67"/>
     </g>
    </g>
   </g>
   <g id="PolyCollection_1">
    <defs>
     <path d="M 50.125545 -45.088438 
L 50.125545 -45.088437 
L 70.980091 -44.444701 
L 91.834636 -43.779814 
L 112.689182 -42.705894 
L 133.543727 -42.941107 
L 154.398273 -42.504648 
L 175.252818 -43.003246 
L 196.107364 -43.152014 
L 216.961909 -43.393626 
L 237.816455 -44.342099 
L 237.816455 -46.830134 
L 237.816455 -46.830134 
L 216.961909 -45.504717 
L 196.107364 -44.261696 
L 175.252818 -43.815714 
L 154.398273 -43.80426 
L 133.543727 -44.226 
L 112.689182 -43.947793 
L 91.834636 -44.519653 
L 70.980091 -45.083309 
L 50.125545 -45.088438 
z
" id="m682aceb935" style="stroke:#084068;stroke-opacity:0.2;stroke-width:0.8;"/>
    </defs>
    <g clip-path="url(#pc48b409352)">
     <use style="fill:#084068;fill-opacity:0.2;stroke:#084068;stroke-opacity:0.2;stroke-width:0.8;" x="0" xlink:href="#m682aceb935" y="179.816713"/>
    </g>
   </g>
   <g id="PolyCollection_2">
    <defs>
     <path d="M 50.125545 -45.088438 
L 50.125545 -45.088438 
L 70.980091 -46.057258 
L 91.834636 -47.791252 
L 112.689182 -49.642175 
L 133.543727 -53.132207 
L 154.398273 -57.71215 
L 175.252818 -62.1261 
L 196.107364 -68.378582 
L 216.961909 -73.373347 
L 237.816455 -77.780374 
L 237.816455 -84.481657 
L 237.816455 -84.481657 
L 216.961909 -77.945062 
L 196.107364 -71.714509 
L 175.252818 -66.3695 
L 154.398273 -60.746709 
L 133.543727 -55.47391 
L 112.689182 -51.64271 
L 91.834636 -48.710471 
L 70.980091 -46.773642 
L 50.125545 -45.088438 
z
" id="m8f3f1bff8c" style="stroke:#084068;stroke-opacity:0.2;stroke-width:0.8;"/>
    </defs>
    <g clip-path="url(#pc48b409352)">
     <use style="fill:#084068;fill-opacity:0.2;stroke:#084068;stroke-opacity:0.2;stroke-width:0.8;" x="0" xlink:href="#m8f3f1bff8c" y="179.816713"/>
    </g>
   </g>
   <g id="PolyCollection_3">
    <defs>
     <path d="M 50.125545 -45.088438 
L 50.125545 -45.088438 
L 70.980091 -47.506009 
L 91.834636 -51.179575 
L 112.689182 -56.10037 
L 133.543727 -61.122533 
L 154.398273 -65.796827 
L 175.252818 -68.884505 
L 196.107364 -73.226295 
L 216.961909 -79.092514 
L 237.816455 -84.866456 
L 237.816455 -103.145575 
L 237.816455 -103.145575 
L 216.961909 -96.526565 
L 196.107364 -88.534324 
L 175.252818 -83.284741 
L 154.398273 -78.209803 
L 133.543727 -71.334296 
L 112.689182 -62.833414 
L 91.834636 -55.079264 
L 70.980091 -49.373356 
L 50.125545 -45.088438 
z
" id="mfdd5db8ee6" style="stroke:#5e799d;stroke-opacity:0.2;stroke-width:0.8;"/>
    </defs>
    <g clip-path="url(#pc48b409352)">
     <use style="fill:#5e799d;fill-opacity:0.2;stroke:#5e799d;stroke-opacity:0.2;stroke-width:0.8;" x="0" xlink:href="#mfdd5db8ee6" y="179.816713"/>
    </g>
   </g>
   <g id="PolyCollection_4">
    <defs>
     <path d="M 50.125545 -45.088438 
L 50.125545 -45.088438 
L 70.980091 -51.529072 
L 91.834636 -69.17412 
L 112.689182 -95.793507 
L 133.543727 -119.900167 
L 154.398273 -134.194725 
L 175.252818 -142.583312 
L 196.107364 -146.419217 
L 216.961909 -149.440201 
L 237.816455 -152.758798 
L 237.816455 -157.651672 
L 237.816455 -157.651672 
L 216.961909 -154.500542 
L 196.107364 -152.293563 
L 175.252818 -149.553127 
L 154.398273 -142.889402 
L 133.543727 -128.149559 
L 112.689182 -103.243624 
L 91.834636 -74.713116 
L 70.980091 -54.315269 
L 50.125545 -45.088438 
z
" id="m62c1159981" style="stroke:#5e799d;stroke-opacity:0.2;stroke-width:0.8;"/>
    </defs>
    <g clip-path="url(#pc48b409352)">
     <use style="fill:#5e799d;fill-opacity:0.2;stroke:#5e799d;stroke-opacity:0.2;stroke-width:0.8;" x="0" xlink:href="#m62c1159981" y="179.816713"/>
    </g>
   </g>
   <g id="PolyCollection_5">
    <defs>
     <path d="M 50.125545 -45.088438 
L 50.125545 -45.088438 
L 70.980091 -44.91134 
L 91.834636 -44.969561 
L 112.689182 -44.419082 
L 133.543727 -45.182562 
L 154.398273 -45.046864 
L 175.252818 -46.279643 
L 196.107364 -47.495218 
L 216.961909 -48.143236 
L 237.816455 -50.510141 
L 237.816455 -55.225106 
L 237.816455 -55.225106 
L 216.961909 -53.332347 
L 196.107364 -50.914516 
L 175.252818 -49.507948 
L 154.398273 -47.756021 
L 133.543727 -46.575355 
L 112.689182 -45.939606 
L 91.834636 -45.824817 
L 70.980091 -45.621871 
L 50.125545 -45.088438 
z
" id="md3d90b928a" style="stroke:#aab5cc;stroke-opacity:0.2;stroke-width:0.8;"/>
    </defs>
    <g clip-path="url(#pc48b409352)">
     <use style="fill:#aab5cc;fill-opacity:0.2;stroke:#aab5cc;stroke-opacity:0.2;stroke-width:0.8;" x="0" xlink:href="#md3d90b928a" y="179.816713"/>
    </g>
   </g>
   <g id="PolyCollection_6">
    <defs>
     <path d="M 50.125545 -45.088438 
L 50.125545 -45.088437 
L 70.980091 -46.277097 
L 91.834636 -48.803389 
L 112.689182 -51.415249 
L 133.543727 -55.577031 
L 154.398273 -61.170069 
L 175.252818 -65.676722 
L 196.107364 -72.87745 
L 216.961909 -77.543177 
L 237.816455 -82.351955 
L 237.816455 -90.612579 
L 237.816455 -90.612579 
L 216.961909 -83.503318 
L 196.107364 -77.703735 
L 175.252818 -71.467071 
L 154.398273 -64.484523 
L 133.543727 -58.649651 
L 112.689182 -53.610212 
L 91.834636 -50.262115 
L 70.980091 -47.033846 
L 50.125545 -45.088438 
z
" id="med52f5cebc" style="stroke:#aab5cc;stroke-opacity:0.2;stroke-width:0.8;"/>
    </defs>
    <g clip-path="url(#pc48b409352)">
     <use style="fill:#aab5cc;fill-opacity:0.2;stroke:#aab5cc;stroke-opacity:0.2;stroke-width:0.8;" x="0" xlink:href="#med52f5cebc" y="179.816713"/>
    </g>
   </g>
   <g id="PolyCollection_7">
    <defs>
     <path d="M 50.125545 -45.088438 
L 50.125545 -45.088438 
L 70.980091 -79.847949 
L 91.834636 -118.83419 
L 112.689182 -142.712011 
L 133.543727 -154.200191 
L 154.398273 -160.517269 
L 175.252818 -163.241761 
L 196.107364 -163.625819 
L 216.961909 -164.473141 
L 237.816455 -164.526981 
L 237.816455 -166.050102 
L 237.816455 -166.050102 
L 216.961909 -165.702065 
L 196.107364 -164.599904 
L 175.252818 -164.402703 
L 154.398273 -161.484555 
L 133.543727 -156.400945 
L 112.689182 -144.338122 
L 91.834636 -121.49867 
L 70.980091 -82.906105 
L 50.125545 -45.088438 
z
" id="m5e00373a23" style="stroke:#b9cc95;stroke-opacity:0.2;stroke-width:0.8;"/>
    </defs>
    <g clip-path="url(#pc48b409352)">
     <use style="fill:#b9cc95;fill-opacity:0.2;stroke:#b9cc95;stroke-opacity:0.2;stroke-width:0.8;" x="0" xlink:href="#m5e00373a23" y="179.816713"/>
    </g>
   </g>
   <g id="line2d_12">
    <path clip-path="url(#pc48b409352)" d="M 50.125545 134.728275 
L 70.980091 135.086879 
L 91.834636 135.671702 
L 112.689182 136.512779 
L 133.543727 136.221081 
L 154.398273 136.62 
L 175.252818 136.419631 
L 196.107364 136.119007 
L 216.961909 135.371148 
L 237.816455 134.265574 
" style="fill:none;stroke:#084068;stroke-linecap:round;stroke-width:2;"/>
   </g>
   <g id="line2d_13">
    <path clip-path="url(#pc48b409352)" d="M 50.125545 134.728275 
L 70.980091 133.4073 
L 91.834636 131.584601 
L 112.689182 129.169049 
L 133.543727 125.42195 
L 154.398273 120.678986 
L 175.252818 115.553451 
L 196.107364 109.788164 
L 216.961909 104.345771 
L 237.816455 98.618601 
" style="fill:none;stroke:#084068;stroke-dasharray:8,3;stroke-dashoffset:0;stroke-width:2;"/>
   </g>
   <g id="line2d_14">
    <path clip-path="url(#pc48b409352)" d="M 50.125545 134.728275 
L 70.980091 131.451992 
L 91.834636 126.606006 
L 112.689182 120.187332 
L 133.543727 113.460346 
L 154.398273 107.732813 
L 175.252818 103.180375 
L 196.107364 98.754251 
L 216.961909 91.356169 
L 237.816455 85.380959 
" style="fill:none;stroke:#5e799d;stroke-linecap:round;stroke-width:2;"/>
   </g>
   <g id="line2d_15">
    <path clip-path="url(#pc48b409352)" d="M 50.125545 134.728275 
L 70.980091 126.996185 
L 91.834636 108.047219 
L 112.689182 80.214154 
L 133.543727 55.988752 
L 154.398273 41.411852 
L 175.252818 34.01288 
L 196.107364 30.56329 
L 216.961909 27.782699 
L 237.816455 24.818973 
" style="fill:none;stroke:#5e799d;stroke-dasharray:8,3;stroke-dashoffset:0;stroke-width:2;"/>
   </g>
   <g id="line2d_16">
    <path clip-path="url(#pc48b409352)" d="M 50.125545 134.728275 
L 70.980091 134.596985 
L 91.834636 134.421017 
L 112.689182 134.627733 
L 133.543727 133.893131 
L 154.398273 133.381161 
L 175.252818 132.011745 
L 196.107364 130.621344 
L 216.961909 129.053639 
L 237.816455 126.997196 
" style="fill:none;stroke:#aab5cc;stroke-linecap:round;stroke-width:2;"/>
   </g>
   <g id="line2d_17">
    <path clip-path="url(#pc48b409352)" d="M 50.125545 134.728276 
L 70.980091 133.146307 
L 91.834636 130.287505 
L 112.689182 127.273713 
L 133.543727 122.80805 
L 154.398273 117.116963 
L 175.252818 111.024251 
L 196.107364 104.583367 
L 216.961909 98.960224 
L 237.816455 93.246955 
" style="fill:none;stroke:#aab5cc;stroke-dasharray:8,3;stroke-dashoffset:0;stroke-width:2;"/>
   </g>
   <g id="line2d_18">
    <path clip-path="url(#pc48b409352)" d="M 50.125545 134.728275 
L 70.980091 98.444791 
L 91.834636 59.700286 
L 112.689182 36.24813 
L 133.543727 24.522087 
L 154.398273 18.86655 
L 175.252818 16.002781 
L 196.107364 15.710443 
L 216.961909 14.742647 
L 237.816455 14.595373 
" style="fill:none;stroke:#b9cc95;stroke-linecap:round;stroke-width:2;"/>
   </g>
   <g id="line2d_19"/>
   <g id="line2d_20"/>
   <g id="line2d_21"/>
   <g id="line2d_22"/>
   <g id="line2d_23"/>
   <g id="line2d_24"/>
   <g id="line2d_25"/>
   <g id="line2d_26"/>
   <g id="line2d_27"/>
   <g id="patch_3">
    <path d="M 40.741 143.489338 
L 40.741 7.589338 
" style="fill:none;stroke:#cccccc;stroke-linecap:square;stroke-linejoin:miter;"/>
   </g>
   <g id="patch_4">
    <path d="M 247.201 143.489338 
L 247.201 7.589338 
" style="fill:none;stroke:#cccccc;stroke-linecap:square;stroke-linejoin:miter;"/>
   </g>
   <g id="patch_5">
    <path d="M 40.741 143.489338 
L 247.201 143.489338 
" style="fill:none;stroke:#cccccc;stroke-linecap:square;stroke-linejoin:miter;"/>
   </g>
   <g id="patch_6">
    <path d="M 40.741 7.589338 
L 247.201 7.589338 
" style="fill:none;stroke:#cccccc;stroke-linecap:square;stroke-linejoin:miter;"/>
   </g>
   <g id="legend_1">
    <g id="patch_7">
     <path d="M 259.284 147.799463 
L 387.234625 147.799463 
Q 388.994625 147.799463 388.994625 146.039463 
L 388.994625 9.349338 
Q 388.994625 7.589338 387.234625 7.589338 
L 259.284 7.589338 
Q 257.524 7.589338 257.524 9.349338 
L 257.524 146.039463 
Q 257.524 147.799463 259.284 147.799463 
z
" style="fill:#ffffff;opacity:0.8;stroke:#cccccc;stroke-linejoin:miter;stroke-width:0.8;"/>
    </g>
    <g id="text_14">
     <!-- model -->
     <g style="fill:#262626;" transform="translate(285.684 17.408213)scale(0.088 -0.088)">
      <defs>
       <path d="M 409 0 
L 409 4581 
L 972 4581 
L 972 0 
L 409 0 
z
" id="ArialMT-6c" transform="scale(0.015625)"/>
      </defs>
      <use xlink:href="#ArialMT-6d"/>
      <use x="83.300781" xlink:href="#ArialMT-6f"/>
      <use x="138.916016" xlink:href="#ArialMT-64"/>
      <use x="194.53125" xlink:href="#ArialMT-65"/>
      <use x="250.146484" xlink:href="#ArialMT-6c"/>
     </g>
    </g>
    <g id="line2d_28">
     <path d="M 261.044 26.883338 
L 278.644 26.883338 
" style="fill:none;stroke:#084068;stroke-linecap:round;stroke-width:2;"/>
    </g>
    <g id="line2d_29"/>
    <g id="text_15">
     <!-- CNN_onehot -->
     <g style="fill:#262626;" transform="translate(285.684 29.963338)scale(0.088 -0.088)">
      <defs>
       <path d="M 3763 1606 
L 4369 1453 
Q 4178 706 3683 314 
Q 3188 -78 2472 -78 
Q 1731 -78 1267 223 
Q 803 525 561 1097 
Q 319 1669 319 2325 
Q 319 3041 592 3573 
Q 866 4106 1370 4382 
Q 1875 4659 2481 4659 
Q 3169 4659 3637 4309 
Q 4106 3959 4291 3325 
L 3694 3184 
Q 3534 3684 3231 3912 
Q 2928 4141 2469 4141 
Q 1941 4141 1586 3887 
Q 1231 3634 1087 3207 
Q 944 2781 944 2328 
Q 944 1744 1114 1308 
Q 1284 872 1643 656 
Q 2003 441 2422 441 
Q 2931 441 3284 734 
Q 3638 1028 3763 1606 
z
" id="ArialMT-43" transform="scale(0.015625)"/>
       <path d="M 488 0 
L 488 4581 
L 1109 4581 
L 3516 984 
L 3516 4581 
L 4097 4581 
L 4097 0 
L 3475 0 
L 1069 3600 
L 1069 0 
L 488 0 
z
" id="ArialMT-4e" transform="scale(0.015625)"/>
       <path d="M -97 -1272 
L -97 -866 
L 3631 -866 
L 3631 -1272 
L -97 -1272 
z
" id="ArialMT-5f" transform="scale(0.015625)"/>
       <path d="M 422 0 
L 422 4581 
L 984 4581 
L 984 2938 
Q 1378 3394 1978 3394 
Q 2347 3394 2619 3248 
Q 2891 3103 3008 2847 
Q 3125 2591 3125 2103 
L 3125 0 
L 2563 0 
L 2563 2103 
Q 2563 2525 2380 2717 
Q 2197 2909 1863 2909 
Q 1613 2909 1392 2779 
Q 1172 2650 1078 2428 
Q 984 2206 984 1816 
L 984 0 
L 422 0 
z
" id="ArialMT-68" transform="scale(0.015625)"/>
      </defs>
      <use xlink:href="#ArialMT-43"/>
      <use x="72.216797" xlink:href="#ArialMT-4e"/>
      <use x="144.433594" xlink:href="#ArialMT-4e"/>
      <use x="216.650391" xlink:href="#ArialMT-5f"/>
      <use x="272.265625" xlink:href="#ArialMT-6f"/>
      <use x="327.880859" xlink:href="#ArialMT-6e"/>
      <use x="383.496094" xlink:href="#ArialMT-65"/>
      <use x="439.111328" xlink:href="#ArialMT-68"/>
      <use x="494.726562" xlink:href="#ArialMT-6f"/>
      <use x="550.341797" xlink:href="#ArialMT-74"/>
     </g>
    </g>
    <g id="line2d_30">
     <path d="M 261.044 39.438463 
L 278.644 39.438463 
" style="fill:none;stroke:#084068;stroke-linecap:round;stroke-width:2;"/>
    </g>
    <g id="line2d_31"/>
    <g id="text_16">
     <!-- CNN_onehot_pretrained -->
     <g style="fill:#262626;" transform="translate(285.684 42.518463)scale(0.088 -0.088)">
      <use xlink:href="#ArialMT-43"/>
      <use x="72.216797" xlink:href="#ArialMT-4e"/>
      <use x="144.433594" xlink:href="#ArialMT-4e"/>
      <use x="216.650391" xlink:href="#ArialMT-5f"/>
      <use x="272.265625" xlink:href="#ArialMT-6f"/>
      <use x="327.880859" xlink:href="#ArialMT-6e"/>
      <use x="383.496094" xlink:href="#ArialMT-65"/>
      <use x="439.111328" xlink:href="#ArialMT-68"/>
      <use x="494.726562" xlink:href="#ArialMT-6f"/>
      <use x="550.341797" xlink:href="#ArialMT-74"/>
      <use x="578.125" xlink:href="#ArialMT-5f"/>
      <use x="633.740234" xlink:href="#ArialMT-70"/>
      <use x="689.355469" xlink:href="#ArialMT-72"/>
      <use x="722.65625" xlink:href="#ArialMT-65"/>
      <use x="778.271484" xlink:href="#ArialMT-74"/>
      <use x="806.054688" xlink:href="#ArialMT-72"/>
      <use x="839.355469" xlink:href="#ArialMT-61"/>
      <use x="894.970703" xlink:href="#ArialMT-69"/>
      <use x="917.1875" xlink:href="#ArialMT-6e"/>
      <use x="972.802734" xlink:href="#ArialMT-65"/>
      <use x="1028.417969" xlink:href="#ArialMT-64"/>
     </g>
    </g>
    <g id="line2d_32">
     <path d="M 261.044 51.993588 
L 278.644 51.993588 
" style="fill:none;stroke:#5e799d;stroke-linecap:round;stroke-width:2;"/>
    </g>
    <g id="line2d_33"/>
    <g id="text_17">
     <!-- CNN_matrix -->
     <g style="fill:#262626;" transform="translate(285.684 55.073588)scale(0.088 -0.088)">
      <defs>
       <path d="M 47 0 
L 1259 1725 
L 138 3319 
L 841 3319 
L 1350 2541 
Q 1494 2319 1581 2169 
Q 1719 2375 1834 2534 
L 2394 3319 
L 3066 3319 
L 1919 1756 
L 3153 0 
L 2463 0 
L 1781 1031 
L 1600 1309 
L 728 0 
L 47 0 
z
" id="ArialMT-78" transform="scale(0.015625)"/>
      </defs>
      <use xlink:href="#ArialMT-43"/>
      <use x="72.216797" xlink:href="#ArialMT-4e"/>
      <use x="144.433594" xlink:href="#ArialMT-4e"/>
      <use x="216.650391" xlink:href="#ArialMT-5f"/>
      <use x="272.265625" xlink:href="#ArialMT-6d"/>
      <use x="355.566406" xlink:href="#ArialMT-61"/>
      <use x="411.181641" xlink:href="#ArialMT-74"/>
      <use x="438.964844" xlink:href="#ArialMT-72"/>
      <use x="472.265625" xlink:href="#ArialMT-69"/>
      <use x="494.482422" xlink:href="#ArialMT-78"/>
     </g>
    </g>
    <g id="line2d_34">
     <path d="M 261.044 64.548713 
L 278.644 64.548713 
" style="fill:none;stroke:#5e799d;stroke-linecap:round;stroke-width:2;"/>
    </g>
    <g id="line2d_35"/>
    <g id="text_18">
     <!-- CNN_matrix_pretrained -->
     <g style="fill:#262626;" transform="translate(285.684 67.628713)scale(0.088 -0.088)">
      <use xlink:href="#ArialMT-43"/>
      <use x="72.216797" xlink:href="#ArialMT-4e"/>
      <use x="144.433594" xlink:href="#ArialMT-4e"/>
      <use x="216.650391" xlink:href="#ArialMT-5f"/>
      <use x="272.265625" xlink:href="#ArialMT-6d"/>
      <use x="355.566406" xlink:href="#ArialMT-61"/>
      <use x="411.181641" xlink:href="#ArialMT-74"/>
      <use x="438.964844" xlink:href="#ArialMT-72"/>
      <use x="472.265625" xlink:href="#ArialMT-69"/>
      <use x="494.482422" xlink:href="#ArialMT-78"/>
      <use x="544.482422" xlink:href="#ArialMT-5f"/>
      <use x="600.097656" xlink:href="#ArialMT-70"/>
      <use x="655.712891" xlink:href="#ArialMT-72"/>
      <use x="689.013672" xlink:href="#ArialMT-65"/>
      <use x="744.628906" xlink:href="#ArialMT-74"/>
      <use x="772.412109" xlink:href="#ArialMT-72"/>
      <use x="805.712891" xlink:href="#ArialMT-61"/>
      <use x="861.328125" xlink:href="#ArialMT-69"/>
      <use x="883.544922" xlink:href="#ArialMT-6e"/>
      <use x="939.160156" xlink:href="#ArialMT-65"/>
      <use x="994.775391" xlink:href="#ArialMT-64"/>
     </g>
    </g>
    <g id="line2d_36">
     <path d="M 261.044 77.103838 
L 278.644 77.103838 
" style="fill:none;stroke:#aab5cc;stroke-linecap:round;stroke-width:2;"/>
    </g>
    <g id="line2d_37"/>
    <g id="text_19">
     <!-- LSTM_onehot -->
     <g style="fill:#262626;" transform="translate(285.684 80.183838)scale(0.088 -0.088)">
      <defs>
       <path d="M 469 0 
L 469 4581 
L 1075 4581 
L 1075 541 
L 3331 541 
L 3331 0 
L 469 0 
z
" id="ArialMT-4c" transform="scale(0.015625)"/>
       <path d="M 288 1472 
L 859 1522 
Q 900 1178 1048 958 
Q 1197 738 1509 602 
Q 1822 466 2213 466 
Q 2559 466 2825 569 
Q 3091 672 3220 851 
Q 3350 1031 3350 1244 
Q 3350 1459 3225 1620 
Q 3100 1781 2813 1891 
Q 2628 1963 1997 2114 
Q 1366 2266 1113 2400 
Q 784 2572 623 2826 
Q 463 3081 463 3397 
Q 463 3744 659 4045 
Q 856 4347 1234 4503 
Q 1613 4659 2075 4659 
Q 2584 4659 2973 4495 
Q 3363 4331 3572 4012 
Q 3781 3694 3797 3291 
L 3216 3247 
Q 3169 3681 2898 3903 
Q 2628 4125 2100 4125 
Q 1550 4125 1298 3923 
Q 1047 3722 1047 3438 
Q 1047 3191 1225 3031 
Q 1400 2872 2139 2705 
Q 2878 2538 3153 2413 
Q 3553 2228 3743 1945 
Q 3934 1663 3934 1294 
Q 3934 928 3725 604 
Q 3516 281 3123 101 
Q 2731 -78 2241 -78 
Q 1619 -78 1198 103 
Q 778 284 539 648 
Q 300 1013 288 1472 
z
" id="ArialMT-53" transform="scale(0.015625)"/>
       <path d="M 1659 0 
L 1659 4041 
L 150 4041 
L 150 4581 
L 3781 4581 
L 3781 4041 
L 2266 4041 
L 2266 0 
L 1659 0 
z
" id="ArialMT-54" transform="scale(0.015625)"/>
       <path d="M 475 0 
L 475 4581 
L 1388 4581 
L 2472 1338 
Q 2622 884 2691 659 
Q 2769 909 2934 1394 
L 4031 4581 
L 4847 4581 
L 4847 0 
L 4263 0 
L 4263 3834 
L 2931 0 
L 2384 0 
L 1059 3900 
L 1059 0 
L 475 0 
z
" id="ArialMT-4d" transform="scale(0.015625)"/>
      </defs>
      <use xlink:href="#ArialMT-4c"/>
      <use x="55.615234" xlink:href="#ArialMT-53"/>
      <use x="122.314453" xlink:href="#ArialMT-54"/>
      <use x="183.398438" xlink:href="#ArialMT-4d"/>
      <use x="266.699219" xlink:href="#ArialMT-5f"/>
      <use x="322.314453" xlink:href="#ArialMT-6f"/>
      <use x="377.929688" xlink:href="#ArialMT-6e"/>
      <use x="433.544922" xlink:href="#ArialMT-65"/>
      <use x="489.160156" xlink:href="#ArialMT-68"/>
      <use x="544.775391" xlink:href="#ArialMT-6f"/>
      <use x="600.390625" xlink:href="#ArialMT-74"/>
     </g>
    </g>
    <g id="line2d_38">
     <path d="M 261.044 89.658963 
L 278.644 89.658963 
" style="fill:none;stroke:#aab5cc;stroke-linecap:round;stroke-width:2;"/>
    </g>
    <g id="line2d_39"/>
    <g id="text_20">
     <!-- LSTM_onehot_pretrained -->
     <g style="fill:#262626;" transform="translate(285.684 92.738963)scale(0.088 -0.088)">
      <use xlink:href="#ArialMT-4c"/>
      <use x="55.615234" xlink:href="#ArialMT-53"/>
      <use x="122.314453" xlink:href="#ArialMT-54"/>
      <use x="183.398438" xlink:href="#ArialMT-4d"/>
      <use x="266.699219" xlink:href="#ArialMT-5f"/>
      <use x="322.314453" xlink:href="#ArialMT-6f"/>
      <use x="377.929688" xlink:href="#ArialMT-6e"/>
      <use x="433.544922" xlink:href="#ArialMT-65"/>
      <use x="489.160156" xlink:href="#ArialMT-68"/>
      <use x="544.775391" xlink:href="#ArialMT-6f"/>
      <use x="600.390625" xlink:href="#ArialMT-74"/>
      <use x="628.173828" xlink:href="#ArialMT-5f"/>
      <use x="683.789062" xlink:href="#ArialMT-70"/>
      <use x="739.404297" xlink:href="#ArialMT-72"/>
      <use x="772.705078" xlink:href="#ArialMT-65"/>
      <use x="828.320312" xlink:href="#ArialMT-74"/>
      <use x="856.103516" xlink:href="#ArialMT-72"/>
      <use x="889.404297" xlink:href="#ArialMT-61"/>
      <use x="945.019531" xlink:href="#ArialMT-69"/>
      <use x="967.236328" xlink:href="#ArialMT-6e"/>
      <use x="1022.851562" xlink:href="#ArialMT-65"/>
      <use x="1078.466797" xlink:href="#ArialMT-64"/>
     </g>
    </g>
    <g id="line2d_40">
     <path d="M 261.044 102.106838 
L 278.644 102.106838 
" style="fill:none;stroke:#b9cc95;stroke-linecap:round;stroke-width:2;"/>
    </g>
    <g id="line2d_41"/>
    <g id="text_21">
     <!-- ARNold -->
     <g style="fill:#262626;" transform="translate(285.684 105.186838)scale(0.088 -0.088)">
      <defs>
       <path d="M -9 0 
L 1750 4581 
L 2403 4581 
L 4278 0 
L 3588 0 
L 3053 1388 
L 1138 1388 
L 634 0 
L -9 0 
z
M 1313 1881 
L 2866 1881 
L 2388 3150 
Q 2169 3728 2063 4100 
Q 1975 3659 1816 3225 
L 1313 1881 
z
" id="ArialMT-41" transform="scale(0.015625)"/>
       <path d="M 503 0 
L 503 4581 
L 2534 4581 
Q 3147 4581 3465 4457 
Q 3784 4334 3975 4021 
Q 4166 3709 4166 3331 
Q 4166 2844 3850 2509 
Q 3534 2175 2875 2084 
Q 3116 1969 3241 1856 
Q 3506 1613 3744 1247 
L 4541 0 
L 3778 0 
L 3172 953 
Q 2906 1366 2734 1584 
Q 2563 1803 2427 1890 
Q 2291 1978 2150 2013 
Q 2047 2034 1813 2034 
L 1109 2034 
L 1109 0 
L 503 0 
z
M 1109 2559 
L 2413 2559 
Q 2828 2559 3062 2645 
Q 3297 2731 3419 2920 
Q 3541 3109 3541 3331 
Q 3541 3656 3305 3865 
Q 3069 4075 2559 4075 
L 1109 4075 
L 1109 2559 
z
" id="ArialMT-52" transform="scale(0.015625)"/>
      </defs>
      <use xlink:href="#ArialMT-41"/>
      <use x="66.699219" xlink:href="#ArialMT-52"/>
      <use x="138.916016" xlink:href="#ArialMT-4e"/>
      <use x="211.132812" xlink:href="#ArialMT-6f"/>
      <use x="266.748047" xlink:href="#ArialMT-6c"/>
      <use x="288.964844" xlink:href="#ArialMT-64"/>
     </g>
    </g>
    <g id="text_22">
     <!-- pretrained -->
     <g style="fill:#262626;" transform="translate(285.684 117.634713)scale(0.088 -0.088)">
      <use xlink:href="#ArialMT-70"/>
      <use x="55.615234" xlink:href="#ArialMT-72"/>
      <use x="88.916016" xlink:href="#ArialMT-65"/>
      <use x="144.53125" xlink:href="#ArialMT-74"/>
      <use x="172.314453" xlink:href="#ArialMT-72"/>
      <use x="205.615234" xlink:href="#ArialMT-61"/>
      <use x="261.230469" xlink:href="#ArialMT-69"/>
      <use x="283.447266" xlink:href="#ArialMT-6e"/>
      <use x="339.0625" xlink:href="#ArialMT-65"/>
      <use x="394.677734" xlink:href="#ArialMT-64"/>
     </g>
    </g>
    <g id="line2d_42">
     <path d="M 261.044 127.002588 
L 278.644 127.002588 
" style="fill:none;stroke:#333333;stroke-linecap:round;stroke-width:2;"/>
    </g>
    <g id="line2d_43"/>
    <g id="text_23">
     <!-- False -->
     <g style="fill:#262626;" transform="translate(285.684 130.082588)scale(0.088 -0.088)">
      <defs>
       <path d="M 525 0 
L 525 4581 
L 3616 4581 
L 3616 4041 
L 1131 4041 
L 1131 2622 
L 3281 2622 
L 3281 2081 
L 1131 2081 
L 1131 0 
L 525 0 
z
" id="ArialMT-46" transform="scale(0.015625)"/>
      </defs>
      <use xlink:href="#ArialMT-46"/>
      <use x="61.083984" xlink:href="#ArialMT-61"/>
      <use x="116.699219" xlink:href="#ArialMT-6c"/>
      <use x="138.916016" xlink:href="#ArialMT-73"/>
      <use x="188.916016" xlink:href="#ArialMT-65"/>
     </g>
    </g>
    <g id="line2d_44">
     <path d="M 261.044 139.450463 
L 278.644 139.450463 
" style="fill:none;stroke:#333333;stroke-dasharray:8,3;stroke-dashoffset:0;stroke-width:2;"/>
    </g>
    <g id="line2d_45"/>
    <g id="text_24">
     <!-- True -->
     <g style="fill:#262626;" transform="translate(285.684 142.530463)scale(0.088 -0.088)">
      <use xlink:href="#ArialMT-54"/>
      <use x="57.333984" xlink:href="#ArialMT-72"/>
      <use x="90.634766" xlink:href="#ArialMT-75"/>
      <use x="146.25" xlink:href="#ArialMT-65"/>
     </g>
    </g>
   </g>
  </g>
 </g>
 <defs>
  <clipPath id="pc48b409352">
   <rect height="135.9" width="206.46" x="40.741" y="7.589338"/>
  </clipPath>
 </defs>
</svg>
