<?xml version="1.0" encoding="utf-8" standalone="no"?>
<!DOCTYPE svg PUBLIC "-//W3C//DTD SVG 1.1//EN"
  "http://www.w3.org/Graphics/SVG/1.1/DTD/svg11.dtd">
<svg height="398.363344pt" version="1.1" viewBox="0 0 438.21 398.363344" width="438.21pt" xmlns="http://www.w3.org/2000/svg" xmlns:xlink="http://www.w3.org/1999/xlink">
 <metadata>
  <rdf:RDF xmlns:cc="http://creativecommons.org/ns#" xmlns:dc="http://purl.org/dc/elements/1.1/" xmlns:rdf="http://www.w3.org/1999/02/22-rdf-syntax-ns#">
   <cc:Work>
    <dc:type rdf:resource="http://purl.org/dc/dcmitype/StillImage"/>
    <dc:date>2021-12-20T02:53:19.144205</dc:date>
    <dc:format>image/svg+xml</dc:format>
    <dc:creator>
     <cc:Agent>
      <dc:title>Matplotlib v3.4.3, https://matplotlib.org/</dc:title>
     </cc:Agent>
    </dc:creator>
   </cc:Work>
  </rdf:RDF>
 </metadata>
 <defs>
  <style type="text/css">*{stroke-linecap:butt;stroke-linejoin:round;}</style>
 </defs>
 <g id="figure_1">
  <g id="patch_1">
   <path d="M 0 398.363344 
L 438.21 398.363344 
L 438.21 0 
L 0 0 
z
" style="fill:#ffffff;"/>
  </g>
  <g id="axes_1">
   <g id="patch_2">
    <path d="M 47.110625 333.36 
L 326.110625 333.36 
L 326.110625 7.2 
L 47.110625 7.2 
z
" style="fill:#ffffff;"/>
   </g>
   <g id="matplotlib.axis_1">
    <g id="xtick_1">
     <g id="line2d_1">
      <path clip-path="url(#p506e68be67)" d="M 59.792443 333.36 
L 59.792443 7.2 
" style="fill:none;stroke:#cccccc;stroke-linecap:round;"/>
     </g>
     <g id="text_1">
      <!-- one-hot -->
      <g style="fill:#262626;" transform="translate(41.140568 350.733594)scale(0.11 -0.11)">
       <defs>
        <path d="M 213 1659 
Q 213 2581 725 3025 
Q 1153 3394 1769 3394 
Q 2453 3394 2887 2945 
Q 3322 2497 3322 1706 
Q 3322 1066 3130 698 
Q 2938 331 2570 128 
Q 2203 -75 1769 -75 
Q 1072 -75 642 372 
Q 213 819 213 1659 
z
M 791 1659 
Q 791 1022 1069 705 
Q 1347 388 1769 388 
Q 2188 388 2466 706 
Q 2744 1025 2744 1678 
Q 2744 2294 2464 2611 
Q 2184 2928 1769 2928 
Q 1347 2928 1069 2612 
Q 791 2297 791 1659 
z
" id="ArialMT-6f" transform="scale(0.015625)"/>
        <path d="M 422 0 
L 422 3319 
L 928 3319 
L 928 2847 
Q 1294 3394 1984 3394 
Q 2284 3394 2536 3286 
Q 2788 3178 2913 3003 
Q 3038 2828 3088 2588 
Q 3119 2431 3119 2041 
L 3119 0 
L 2556 0 
L 2556 2019 
Q 2556 2363 2490 2533 
Q 2425 2703 2258 2804 
Q 2091 2906 1866 2906 
Q 1506 2906 1245 2678 
Q 984 2450 984 1813 
L 984 0 
L 422 0 
z
" id="ArialMT-6e" transform="scale(0.015625)"/>
        <path d="M 2694 1069 
L 3275 997 
Q 3138 488 2766 206 
Q 2394 -75 1816 -75 
Q 1088 -75 661 373 
Q 234 822 234 1631 
Q 234 2469 665 2931 
Q 1097 3394 1784 3394 
Q 2450 3394 2872 2941 
Q 3294 2488 3294 1666 
Q 3294 1616 3291 1516 
L 816 1516 
Q 847 969 1125 678 
Q 1403 388 1819 388 
Q 2128 388 2347 550 
Q 2566 713 2694 1069 
z
M 847 1978 
L 2700 1978 
Q 2663 2397 2488 2606 
Q 2219 2931 1791 2931 
Q 1403 2931 1139 2672 
Q 875 2413 847 1978 
z
" id="ArialMT-65" transform="scale(0.015625)"/>
        <path d="M 203 1375 
L 203 1941 
L 1931 1941 
L 1931 1375 
L 203 1375 
z
" id="ArialMT-2d" transform="scale(0.015625)"/>
        <path d="M 422 0 
L 422 4581 
L 984 4581 
L 984 2938 
Q 1378 3394 1978 3394 
Q 2347 3394 2619 3248 
Q 2891 3103 3008 2847 
Q 3125 2591 3125 2103 
L 3125 0 
L 2563 0 
L 2563 2103 
Q 2563 2525 2380 2717 
Q 2197 2909 1863 2909 
Q 1613 2909 1392 2779 
Q 1172 2650 1078 2428 
Q 984 2206 984 1816 
L 984 0 
L 422 0 
z
" id="ArialMT-68" transform="scale(0.015625)"/>
        <path d="M 1650 503 
L 1731 6 
Q 1494 -44 1306 -44 
Q 1000 -44 831 53 
Q 663 150 594 308 
Q 525 466 525 972 
L 525 2881 
L 113 2881 
L 113 3319 
L 525 3319 
L 525 4141 
L 1084 4478 
L 1084 3319 
L 1650 3319 
L 1650 2881 
L 1084 2881 
L 1084 941 
Q 1084 700 1114 631 
Q 1144 563 1211 522 
Q 1278 481 1403 481 
Q 1497 481 1650 503 
z
" id="ArialMT-74" transform="scale(0.015625)"/>
       </defs>
       <use xlink:href="#ArialMT-6f"/>
       <use x="55.615234" xlink:href="#ArialMT-6e"/>
       <use x="111.230469" xlink:href="#ArialMT-65"/>
       <use x="166.845703" xlink:href="#ArialMT-2d"/>
       <use x="200.146484" xlink:href="#ArialMT-68"/>
       <use x="255.761719" xlink:href="#ArialMT-6f"/>
       <use x="311.376953" xlink:href="#ArialMT-74"/>
      </g>
      <!-- CNN -->
      <g style="fill:#262626;" transform="translate(47.876349 362.368156)scale(0.11 -0.11)">
       <defs>
        <path d="M 3763 1606 
L 4369 1453 
Q 4178 706 3683 314 
Q 3188 -78 2472 -78 
Q 1731 -78 1267 223 
Q 803 525 561 1097 
Q 319 1669 319 2325 
Q 319 3041 592 3573 
Q 866 4106 1370 4382 
Q 1875 4659 2481 4659 
Q 3169 4659 3637 4309 
Q 4106 3959 4291 3325 
L 3694 3184 
Q 3534 3684 3231 3912 
Q 2928 4141 2469 4141 
Q 1941 4141 1586 3887 
Q 1231 3634 1087 3207 
Q 944 2781 944 2328 
Q 944 1744 1114 1308 
Q 1284 872 1643 656 
Q 2003 441 2422 441 
Q 2931 441 3284 734 
Q 3638 1028 3763 1606 
z
" id="ArialMT-43" transform="scale(0.015625)"/>
        <path d="M 488 0 
L 488 4581 
L 1109 4581 
L 3516 984 
L 3516 4581 
L 4097 4581 
L 4097 0 
L 3475 0 
L 1069 3600 
L 1069 0 
L 488 0 
z
" id="ArialMT-4e" transform="scale(0.015625)"/>
       </defs>
       <use xlink:href="#ArialMT-43"/>
       <use x="72.216797" xlink:href="#ArialMT-4e"/>
       <use x="144.433594" xlink:href="#ArialMT-4e"/>
      </g>
     </g>
    </g>
    <g id="xtick_2">
     <g id="line2d_2">
      <path clip-path="url(#p506e68be67)" d="M 102.06517 333.36 
L 102.06517 7.2 
" style="fill:none;stroke:#cccccc;stroke-linecap:round;"/>
     </g>
     <g id="text_2">
      <!-- one-hot -->
      <g style="fill:#262626;" transform="translate(83.413295 350.733594)scale(0.11 -0.11)">
       <use xlink:href="#ArialMT-6f"/>
       <use x="55.615234" xlink:href="#ArialMT-6e"/>
       <use x="111.230469" xlink:href="#ArialMT-65"/>
       <use x="166.845703" xlink:href="#ArialMT-2d"/>
       <use x="200.146484" xlink:href="#ArialMT-68"/>
       <use x="255.761719" xlink:href="#ArialMT-6f"/>
       <use x="311.376953" xlink:href="#ArialMT-74"/>
      </g>
      <!-- CNN -->
      <g style="fill:#262626;" transform="translate(90.149077 362.368156)scale(0.11 -0.11)">
       <use xlink:href="#ArialMT-43"/>
       <use x="72.216797" xlink:href="#ArialMT-4e"/>
       <use x="144.433594" xlink:href="#ArialMT-4e"/>
      </g>
      <!-- pre-trained -->
      <g style="fill:#262626;" transform="translate(75.470092 374.002719)scale(0.11 -0.11)">
       <defs>
        <path d="M 422 -1272 
L 422 3319 
L 934 3319 
L 934 2888 
Q 1116 3141 1344 3267 
Q 1572 3394 1897 3394 
Q 2322 3394 2647 3175 
Q 2972 2956 3137 2557 
Q 3303 2159 3303 1684 
Q 3303 1175 3120 767 
Q 2938 359 2589 142 
Q 2241 -75 1856 -75 
Q 1575 -75 1351 44 
Q 1128 163 984 344 
L 984 -1272 
L 422 -1272 
z
M 931 1641 
Q 931 1000 1190 694 
Q 1450 388 1819 388 
Q 2194 388 2461 705 
Q 2728 1022 2728 1688 
Q 2728 2322 2467 2637 
Q 2206 2953 1844 2953 
Q 1484 2953 1207 2617 
Q 931 2281 931 1641 
z
" id="ArialMT-70" transform="scale(0.015625)"/>
        <path d="M 416 0 
L 416 3319 
L 922 3319 
L 922 2816 
Q 1116 3169 1280 3281 
Q 1444 3394 1641 3394 
Q 1925 3394 2219 3213 
L 2025 2691 
Q 1819 2813 1613 2813 
Q 1428 2813 1281 2702 
Q 1134 2591 1072 2394 
Q 978 2094 978 1738 
L 978 0 
L 416 0 
z
" id="ArialMT-72" transform="scale(0.015625)"/>
        <path d="M 2588 409 
Q 2275 144 1986 34 
Q 1697 -75 1366 -75 
Q 819 -75 525 192 
Q 231 459 231 875 
Q 231 1119 342 1320 
Q 453 1522 633 1644 
Q 813 1766 1038 1828 
Q 1203 1872 1538 1913 
Q 2219 1994 2541 2106 
Q 2544 2222 2544 2253 
Q 2544 2597 2384 2738 
Q 2169 2928 1744 2928 
Q 1347 2928 1158 2789 
Q 969 2650 878 2297 
L 328 2372 
Q 403 2725 575 2942 
Q 747 3159 1072 3276 
Q 1397 3394 1825 3394 
Q 2250 3394 2515 3294 
Q 2781 3194 2906 3042 
Q 3031 2891 3081 2659 
Q 3109 2516 3109 2141 
L 3109 1391 
Q 3109 606 3145 398 
Q 3181 191 3288 0 
L 2700 0 
Q 2613 175 2588 409 
z
M 2541 1666 
Q 2234 1541 1622 1453 
Q 1275 1403 1131 1340 
Q 988 1278 909 1158 
Q 831 1038 831 891 
Q 831 666 1001 516 
Q 1172 366 1500 366 
Q 1825 366 2078 508 
Q 2331 650 2450 897 
Q 2541 1088 2541 1459 
L 2541 1666 
z
" id="ArialMT-61" transform="scale(0.015625)"/>
        <path d="M 425 3934 
L 425 4581 
L 988 4581 
L 988 3934 
L 425 3934 
z
M 425 0 
L 425 3319 
L 988 3319 
L 988 0 
L 425 0 
z
" id="ArialMT-69" transform="scale(0.015625)"/>
        <path d="M 2575 0 
L 2575 419 
Q 2259 -75 1647 -75 
Q 1250 -75 917 144 
Q 584 363 401 755 
Q 219 1147 219 1656 
Q 219 2153 384 2558 
Q 550 2963 881 3178 
Q 1213 3394 1622 3394 
Q 1922 3394 2156 3267 
Q 2391 3141 2538 2938 
L 2538 4581 
L 3097 4581 
L 3097 0 
L 2575 0 
z
M 797 1656 
Q 797 1019 1065 703 
Q 1334 388 1700 388 
Q 2069 388 2326 689 
Q 2584 991 2584 1609 
Q 2584 2291 2321 2609 
Q 2059 2928 1675 2928 
Q 1300 2928 1048 2622 
Q 797 2316 797 1656 
z
" id="ArialMT-64" transform="scale(0.015625)"/>
       </defs>
       <use xlink:href="#ArialMT-70"/>
       <use x="55.615234" xlink:href="#ArialMT-72"/>
       <use x="88.916016" xlink:href="#ArialMT-65"/>
       <use x="144.53125" xlink:href="#ArialMT-2d"/>
       <use x="177.832031" xlink:href="#ArialMT-74"/>
       <use x="205.615234" xlink:href="#ArialMT-72"/>
       <use x="238.916016" xlink:href="#ArialMT-61"/>
       <use x="294.53125" xlink:href="#ArialMT-69"/>
       <use x="316.748047" xlink:href="#ArialMT-6e"/>
       <use x="372.363281" xlink:href="#ArialMT-65"/>
       <use x="427.978516" xlink:href="#ArialMT-64"/>
      </g>
     </g>
    </g>
    <g id="xtick_3">
     <g id="line2d_3">
      <path clip-path="url(#p506e68be67)" d="M 144.337898 333.36 
L 144.337898 7.2 
" style="fill:none;stroke:#cccccc;stroke-linecap:round;"/>
     </g>
     <g id="text_3">
      <!-- matrix -->
      <g style="fill:#262626;" transform="translate(129.366726 350.733594)scale(0.11 -0.11)">
       <defs>
        <path d="M 422 0 
L 422 3319 
L 925 3319 
L 925 2853 
Q 1081 3097 1340 3245 
Q 1600 3394 1931 3394 
Q 2300 3394 2536 3241 
Q 2772 3088 2869 2813 
Q 3263 3394 3894 3394 
Q 4388 3394 4653 3120 
Q 4919 2847 4919 2278 
L 4919 0 
L 4359 0 
L 4359 2091 
Q 4359 2428 4304 2576 
Q 4250 2725 4106 2815 
Q 3963 2906 3769 2906 
Q 3419 2906 3187 2673 
Q 2956 2441 2956 1928 
L 2956 0 
L 2394 0 
L 2394 2156 
Q 2394 2531 2256 2718 
Q 2119 2906 1806 2906 
Q 1569 2906 1367 2781 
Q 1166 2656 1075 2415 
Q 984 2175 984 1722 
L 984 0 
L 422 0 
z
" id="ArialMT-6d" transform="scale(0.015625)"/>
        <path d="M 47 0 
L 1259 1725 
L 138 3319 
L 841 3319 
L 1350 2541 
Q 1494 2319 1581 2169 
Q 1719 2375 1834 2534 
L 2394 3319 
L 3066 3319 
L 1919 1756 
L 3153 0 
L 2463 0 
L 1781 1031 
L 1600 1309 
L 728 0 
L 47 0 
z
" id="ArialMT-78" transform="scale(0.015625)"/>
       </defs>
       <use xlink:href="#ArialMT-6d"/>
       <use x="83.300781" xlink:href="#ArialMT-61"/>
       <use x="138.916016" xlink:href="#ArialMT-74"/>
       <use x="166.699219" xlink:href="#ArialMT-72"/>
       <use x="200" xlink:href="#ArialMT-69"/>
       <use x="222.216797" xlink:href="#ArialMT-78"/>
      </g>
      <!-- CNN -->
      <g style="fill:#262626;" transform="translate(132.421804 362.368156)scale(0.11 -0.11)">
       <use xlink:href="#ArialMT-43"/>
       <use x="72.216797" xlink:href="#ArialMT-4e"/>
       <use x="144.433594" xlink:href="#ArialMT-4e"/>
      </g>
     </g>
    </g>
    <g id="xtick_4">
     <g id="line2d_4">
      <path clip-path="url(#p506e68be67)" d="M 186.610625 333.36 
L 186.610625 7.2 
" style="fill:none;stroke:#cccccc;stroke-linecap:round;"/>
     </g>
     <g id="text_4">
      <!-- matrix -->
      <g style="fill:#262626;" transform="translate(171.639453 350.733594)scale(0.11 -0.11)">
       <use xlink:href="#ArialMT-6d"/>
       <use x="83.300781" xlink:href="#ArialMT-61"/>
       <use x="138.916016" xlink:href="#ArialMT-74"/>
       <use x="166.699219" xlink:href="#ArialMT-72"/>
       <use x="200" xlink:href="#ArialMT-69"/>
       <use x="222.216797" xlink:href="#ArialMT-78"/>
      </g>
      <!-- CNN -->
      <g style="fill:#262626;" transform="translate(174.694531 362.368156)scale(0.11 -0.11)">
       <use xlink:href="#ArialMT-43"/>
       <use x="72.216797" xlink:href="#ArialMT-4e"/>
       <use x="144.433594" xlink:href="#ArialMT-4e"/>
      </g>
      <!-- pre-trained -->
      <g style="fill:#262626;" transform="translate(160.015547 374.002719)scale(0.11 -0.11)">
       <use xlink:href="#ArialMT-70"/>
       <use x="55.615234" xlink:href="#ArialMT-72"/>
       <use x="88.916016" xlink:href="#ArialMT-65"/>
       <use x="144.53125" xlink:href="#ArialMT-2d"/>
       <use x="177.832031" xlink:href="#ArialMT-74"/>
       <use x="205.615234" xlink:href="#ArialMT-72"/>
       <use x="238.916016" xlink:href="#ArialMT-61"/>
       <use x="294.53125" xlink:href="#ArialMT-69"/>
       <use x="316.748047" xlink:href="#ArialMT-6e"/>
       <use x="372.363281" xlink:href="#ArialMT-65"/>
       <use x="427.978516" xlink:href="#ArialMT-64"/>
      </g>
     </g>
    </g>
    <g id="xtick_5">
     <g id="line2d_5">
      <path clip-path="url(#p506e68be67)" d="M 228.883352 333.36 
L 228.883352 7.2 
" style="fill:none;stroke:#cccccc;stroke-linecap:round;"/>
     </g>
     <g id="text_5">
      <!-- one-hot -->
      <g style="fill:#262626;" transform="translate(210.231477 350.733594)scale(0.11 -0.11)">
       <use xlink:href="#ArialMT-6f"/>
       <use x="55.615234" xlink:href="#ArialMT-6e"/>
       <use x="111.230469" xlink:href="#ArialMT-65"/>
       <use x="166.845703" xlink:href="#ArialMT-2d"/>
       <use x="200.146484" xlink:href="#ArialMT-68"/>
       <use x="255.761719" xlink:href="#ArialMT-6f"/>
       <use x="311.376953" xlink:href="#ArialMT-74"/>
      </g>
      <!-- LSTM -->
      <g style="fill:#262626;" transform="translate(214.21554 362.368156)scale(0.11 -0.11)">
       <defs>
        <path d="M 469 0 
L 469 4581 
L 1075 4581 
L 1075 541 
L 3331 541 
L 3331 0 
L 469 0 
z
" id="ArialMT-4c" transform="scale(0.015625)"/>
        <path d="M 288 1472 
L 859 1522 
Q 900 1178 1048 958 
Q 1197 738 1509 602 
Q 1822 466 2213 466 
Q 2559 466 2825 569 
Q 3091 672 3220 851 
Q 3350 1031 3350 1244 
Q 3350 1459 3225 1620 
Q 3100 1781 2813 1891 
Q 2628 1963 1997 2114 
Q 1366 2266 1113 2400 
Q 784 2572 623 2826 
Q 463 3081 463 3397 
Q 463 3744 659 4045 
Q 856 4347 1234 4503 
Q 1613 4659 2075 4659 
Q 2584 4659 2973 4495 
Q 3363 4331 3572 4012 
Q 3781 3694 3797 3291 
L 3216 3247 
Q 3169 3681 2898 3903 
Q 2628 4125 2100 4125 
Q 1550 4125 1298 3923 
Q 1047 3722 1047 3438 
Q 1047 3191 1225 3031 
Q 1400 2872 2139 2705 
Q 2878 2538 3153 2413 
Q 3553 2228 3743 1945 
Q 3934 1663 3934 1294 
Q 3934 928 3725 604 
Q 3516 281 3123 101 
Q 2731 -78 2241 -78 
Q 1619 -78 1198 103 
Q 778 284 539 648 
Q 300 1013 288 1472 
z
" id="ArialMT-53" transform="scale(0.015625)"/>
        <path d="M 1659 0 
L 1659 4041 
L 150 4041 
L 150 4581 
L 3781 4581 
L 3781 4041 
L 2266 4041 
L 2266 0 
L 1659 0 
z
" id="ArialMT-54" transform="scale(0.015625)"/>
        <path d="M 475 0 
L 475 4581 
L 1388 4581 
L 2472 1338 
Q 2622 884 2691 659 
Q 2769 909 2934 1394 
L 4031 4581 
L 4847 4581 
L 4847 0 
L 4263 0 
L 4263 3834 
L 2931 0 
L 2384 0 
L 1059 3900 
L 1059 0 
L 475 0 
z
" id="ArialMT-4d" transform="scale(0.015625)"/>
       </defs>
       <use xlink:href="#ArialMT-4c"/>
       <use x="55.615234" xlink:href="#ArialMT-53"/>
       <use x="122.314453" xlink:href="#ArialMT-54"/>
       <use x="183.398438" xlink:href="#ArialMT-4d"/>
      </g>
     </g>
    </g>
    <g id="xtick_6">
     <g id="line2d_6">
      <path clip-path="url(#p506e68be67)" d="M 271.15608 333.36 
L 271.15608 7.2 
" style="fill:none;stroke:#cccccc;stroke-linecap:round;"/>
     </g>
     <g id="text_6">
      <!-- one-hot -->
      <g style="fill:#262626;" transform="translate(252.504205 350.733594)scale(0.11 -0.11)">
       <use xlink:href="#ArialMT-6f"/>
       <use x="55.615234" xlink:href="#ArialMT-6e"/>
       <use x="111.230469" xlink:href="#ArialMT-65"/>
       <use x="166.845703" xlink:href="#ArialMT-2d"/>
       <use x="200.146484" xlink:href="#ArialMT-68"/>
       <use x="255.761719" xlink:href="#ArialMT-6f"/>
       <use x="311.376953" xlink:href="#ArialMT-74"/>
      </g>
      <!-- LSTM -->
      <g style="fill:#262626;" transform="translate(256.488267 362.368156)scale(0.11 -0.11)">
       <use xlink:href="#ArialMT-4c"/>
       <use x="55.615234" xlink:href="#ArialMT-53"/>
       <use x="122.314453" xlink:href="#ArialMT-54"/>
       <use x="183.398438" xlink:href="#ArialMT-4d"/>
      </g>
      <!-- pre-trained -->
      <g style="fill:#262626;" transform="translate(244.561001 374.002719)scale(0.11 -0.11)">
       <use xlink:href="#ArialMT-70"/>
       <use x="55.615234" xlink:href="#ArialMT-72"/>
       <use x="88.916016" xlink:href="#ArialMT-65"/>
       <use x="144.53125" xlink:href="#ArialMT-2d"/>
       <use x="177.832031" xlink:href="#ArialMT-74"/>
       <use x="205.615234" xlink:href="#ArialMT-72"/>
       <use x="238.916016" xlink:href="#ArialMT-61"/>
       <use x="294.53125" xlink:href="#ArialMT-69"/>
       <use x="316.748047" xlink:href="#ArialMT-6e"/>
       <use x="372.363281" xlink:href="#ArialMT-65"/>
       <use x="427.978516" xlink:href="#ArialMT-64"/>
      </g>
     </g>
    </g>
    <g id="xtick_7">
     <g id="line2d_7">
      <path clip-path="url(#p506e68be67)" d="M 313.428807 333.36 
L 313.428807 7.2 
" style="fill:none;stroke:#cccccc;stroke-linecap:round;"/>
     </g>
     <g id="text_7">
      <!-- ARNold -->
      <g style="fill:#262626;" transform="translate(294.47701 350.733594)scale(0.11 -0.11)">
       <defs>
        <path d="M -9 0 
L 1750 4581 
L 2403 4581 
L 4278 0 
L 3588 0 
L 3053 1388 
L 1138 1388 
L 634 0 
L -9 0 
z
M 1313 1881 
L 2866 1881 
L 2388 3150 
Q 2169 3728 2063 4100 
Q 1975 3659 1816 3225 
L 1313 1881 
z
" id="ArialMT-41" transform="scale(0.015625)"/>
        <path d="M 503 0 
L 503 4581 
L 2534 4581 
Q 3147 4581 3465 4457 
Q 3784 4334 3975 4021 
Q 4166 3709 4166 3331 
Q 4166 2844 3850 2509 
Q 3534 2175 2875 2084 
Q 3116 1969 3241 1856 
Q 3506 1613 3744 1247 
L 4541 0 
L 3778 0 
L 3172 953 
Q 2906 1366 2734 1584 
Q 2563 1803 2427 1890 
Q 2291 1978 2150 2013 
Q 2047 2034 1813 2034 
L 1109 2034 
L 1109 0 
L 503 0 
z
M 1109 2559 
L 2413 2559 
Q 2828 2559 3062 2645 
Q 3297 2731 3419 2920 
Q 3541 3109 3541 3331 
Q 3541 3656 3305 3865 
Q 3069 4075 2559 4075 
L 1109 4075 
L 1109 2559 
z
" id="ArialMT-52" transform="scale(0.015625)"/>
        <path d="M 409 0 
L 409 4581 
L 972 4581 
L 972 0 
L 409 0 
z
" id="ArialMT-6c" transform="scale(0.015625)"/>
       </defs>
       <use xlink:href="#ArialMT-41"/>
       <use x="66.699219" xlink:href="#ArialMT-52"/>
       <use x="138.916016" xlink:href="#ArialMT-4e"/>
       <use x="211.132812" xlink:href="#ArialMT-6f"/>
       <use x="266.748047" xlink:href="#ArialMT-6c"/>
       <use x="288.964844" xlink:href="#ArialMT-64"/>
      </g>
     </g>
    </g>
    <g id="text_8">
     <!-- model -->
     <g style="fill:#262626;" transform="translate(170.27 388.778344)scale(0.12 -0.12)">
      <use xlink:href="#ArialMT-6d"/>
      <use x="83.300781" xlink:href="#ArialMT-6f"/>
      <use x="138.916016" xlink:href="#ArialMT-64"/>
      <use x="194.53125" xlink:href="#ArialMT-65"/>
      <use x="250.146484" xlink:href="#ArialMT-6c"/>
     </g>
    </g>
   </g>
   <g id="matplotlib.axis_2">
    <g id="ytick_1">
     <g id="line2d_8">
      <path clip-path="url(#p506e68be67)" d="M 47.110625 315.702438 
L 326.110625 315.702438 
" style="fill:none;stroke:#cccccc;stroke-linecap:round;"/>
     </g>
     <g id="text_9">
      <!-- 0.0 -->
      <g style="fill:#262626;" transform="translate(22.320625 319.639234)scale(0.11 -0.11)">
       <defs>
        <path d="M 266 2259 
Q 266 3072 433 3567 
Q 600 4063 929 4331 
Q 1259 4600 1759 4600 
Q 2128 4600 2406 4451 
Q 2684 4303 2865 4023 
Q 3047 3744 3150 3342 
Q 3253 2941 3253 2259 
Q 3253 1453 3087 958 
Q 2922 463 2592 192 
Q 2263 -78 1759 -78 
Q 1097 -78 719 397 
Q 266 969 266 2259 
z
M 844 2259 
Q 844 1131 1108 757 
Q 1372 384 1759 384 
Q 2147 384 2411 759 
Q 2675 1134 2675 2259 
Q 2675 3391 2411 3762 
Q 2147 4134 1753 4134 
Q 1366 4134 1134 3806 
Q 844 3388 844 2259 
z
" id="ArialMT-30" transform="scale(0.015625)"/>
        <path d="M 581 0 
L 581 641 
L 1222 641 
L 1222 0 
L 581 0 
z
" id="ArialMT-2e" transform="scale(0.015625)"/>
       </defs>
       <use xlink:href="#ArialMT-30"/>
       <use x="55.615234" xlink:href="#ArialMT-2e"/>
       <use x="83.398438" xlink:href="#ArialMT-30"/>
      </g>
     </g>
    </g>
    <g id="ytick_2">
     <g id="line2d_9">
      <path clip-path="url(#p506e68be67)" d="M 47.110625 249.922584 
L 326.110625 249.922584 
" style="fill:none;stroke:#cccccc;stroke-linecap:round;"/>
     </g>
     <g id="text_10">
      <!-- 0.2 -->
      <g style="fill:#262626;" transform="translate(22.320625 253.859381)scale(0.11 -0.11)">
       <defs>
        <path d="M 3222 541 
L 3222 0 
L 194 0 
Q 188 203 259 391 
Q 375 700 629 1000 
Q 884 1300 1366 1694 
Q 2113 2306 2375 2664 
Q 2638 3022 2638 3341 
Q 2638 3675 2398 3904 
Q 2159 4134 1775 4134 
Q 1369 4134 1125 3890 
Q 881 3647 878 3216 
L 300 3275 
Q 359 3922 746 4261 
Q 1134 4600 1788 4600 
Q 2447 4600 2831 4234 
Q 3216 3869 3216 3328 
Q 3216 3053 3103 2787 
Q 2991 2522 2730 2228 
Q 2469 1934 1863 1422 
Q 1356 997 1212 845 
Q 1069 694 975 541 
L 3222 541 
z
" id="ArialMT-32" transform="scale(0.015625)"/>
       </defs>
       <use xlink:href="#ArialMT-30"/>
       <use x="55.615234" xlink:href="#ArialMT-2e"/>
       <use x="83.398438" xlink:href="#ArialMT-32"/>
      </g>
     </g>
    </g>
    <g id="ytick_3">
     <g id="line2d_10">
      <path clip-path="url(#p506e68be67)" d="M 47.110625 184.142731 
L 326.110625 184.142731 
" style="fill:none;stroke:#cccccc;stroke-linecap:round;"/>
     </g>
     <g id="text_11">
      <!-- 0.4 -->
      <g style="fill:#262626;" transform="translate(22.320625 188.079528)scale(0.11 -0.11)">
       <defs>
        <path d="M 2069 0 
L 2069 1097 
L 81 1097 
L 81 1613 
L 2172 4581 
L 2631 4581 
L 2631 1613 
L 3250 1613 
L 3250 1097 
L 2631 1097 
L 2631 0 
L 2069 0 
z
M 2069 1613 
L 2069 3678 
L 634 1613 
L 2069 1613 
z
" id="ArialMT-34" transform="scale(0.015625)"/>
       </defs>
       <use xlink:href="#ArialMT-30"/>
       <use x="55.615234" xlink:href="#ArialMT-2e"/>
       <use x="83.398438" xlink:href="#ArialMT-34"/>
      </g>
     </g>
    </g>
    <g id="ytick_4">
     <g id="line2d_11">
      <path clip-path="url(#p506e68be67)" d="M 47.110625 118.362877 
L 326.110625 118.362877 
" style="fill:none;stroke:#cccccc;stroke-linecap:round;"/>
     </g>
     <g id="text_12">
      <!-- 0.6 -->
      <g style="fill:#262626;" transform="translate(22.320625 122.299674)scale(0.11 -0.11)">
       <defs>
        <path d="M 3184 3459 
L 2625 3416 
Q 2550 3747 2413 3897 
Q 2184 4138 1850 4138 
Q 1581 4138 1378 3988 
Q 1113 3794 959 3422 
Q 806 3050 800 2363 
Q 1003 2672 1297 2822 
Q 1591 2972 1913 2972 
Q 2475 2972 2870 2558 
Q 3266 2144 3266 1488 
Q 3266 1056 3080 686 
Q 2894 316 2569 119 
Q 2244 -78 1831 -78 
Q 1128 -78 684 439 
Q 241 956 241 2144 
Q 241 3472 731 4075 
Q 1159 4600 1884 4600 
Q 2425 4600 2770 4297 
Q 3116 3994 3184 3459 
z
M 888 1484 
Q 888 1194 1011 928 
Q 1134 663 1356 523 
Q 1578 384 1822 384 
Q 2178 384 2434 671 
Q 2691 959 2691 1453 
Q 2691 1928 2437 2201 
Q 2184 2475 1800 2475 
Q 1419 2475 1153 2201 
Q 888 1928 888 1484 
z
" id="ArialMT-36" transform="scale(0.015625)"/>
       </defs>
       <use xlink:href="#ArialMT-30"/>
       <use x="55.615234" xlink:href="#ArialMT-2e"/>
       <use x="83.398438" xlink:href="#ArialMT-36"/>
      </g>
     </g>
    </g>
    <g id="ytick_5">
     <g id="line2d_12">
      <path clip-path="url(#p506e68be67)" d="M 47.110625 52.583024 
L 326.110625 52.583024 
" style="fill:none;stroke:#cccccc;stroke-linecap:round;"/>
     </g>
     <g id="text_13">
      <!-- 0.8 -->
      <g style="fill:#262626;" transform="translate(22.320625 56.519821)scale(0.11 -0.11)">
       <defs>
        <path d="M 1131 2484 
Q 781 2613 612 2850 
Q 444 3088 444 3419 
Q 444 3919 803 4259 
Q 1163 4600 1759 4600 
Q 2359 4600 2725 4251 
Q 3091 3903 3091 3403 
Q 3091 3084 2923 2848 
Q 2756 2613 2416 2484 
Q 2838 2347 3058 2040 
Q 3278 1734 3278 1309 
Q 3278 722 2862 322 
Q 2447 -78 1769 -78 
Q 1091 -78 675 323 
Q 259 725 259 1325 
Q 259 1772 486 2073 
Q 713 2375 1131 2484 
z
M 1019 3438 
Q 1019 3113 1228 2906 
Q 1438 2700 1772 2700 
Q 2097 2700 2305 2904 
Q 2513 3109 2513 3406 
Q 2513 3716 2298 3927 
Q 2084 4138 1766 4138 
Q 1444 4138 1231 3931 
Q 1019 3725 1019 3438 
z
M 838 1322 
Q 838 1081 952 856 
Q 1066 631 1291 507 
Q 1516 384 1775 384 
Q 2178 384 2440 643 
Q 2703 903 2703 1303 
Q 2703 1709 2433 1975 
Q 2163 2241 1756 2241 
Q 1359 2241 1098 1978 
Q 838 1716 838 1322 
z
" id="ArialMT-38" transform="scale(0.015625)"/>
       </defs>
       <use xlink:href="#ArialMT-30"/>
       <use x="55.615234" xlink:href="#ArialMT-2e"/>
       <use x="83.398438" xlink:href="#ArialMT-38"/>
      </g>
     </g>
    </g>
    <g id="text_14">
     <!-- diff_rel -->
     <g style="fill:#262626;" transform="translate(15.935625 188.1825)rotate(-90)scale(0.12 -0.12)">
      <defs>
       <path d="M 556 0 
L 556 2881 
L 59 2881 
L 59 3319 
L 556 3319 
L 556 3672 
Q 556 4006 616 4169 
Q 697 4388 901 4523 
Q 1106 4659 1475 4659 
Q 1713 4659 2000 4603 
L 1916 4113 
Q 1741 4144 1584 4144 
Q 1328 4144 1222 4034 
Q 1116 3925 1116 3625 
L 1116 3319 
L 1763 3319 
L 1763 2881 
L 1116 2881 
L 1116 0 
L 556 0 
z
" id="ArialMT-66" transform="scale(0.015625)"/>
       <path d="M -97 -1272 
L -97 -866 
L 3631 -866 
L 3631 -1272 
L -97 -1272 
z
" id="ArialMT-5f" transform="scale(0.015625)"/>
      </defs>
      <use xlink:href="#ArialMT-64"/>
      <use x="55.615234" xlink:href="#ArialMT-69"/>
      <use x="77.832031" xlink:href="#ArialMT-66"/>
      <use x="103.865234" xlink:href="#ArialMT-66"/>
      <use x="131.648438" xlink:href="#ArialMT-5f"/>
      <use x="187.263672" xlink:href="#ArialMT-72"/>
      <use x="220.564453" xlink:href="#ArialMT-65"/>
      <use x="276.179688" xlink:href="#ArialMT-6c"/>
     </g>
    </g>
   </g>
   <g id="PathCollection_1">
    <path clip-path="url(#p506e68be67)" d="M 59.792443 311.6381 
C 61.416474 311.6381 62.974207 310.992865 64.12257 309.844502 
C 65.270933 308.696139 65.916168 307.138406 65.916168 305.514375 
C 65.916168 303.890345 65.270933 302.332611 64.12257 301.184248 
C 62.974207 300.035885 61.416474 299.390651 59.792443 299.390651 
C 58.168412 299.390651 56.610679 300.035885 55.462316 301.184248 
C 54.313953 302.332611 53.668719 303.890345 53.668719 305.514375 
C 53.668719 307.138406 54.313953 308.696139 55.462316 309.844502 
C 56.610679 310.992865 58.168412 311.6381 59.792443 311.6381 
z
" style="fill:#e2c987;fill-opacity:0.85;stroke:#000000;stroke-opacity:0.85;stroke-width:0.6;"/>
    <path clip-path="url(#p506e68be67)" d="M 59.792443 307.821813 
L 68.452697 299.161559 
L 59.792443 290.501305 
L 51.132189 299.161559 
z
" style="fill:#315361;fill-opacity:0.85;stroke:#000000;stroke-opacity:0.85;stroke-width:0.6;"/>
    <path clip-path="url(#p506e68be67)" d="M 59.792443 303.814687 
L 53.668719 316.062136 
L 65.916168 316.062136 
z
" style="fill:#e76a3c;fill-opacity:0.85;stroke:#000000;stroke-opacity:0.85;stroke-width:0.6;"/>
    <path clip-path="url(#p506e68be67)" d="M 56.730581 324.127653 
L 59.792443 321.065791 
L 62.854305 324.127653 
L 65.916168 321.065791 
L 62.854305 318.003929 
L 65.916168 314.942067 
L 62.854305 311.880205 
L 59.792443 314.942067 
L 56.730581 311.880205 
L 53.668719 314.942067 
L 56.730581 318.003929 
L 53.668719 321.065791 
z
" style="fill:#9c3c19;fill-opacity:0.85;stroke:#000000;stroke-opacity:0.85;stroke-width:0.6;"/>
    <path clip-path="url(#p506e68be67)" d="M 59.792443 308.668552 
L 65.916168 296.421104 
L 53.668719 296.421104 
z
" style="fill:#e76a3c;fill-opacity:0.85;stroke:#000000;stroke-opacity:0.85;stroke-width:0.6;"/>
    <path clip-path="url(#p506e68be67)" d="M 53.668719 140.185236 
L 65.916168 140.185236 
L 65.916168 127.937787 
L 53.668719 127.937787 
z
" style="fill:#315361;fill-opacity:0.85;stroke:#000000;stroke-opacity:0.85;stroke-width:0.6;"/>
    <path clip-path="url(#p506e68be67)" d="M 56.730581 306.518744 
L 53.668719 311.822045 
L 56.730581 317.125345 
L 62.854305 317.125345 
L 65.916168 311.822045 
L 62.854305 306.518744 
z
" style="fill:#e2c987;fill-opacity:0.85;stroke:#000000;stroke-opacity:0.85;stroke-width:0.6;"/>
    <path clip-path="url(#p506e68be67)" d="M 102.06517 311.347064 
C 103.689201 311.347064 105.246934 310.701829 106.395297 309.553466 
C 107.543661 308.405103 108.188895 306.84737 108.188895 305.223339 
C 108.188895 303.599308 107.543661 302.041575 106.395297 300.893212 
C 105.246934 299.744849 103.689201 299.099615 102.06517 299.099615 
C 100.44114 299.099615 98.883407 299.744849 97.735043 300.893212 
C 96.58668 302.041575 95.941446 303.599308 95.941446 305.223339 
C 95.941446 306.84737 96.58668 308.405103 97.735043 309.553466 
C 98.883407 310.701829 100.44114 311.347064 102.06517 311.347064 
z
" style="fill:#e2c987;fill-opacity:0.85;stroke:#000000;stroke-opacity:0.85;stroke-width:0.6;"/>
    <path clip-path="url(#p506e68be67)" d="M 102.06517 312.7296 
L 110.725424 304.069346 
L 102.06517 295.409092 
L 93.404916 304.069346 
z
" style="fill:#315361;fill-opacity:0.85;stroke:#000000;stroke-opacity:0.85;stroke-width:0.6;"/>
    <path clip-path="url(#p506e68be67)" d="M 102.06517 286.493484 
L 95.941446 298.740932 
L 108.188895 298.740932 
z
" style="fill:#e76a3c;fill-opacity:0.85;stroke:#000000;stroke-opacity:0.85;stroke-width:0.6;"/>
    <path clip-path="url(#p506e68be67)" d="M 99.003308 324.65827 
L 102.06517 321.596408 
L 105.127033 324.65827 
L 108.188895 321.596408 
L 105.127033 318.534545 
L 108.188895 315.472683 
L 105.127033 312.410821 
L 102.06517 315.472683 
L 99.003308 312.410821 
L 95.941446 315.472683 
L 99.003308 318.534545 
L 95.941446 321.596408 
z
" style="fill:#9c3c19;fill-opacity:0.85;stroke:#000000;stroke-opacity:0.85;stroke-width:0.6;"/>
    <path clip-path="url(#p506e68be67)" d="M 102.06517 285.576405 
L 108.188895 273.328956 
L 95.941446 273.328956 
z
" style="fill:#e76a3c;fill-opacity:0.85;stroke:#000000;stroke-opacity:0.85;stroke-width:0.6;"/>
    <path clip-path="url(#p506e68be67)" d="M 95.941446 167.406363 
L 108.188895 167.406363 
L 108.188895 155.158914 
L 95.941446 155.158914 
z
" style="fill:#315361;fill-opacity:0.85;stroke:#000000;stroke-opacity:0.85;stroke-width:0.6;"/>
    <path clip-path="url(#p506e68be67)" d="M 99.003308 307.672041 
L 95.941446 312.975342 
L 99.003308 318.278643 
L 105.127033 318.278643 
L 108.188895 312.975342 
L 105.127033 307.672041 
z
" style="fill:#e2c987;fill-opacity:0.85;stroke:#000000;stroke-opacity:0.85;stroke-width:0.6;"/>
    <path clip-path="url(#p506e68be67)" d="M 144.337898 319.922085 
C 145.961928 319.922085 147.519662 319.276851 148.668025 318.128488 
C 149.816388 316.980124 150.461622 315.422391 150.461622 313.798361 
C 150.461622 312.17433 149.816388 310.616597 148.668025 309.468234 
C 147.519662 308.31987 145.961928 307.674636 144.337898 307.674636 
C 142.713867 307.674636 141.156134 308.31987 140.007771 309.468234 
C 138.859408 310.616597 138.214173 312.17433 138.214173 313.798361 
C 138.214173 315.422391 138.859408 316.980124 140.007771 318.128488 
C 141.156134 319.276851 142.713867 319.922085 144.337898 319.922085 
z
" style="fill:#e2c987;fill-opacity:0.85;stroke:#000000;stroke-opacity:0.85;stroke-width:0.6;"/>
    <path clip-path="url(#p506e68be67)" d="M 144.337898 306.147836 
L 152.998152 297.487582 
L 144.337898 288.827328 
L 135.677644 297.487582 
z
" style="fill:#315361;fill-opacity:0.85;stroke:#000000;stroke-opacity:0.85;stroke-width:0.6;"/>
    <path clip-path="url(#p506e68be67)" d="M 144.337898 246.383052 
L 138.214173 258.6305 
L 150.461622 258.6305 
z
" style="fill:#e76a3c;fill-opacity:0.85;stroke:#000000;stroke-opacity:0.85;stroke-width:0.6;"/>
    <path clip-path="url(#p506e68be67)" d="M 141.276036 322.945912 
L 144.337898 319.88405 
L 147.39976 322.945912 
L 150.461622 319.88405 
L 147.39976 316.822188 
L 150.461622 313.760326 
L 147.39976 310.698463 
L 144.337898 313.760326 
L 141.276036 310.698463 
L 138.214173 313.760326 
L 141.276036 316.822188 
L 138.214173 319.88405 
z
" style="fill:#9c3c19;fill-opacity:0.85;stroke:#000000;stroke-opacity:0.85;stroke-width:0.6;"/>
    <path clip-path="url(#p506e68be67)" d="M 144.337898 252.763612 
L 150.461622 240.516163 
L 138.214173 240.516163 
z
" style="fill:#e76a3c;fill-opacity:0.85;stroke:#000000;stroke-opacity:0.85;stroke-width:0.6;"/>
    <path clip-path="url(#p506e68be67)" d="M 138.214173 193.149476 
L 150.461622 193.149476 
L 150.461622 180.902028 
L 138.214173 180.902028 
z
" style="fill:#315361;fill-opacity:0.85;stroke:#000000;stroke-opacity:0.85;stroke-width:0.6;"/>
    <path clip-path="url(#p506e68be67)" d="M 141.276036 306.697243 
L 138.214173 312.000544 
L 141.276036 317.303845 
L 147.39976 317.303845 
L 150.461622 312.000544 
L 147.39976 306.697243 
z
" style="fill:#e2c987;fill-opacity:0.85;stroke:#000000;stroke-opacity:0.85;stroke-width:0.6;"/>
    <path clip-path="url(#p506e68be67)" d="M 186.610625 320.676299 
C 188.234656 320.676299 189.792389 320.031065 190.940752 318.882702 
C 192.089115 317.734338 192.734349 316.176605 192.734349 314.552574 
C 192.734349 312.928544 192.089115 311.370811 190.940752 310.222447 
C 189.792389 309.074084 188.234656 308.42885 186.610625 308.42885 
C 184.986594 308.42885 183.428861 309.074084 182.280498 310.222447 
C 181.132135 311.370811 180.486901 312.928544 180.486901 314.552574 
C 180.486901 316.176605 181.132135 317.734338 182.280498 318.882702 
C 183.428861 320.031065 184.986594 320.676299 186.610625 320.676299 
z
" style="fill:#e2c987;fill-opacity:0.85;stroke:#000000;stroke-opacity:0.85;stroke-width:0.6;"/>
    <path clip-path="url(#p506e68be67)" d="M 186.610625 316.487523 
L 195.270879 307.827269 
L 186.610625 299.167015 
L 177.950371 307.827269 
z
" style="fill:#315361;fill-opacity:0.85;stroke:#000000;stroke-opacity:0.85;stroke-width:0.6;"/>
    <path clip-path="url(#p506e68be67)" d="M 186.610625 106.163504 
L 180.486901 118.410953 
L 192.734349 118.410953 
z
" style="fill:#e76a3c;fill-opacity:0.85;stroke:#000000;stroke-opacity:0.85;stroke-width:0.6;"/>
    <path clip-path="url(#p506e68be67)" d="M 183.548763 322.342509 
L 186.610625 319.280647 
L 189.672487 322.342509 
L 192.734349 319.280647 
L 189.672487 316.218785 
L 192.734349 313.156922 
L 189.672487 310.09506 
L 186.610625 313.156922 
L 183.548763 310.09506 
L 180.486901 313.156922 
L 183.548763 316.218785 
L 180.486901 319.280647 
z
" style="fill:#9c3c19;fill-opacity:0.85;stroke:#000000;stroke-opacity:0.85;stroke-width:0.6;"/>
    <path clip-path="url(#p506e68be67)" d="M 186.610625 108.581275 
L 192.734349 96.333826 
L 180.486901 96.333826 
z
" style="fill:#e76a3c;fill-opacity:0.85;stroke:#000000;stroke-opacity:0.85;stroke-width:0.6;"/>
    <path clip-path="url(#p506e68be67)" d="M 180.486901 293.438063 
L 192.734349 293.438063 
L 192.734349 281.190614 
L 180.486901 281.190614 
z
" style="fill:#315361;fill-opacity:0.85;stroke:#000000;stroke-opacity:0.85;stroke-width:0.6;"/>
    <path clip-path="url(#p506e68be67)" d="M 183.548763 309.643112 
L 180.486901 314.946413 
L 183.548763 320.249714 
L 189.672487 320.249714 
L 192.734349 314.946413 
L 189.672487 309.643112 
z
" style="fill:#e2c987;fill-opacity:0.85;stroke:#000000;stroke-opacity:0.85;stroke-width:0.6;"/>
    <path clip-path="url(#p506e68be67)" d="M 228.883352 311.449295 
C 230.507383 311.449295 232.065116 310.804061 233.213479 309.655698 
C 234.361842 308.507335 235.007077 306.949602 235.007077 305.325571 
C 235.007077 303.70154 234.361842 302.143807 233.213479 300.995444 
C 232.065116 299.847081 230.507383 299.201847 228.883352 299.201847 
C 227.259322 299.201847 225.701588 299.847081 224.553225 300.995444 
C 223.404862 302.143807 222.759628 303.70154 222.759628 305.325571 
C 222.759628 306.949602 223.404862 308.507335 224.553225 309.655698 
C 225.701588 310.804061 227.259322 311.449295 228.883352 311.449295 
z
" style="fill:#e2c987;fill-opacity:0.85;stroke:#000000;stroke-opacity:0.85;stroke-width:0.6;"/>
    <path clip-path="url(#p506e68be67)" d="M 228.883352 306.529548 
L 237.543606 297.869294 
L 228.883352 289.20904 
L 220.223098 297.869294 
z
" style="fill:#315361;fill-opacity:0.85;stroke:#000000;stroke-opacity:0.85;stroke-width:0.6;"/>
    <path clip-path="url(#p506e68be67)" d="M 228.883352 299.393735 
L 222.759628 311.641184 
L 235.007077 311.641184 
z
" style="fill:#e76a3c;fill-opacity:0.85;stroke:#000000;stroke-opacity:0.85;stroke-width:0.6;"/>
    <path clip-path="url(#p506e68be67)" d="M 225.82149 324.380527 
L 228.883352 321.318665 
L 231.945214 324.380527 
L 235.007077 321.318665 
L 231.945214 318.256803 
L 235.007077 315.194941 
L 231.945214 312.133078 
L 228.883352 315.194941 
L 225.82149 312.133078 
L 222.759628 315.194941 
L 225.82149 318.256803 
L 222.759628 321.318665 
z
" style="fill:#9c3c19;fill-opacity:0.85;stroke:#000000;stroke-opacity:0.85;stroke-width:0.6;"/>
    <path clip-path="url(#p506e68be67)" d="M 228.883352 304.484207 
L 235.007077 292.236759 
L 222.759628 292.236759 
z
" style="fill:#e76a3c;fill-opacity:0.85;stroke:#000000;stroke-opacity:0.85;stroke-width:0.6;"/>
    <path clip-path="url(#p506e68be67)" d="M 222.759628 156.239067 
L 235.007077 156.239067 
L 235.007077 143.991618 
L 222.759628 143.991618 
z
" style="fill:#315361;fill-opacity:0.85;stroke:#000000;stroke-opacity:0.85;stroke-width:0.6;"/>
    <path clip-path="url(#p506e68be67)" d="M 225.82149 306.511648 
L 222.759628 311.814948 
L 225.82149 317.118249 
L 231.945214 317.118249 
L 235.007077 311.814948 
L 231.945214 306.511648 
z
" style="fill:#e2c987;fill-opacity:0.85;stroke:#000000;stroke-opacity:0.85;stroke-width:0.6;"/>
    <path clip-path="url(#p506e68be67)" d="M 271.15608 316.463318 
C 272.78011 316.463318 274.337843 315.818084 275.486207 314.669721 
C 276.63457 313.521358 277.279804 311.963625 277.279804 310.339594 
C 277.279804 308.715563 276.63457 307.15783 275.486207 306.009467 
C 274.337843 304.861104 272.78011 304.21587 271.15608 304.21587 
C 269.532049 304.21587 267.974316 304.861104 266.825953 306.009467 
C 265.677589 307.15783 265.032355 308.715563 265.032355 310.339594 
C 265.032355 311.963625 265.677589 313.521358 266.825953 314.669721 
C 267.974316 315.818084 269.532049 316.463318 271.15608 316.463318 
z
" style="fill:#e2c987;fill-opacity:0.85;stroke:#000000;stroke-opacity:0.85;stroke-width:0.6;"/>
    <path clip-path="url(#p506e68be67)" d="M 271.15608 311.772144 
L 279.816334 303.11189 
L 271.15608 294.451636 
L 262.495826 303.11189 
z
" style="fill:#315361;fill-opacity:0.85;stroke:#000000;stroke-opacity:0.85;stroke-width:0.6;"/>
    <path clip-path="url(#p506e68be67)" d="M 271.15608 275.297931 
L 265.032355 287.54538 
L 277.279804 287.54538 
z
" style="fill:#e76a3c;fill-opacity:0.85;stroke:#000000;stroke-opacity:0.85;stroke-width:0.6;"/>
    <path clip-path="url(#p506e68be67)" d="M 268.094217 323.422463 
L 271.15608 320.360601 
L 274.217942 323.422463 
L 277.279804 320.360601 
L 274.217942 317.298739 
L 277.279804 314.236877 
L 274.217942 311.175015 
L 271.15608 314.236877 
L 268.094217 311.175015 
L 265.032355 314.236877 
L 268.094217 317.298739 
L 265.032355 320.360601 
z
" style="fill:#9c3c19;fill-opacity:0.85;stroke:#000000;stroke-opacity:0.85;stroke-width:0.6;"/>
    <path clip-path="url(#p506e68be67)" d="M 271.15608 276.664274 
L 277.279804 264.416825 
L 265.032355 264.416825 
z
" style="fill:#e76a3c;fill-opacity:0.85;stroke:#000000;stroke-opacity:0.85;stroke-width:0.6;"/>
    <path clip-path="url(#p506e68be67)" d="M 265.032355 201.480737 
L 277.279804 201.480737 
L 277.279804 189.233288 
L 265.032355 189.233288 
z
" style="fill:#315361;fill-opacity:0.85;stroke:#000000;stroke-opacity:0.85;stroke-width:0.6;"/>
    <path clip-path="url(#p506e68be67)" d="M 268.094217 306.810471 
L 265.032355 312.113772 
L 268.094217 317.417073 
L 274.217942 317.417073 
L 277.279804 312.113772 
L 274.217942 306.810471 
z
" style="fill:#e2c987;fill-opacity:0.85;stroke:#000000;stroke-opacity:0.85;stroke-width:0.6;"/>
    <path clip-path="url(#p506e68be67)" d="M 313.428807 316.626004 
C 315.052838 316.626004 316.610571 315.98077 317.758934 314.832407 
C 318.907297 313.684044 319.552531 312.126311 319.552531 310.50228 
C 319.552531 308.878249 318.907297 307.320516 317.758934 306.172153 
C 316.610571 305.02379 315.052838 304.378556 313.428807 304.378556 
C 311.804776 304.378556 310.247043 305.02379 309.09868 306.172153 
C 307.950317 307.320516 307.305082 308.878249 307.305082 310.50228 
C 307.305082 312.126311 307.950317 313.684044 309.09868 314.832407 
C 310.247043 315.98077 311.804776 316.626004 313.428807 316.626004 
z
" style="fill:#e2c987;fill-opacity:0.85;stroke:#000000;stroke-opacity:0.85;stroke-width:0.6;"/>
    <path clip-path="url(#p506e68be67)" d="M 313.428807 300.917386 
L 322.089061 292.257132 
L 313.428807 283.596878 
L 304.768553 292.257132 
z
" style="fill:#315361;fill-opacity:0.85;stroke:#000000;stroke-opacity:0.85;stroke-width:0.6;"/>
    <path clip-path="url(#p506e68be67)" d="M 313.428807 18.536065 
L 307.305082 30.783514 
L 319.552531 30.783514 
z
" style="fill:#e76a3c;fill-opacity:0.85;stroke:#000000;stroke-opacity:0.85;stroke-width:0.6;"/>
    <path clip-path="url(#p506e68be67)" d="M 310.366945 321.484807 
L 313.428807 318.422945 
L 316.490669 321.484807 
L 319.552531 318.422945 
L 316.490669 315.361082 
L 319.552531 312.29922 
L 316.490669 309.237358 
L 313.428807 312.29922 
L 310.366945 309.237358 
L 307.305082 312.29922 
L 310.366945 315.361082 
L 307.305082 318.422945 
z
" style="fill:#9c3c19;fill-opacity:0.85;stroke:#000000;stroke-opacity:0.85;stroke-width:0.6;"/>
    <path clip-path="url(#p506e68be67)" d="M 313.428807 28.149179 
L 319.552531 15.90173 
L 307.305082 15.90173 
z
" style="fill:#e76a3c;fill-opacity:0.85;stroke:#000000;stroke-opacity:0.85;stroke-width:0.6;"/>
    <path clip-path="url(#p506e68be67)" d="M 307.305082 208.02644 
L 319.552531 208.02644 
L 319.552531 195.778991 
L 307.305082 195.778991 
z
" style="fill:#315361;fill-opacity:0.85;stroke:#000000;stroke-opacity:0.85;stroke-width:0.6;"/>
    <path clip-path="url(#p506e68be67)" d="M 310.366945 310.00759 
L 307.305082 315.310891 
L 310.366945 320.614192 
L 316.490669 320.614192 
L 319.552531 315.310891 
L 316.490669 310.00759 
z
" style="fill:#e2c987;fill-opacity:0.85;stroke:#000000;stroke-opacity:0.85;stroke-width:0.6;"/>
   </g>
   <g id="PathCollection_2"/>
   <g id="PathCollection_3"/>
   <g id="PathCollection_4"/>
   <g id="PathCollection_5"/>
   <g id="PathCollection_6"/>
   <g id="PathCollection_7"/>
   <g id="PathCollection_8"/>
   <g id="patch_3">
    <path d="M 47.110625 333.36 
L 47.110625 7.2 
" style="fill:none;stroke:#cccccc;stroke-linecap:square;stroke-linejoin:miter;stroke-width:1.25;"/>
   </g>
   <g id="patch_4">
    <path d="M 326.110625 333.36 
L 326.110625 7.2 
" style="fill:none;stroke:#cccccc;stroke-linecap:square;stroke-linejoin:miter;stroke-width:1.25;"/>
   </g>
   <g id="patch_5">
    <path d="M 47.110625 333.36 
L 326.110625 333.36 
" style="fill:none;stroke:#cccccc;stroke-linecap:square;stroke-linejoin:miter;stroke-width:1.25;"/>
   </g>
   <g id="patch_6">
    <path d="M 47.110625 7.2 
L 326.110625 7.2 
" style="fill:none;stroke:#cccccc;stroke-linecap:square;stroke-linejoin:miter;stroke-width:1.25;"/>
   </g>
   <g id="legend_1">
    <g id="patch_7">
     <path d="M 342.260625 119.944844 
L 428.81 119.944844 
Q 431.01 119.944844 431.01 117.744844 
L 431.01 9.4 
Q 431.01 7.2 428.81 7.2 
L 342.260625 7.2 
Q 340.060625 7.2 340.060625 9.4 
L 340.060625 117.744844 
Q 340.060625 119.944844 342.260625 119.944844 
z
" style="fill:#ffffff;opacity:0.8;stroke:#cccccc;stroke-linejoin:miter;"/>
    </g>
    <g id="PathCollection_9">
     <defs>
      <path d="M 0 3 
C 0.795609 3 1.55874 2.683901 2.12132 2.12132 
C 2.683901 1.55874 3 0.795609 3 0 
C 3 -0.795609 2.683901 -1.55874 2.12132 -2.12132 
C 1.55874 -2.683901 0.795609 -3 0 -3 
C -0.795609 -3 -1.55874 -2.683901 -2.12132 -2.12132 
C -2.683901 -1.55874 -3 -0.795609 -3 0 
C -3 0.795609 -2.683901 1.55874 -2.12132 2.12132 
C -1.55874 2.683901 -0.795609 3 0 3 
z
" id="m44fff3dbf1" style="stroke:#e2c987;"/>
     </defs>
     <g>
      <use style="fill:#e2c987;stroke:#e2c987;" x="355.460625" xlink:href="#m44fff3dbf1" y="16.720156"/>
     </g>
    </g>
    <g id="text_15">
     <!-- pad_left -->
     <g style="fill:#262626;" transform="translate(375.260625 19.607656)scale(0.11 -0.11)">
      <use xlink:href="#ArialMT-70"/>
      <use x="55.615234" xlink:href="#ArialMT-61"/>
      <use x="111.230469" xlink:href="#ArialMT-64"/>
      <use x="166.845703" xlink:href="#ArialMT-5f"/>
      <use x="222.460938" xlink:href="#ArialMT-6c"/>
      <use x="244.677734" xlink:href="#ArialMT-65"/>
      <use x="300.292969" xlink:href="#ArialMT-66"/>
      <use x="328.076172" xlink:href="#ArialMT-74"/>
     </g>
    </g>
    <g id="PathCollection_10">
     <defs>
      <path d="M 0 4.242641 
L 4.242641 0 
L 0 -4.242641 
L -4.242641 0 
z
" id="m57b97f86f7" style="stroke:#315361;"/>
     </defs>
     <g>
      <use style="fill:#315361;stroke:#315361;" x="355.460625" xlink:href="#m57b97f86f7" y="32.28"/>
     </g>
    </g>
    <g id="text_16">
     <!-- A_tail -->
     <g style="fill:#262626;" transform="translate(375.260625 35.1675)scale(0.11 -0.11)">
      <use xlink:href="#ArialMT-41"/>
      <use x="66.699219" xlink:href="#ArialMT-5f"/>
      <use x="122.314453" xlink:href="#ArialMT-74"/>
      <use x="150.097656" xlink:href="#ArialMT-61"/>
      <use x="205.712891" xlink:href="#ArialMT-69"/>
      <use x="227.929688" xlink:href="#ArialMT-6c"/>
     </g>
    </g>
    <g id="PathCollection_11">
     <defs>
      <path d="M 0 -3 
L -3 3 
L 3 3 
z
" id="mc38fc42189" style="stroke:#e76a3c;"/>
     </defs>
     <g>
      <use style="fill:#e76a3c;stroke:#e76a3c;" x="355.460625" xlink:href="#mc38fc42189" y="47.973906"/>
     </g>
    </g>
    <g id="text_17">
     <!-- stem_left -->
     <g style="fill:#262626;" transform="translate(375.260625 50.861406)scale(0.11 -0.11)">
      <defs>
       <path d="M 197 991 
L 753 1078 
Q 800 744 1014 566 
Q 1228 388 1613 388 
Q 2000 388 2187 545 
Q 2375 703 2375 916 
Q 2375 1106 2209 1216 
Q 2094 1291 1634 1406 
Q 1016 1563 777 1677 
Q 538 1791 414 1992 
Q 291 2194 291 2438 
Q 291 2659 392 2848 
Q 494 3038 669 3163 
Q 800 3259 1026 3326 
Q 1253 3394 1513 3394 
Q 1903 3394 2198 3281 
Q 2494 3169 2634 2976 
Q 2775 2784 2828 2463 
L 2278 2388 
Q 2241 2644 2061 2787 
Q 1881 2931 1553 2931 
Q 1166 2931 1000 2803 
Q 834 2675 834 2503 
Q 834 2394 903 2306 
Q 972 2216 1119 2156 
Q 1203 2125 1616 2013 
Q 2213 1853 2448 1751 
Q 2684 1650 2818 1456 
Q 2953 1263 2953 975 
Q 2953 694 2789 445 
Q 2625 197 2315 61 
Q 2006 -75 1616 -75 
Q 969 -75 630 194 
Q 291 463 197 991 
z
" id="ArialMT-73" transform="scale(0.015625)"/>
      </defs>
      <use xlink:href="#ArialMT-73"/>
      <use x="50" xlink:href="#ArialMT-74"/>
      <use x="77.783203" xlink:href="#ArialMT-65"/>
      <use x="133.398438" xlink:href="#ArialMT-6d"/>
      <use x="216.699219" xlink:href="#ArialMT-5f"/>
      <use x="272.314453" xlink:href="#ArialMT-6c"/>
      <use x="294.53125" xlink:href="#ArialMT-65"/>
      <use x="350.146484" xlink:href="#ArialMT-66"/>
      <use x="377.929688" xlink:href="#ArialMT-74"/>
     </g>
    </g>
    <g id="PathCollection_12">
     <defs>
      <path d="M -1.5 3 
L 0 1.5 
L 1.5 3 
L 3 1.5 
L 1.5 0 
L 3 -1.5 
L 1.5 -3 
L 0 -1.5 
L -1.5 -3 
L -3 -1.5 
L -1.5 0 
L -3 1.5 
z
" id="mfe761c6140" style="stroke:#9c3c19;"/>
     </defs>
     <g>
      <use style="fill:#9c3c19;stroke:#9c3c19;" x="355.460625" xlink:href="#mfe761c6140" y="63.53375"/>
     </g>
    </g>
    <g id="text_18">
     <!-- loop -->
     <g style="fill:#262626;" transform="translate(375.260625 66.42125)scale(0.11 -0.11)">
      <use xlink:href="#ArialMT-6c"/>
      <use x="22.216797" xlink:href="#ArialMT-6f"/>
      <use x="77.832031" xlink:href="#ArialMT-6f"/>
      <use x="133.447266" xlink:href="#ArialMT-70"/>
     </g>
    </g>
    <g id="PathCollection_13">
     <defs>
      <path d="M -0 3 
L 3 -3 
L -3 -3 
z
" id="m09498a073a" style="stroke:#e76a3c;"/>
     </defs>
     <g>
      <use style="fill:#e76a3c;stroke:#e76a3c;" x="355.460625" xlink:href="#m09498a073a" y="79.093594"/>
     </g>
    </g>
    <g id="text_19">
     <!-- stem_right -->
     <g style="fill:#262626;" transform="translate(375.260625 81.981094)scale(0.11 -0.11)">
      <defs>
       <path d="M 319 -275 
L 866 -356 
Q 900 -609 1056 -725 
Q 1266 -881 1628 -881 
Q 2019 -881 2231 -725 
Q 2444 -569 2519 -288 
Q 2563 -116 2559 434 
Q 2191 0 1641 0 
Q 956 0 581 494 
Q 206 988 206 1678 
Q 206 2153 378 2554 
Q 550 2956 876 3175 
Q 1203 3394 1644 3394 
Q 2231 3394 2613 2919 
L 2613 3319 
L 3131 3319 
L 3131 450 
Q 3131 -325 2973 -648 
Q 2816 -972 2473 -1159 
Q 2131 -1347 1631 -1347 
Q 1038 -1347 672 -1080 
Q 306 -813 319 -275 
z
M 784 1719 
Q 784 1066 1043 766 
Q 1303 466 1694 466 
Q 2081 466 2343 764 
Q 2606 1063 2606 1700 
Q 2606 2309 2336 2618 
Q 2066 2928 1684 2928 
Q 1309 2928 1046 2623 
Q 784 2319 784 1719 
z
" id="ArialMT-67" transform="scale(0.015625)"/>
      </defs>
      <use xlink:href="#ArialMT-73"/>
      <use x="50" xlink:href="#ArialMT-74"/>
      <use x="77.783203" xlink:href="#ArialMT-65"/>
      <use x="133.398438" xlink:href="#ArialMT-6d"/>
      <use x="216.699219" xlink:href="#ArialMT-5f"/>
      <use x="272.314453" xlink:href="#ArialMT-72"/>
      <use x="305.615234" xlink:href="#ArialMT-69"/>
      <use x="327.832031" xlink:href="#ArialMT-67"/>
      <use x="383.447266" xlink:href="#ArialMT-68"/>
      <use x="439.0625" xlink:href="#ArialMT-74"/>
     </g>
    </g>
    <g id="PathCollection_14">
     <defs>
      <path d="M -3 3 
L 3 3 
L 3 -3 
L -3 -3 
z
" id="m8897287461" style="stroke:#315361;"/>
     </defs>
     <g>
      <use style="fill:#315361;stroke:#315361;" x="355.460625" xlink:href="#m8897287461" y="94.782344"/>
     </g>
    </g>
    <g id="text_20">
     <!-- U_tail -->
     <g style="fill:#262626;" transform="translate(375.260625 97.669844)scale(0.11 -0.11)">
      <defs>
       <path d="M 3500 4581 
L 4106 4581 
L 4106 1934 
Q 4106 1244 3950 837 
Q 3794 431 3386 176 
Q 2978 -78 2316 -78 
Q 1672 -78 1262 144 
Q 853 366 678 786 
Q 503 1206 503 1934 
L 503 4581 
L 1109 4581 
L 1109 1938 
Q 1109 1341 1220 1058 
Q 1331 775 1601 622 
Q 1872 469 2263 469 
Q 2931 469 3215 772 
Q 3500 1075 3500 1938 
L 3500 4581 
z
" id="ArialMT-55" transform="scale(0.015625)"/>
      </defs>
      <use xlink:href="#ArialMT-55"/>
      <use x="72.216797" xlink:href="#ArialMT-5f"/>
      <use x="127.832031" xlink:href="#ArialMT-74"/>
      <use x="155.615234" xlink:href="#ArialMT-61"/>
      <use x="211.230469" xlink:href="#ArialMT-69"/>
      <use x="233.447266" xlink:href="#ArialMT-6c"/>
     </g>
    </g>
    <g id="PathCollection_15">
     <defs>
      <path d="M -1.5 -2.598076 
L -3 -0 
L -1.5 2.598076 
L 1.5 2.598076 
L 3 0 
L 1.5 -2.598076 
z
" id="mc2b813f0d8" style="stroke:#e2c987;"/>
     </defs>
     <g>
      <use style="fill:#e2c987;stroke:#e2c987;" x="355.460625" xlink:href="#mc2b813f0d8" y="110.342188"/>
     </g>
    </g>
    <g id="text_21">
     <!-- pad_right -->
     <g style="fill:#262626;" transform="translate(375.260625 113.229688)scale(0.11 -0.11)">
      <use xlink:href="#ArialMT-70"/>
      <use x="55.615234" xlink:href="#ArialMT-61"/>
      <use x="111.230469" xlink:href="#ArialMT-64"/>
      <use x="166.845703" xlink:href="#ArialMT-5f"/>
      <use x="222.460938" xlink:href="#ArialMT-72"/>
      <use x="255.761719" xlink:href="#ArialMT-69"/>
      <use x="277.978516" xlink:href="#ArialMT-67"/>
      <use x="333.59375" xlink:href="#ArialMT-68"/>
      <use x="389.208984" xlink:href="#ArialMT-74"/>
     </g>
    </g>
   </g>
  </g>
 </g>
 <defs>
  <clipPath id="p506e68be67">
   <rect height="326.16" width="279" x="47.110625" y="7.2"/>
  </clipPath>
 </defs>
</svg>
