<?xml version="1.0" encoding="utf-8" standalone="no"?>
<!DOCTYPE svg PUBLIC "-//W3C//DTD SVG 1.1//EN"
  "http://www.w3.org/Graphics/SVG/1.1/DTD/svg11.dtd">
<svg xmlns:xlink="http://www.w3.org/1999/xlink" width="600.68375pt" height="260.260625pt" viewBox="0 0 600.68375 260.260625" xmlns="http://www.w3.org/2000/svg" version="1.1">
 <metadata>
  <rdf:RDF xmlns:dc="http://purl.org/dc/elements/1.1/" xmlns:cc="http://creativecommons.org/ns#" xmlns:rdf="http://www.w3.org/1999/02/22-rdf-syntax-ns#">
   <cc:Work>
    <dc:type rdf:resource="http://purl.org/dc/dcmitype/StillImage"/>
    <dc:date>2022-05-04T13:41:22.854077</dc:date>
    <dc:format>image/svg+xml</dc:format>
    <dc:creator>
     <cc:Agent>
      <dc:title>Matplotlib v3.5.1, https://matplotlib.org/</dc:title>
     </cc:Agent>
    </dc:creator>
   </cc:Work>
  </rdf:RDF>
 </metadata>
 <defs>
  <style type="text/css">*{stroke-linejoin: round; stroke-linecap: butt}</style>
 </defs>
 <g id="figure_1">
  <g id="patch_1">
   <path d="M 0 260.260625 
L 600.68375 260.260625 
L 600.68375 0 
L 0 0 
z
" style="fill: #ffffff"/>
  </g>
  <g id="axes_1">
   <g id="patch_2">
    <path d="M 38.058125 224.64 
L 456.558125 224.64 
L 456.558125 7.2 
L 38.058125 7.2 
z
" style="fill: #ffffff"/>
   </g>
   <g id="matplotlib.axis_1">
    <g id="xtick_1">
     <g id="line2d_1">
      <defs>
       <path id="m5dd0e2e7f7" d="M 0 0 
L 0 3.5 
" style="stroke: #696969; stroke-width: 0.5"/>
      </defs>
      <g>
       <use xlink:href="#m5dd0e2e7f7" x="57.080852" y="224.64" style="fill: #696969; stroke: #696969; stroke-width: 0.5"/>
      </g>
     </g>
     <g id="text_1">
      <!-- 0 -->
      <g style="fill: #696969" transform="translate(54.535852 237.71875)scale(0.08 -0.08)">
       <defs>
        <path id="DejaVuSans-30" d="M 2034 4250 
Q 1547 4250 1301 3770 
Q 1056 3291 1056 2328 
Q 1056 1369 1301 889 
Q 1547 409 2034 409 
Q 2525 409 2770 889 
Q 3016 1369 3016 2328 
Q 3016 3291 2770 3770 
Q 2525 4250 2034 4250 
z
M 2034 4750 
Q 2819 4750 3233 4129 
Q 3647 3509 3647 2328 
Q 3647 1150 3233 529 
Q 2819 -91 2034 -91 
Q 1250 -91 836 529 
Q 422 1150 422 2328 
Q 422 3509 836 4129 
Q 1250 4750 2034 4750 
z
" transform="scale(0.015625)"/>
       </defs>
       <use xlink:href="#DejaVuSans-30"/>
      </g>
     </g>
    </g>
    <g id="xtick_2">
     <g id="line2d_2">
      <g>
       <use xlink:href="#m5dd0e2e7f7" x="108.493629" y="224.64" style="fill: #696969; stroke: #696969; stroke-width: 0.5"/>
      </g>
     </g>
     <g id="text_2">
      <!-- 10 -->
      <g style="fill: #696969" transform="translate(103.403629 237.71875)scale(0.08 -0.08)">
       <defs>
        <path id="DejaVuSans-31" d="M 794 531 
L 1825 531 
L 1825 4091 
L 703 3866 
L 703 4441 
L 1819 4666 
L 2450 4666 
L 2450 531 
L 3481 531 
L 3481 0 
L 794 0 
L 794 531 
z
" transform="scale(0.015625)"/>
       </defs>
       <use xlink:href="#DejaVuSans-31"/>
       <use xlink:href="#DejaVuSans-30" x="63.623047"/>
      </g>
     </g>
    </g>
    <g id="xtick_3">
     <g id="line2d_3">
      <g>
       <use xlink:href="#m5dd0e2e7f7" x="159.906405" y="224.64" style="fill: #696969; stroke: #696969; stroke-width: 0.5"/>
      </g>
     </g>
     <g id="text_3">
      <!-- 20 -->
      <g style="fill: #696969" transform="translate(154.816405 237.71875)scale(0.08 -0.08)">
       <defs>
        <path id="DejaVuSans-32" d="M 1228 531 
L 3431 531 
L 3431 0 
L 469 0 
L 469 531 
Q 828 903 1448 1529 
Q 2069 2156 2228 2338 
Q 2531 2678 2651 2914 
Q 2772 3150 2772 3378 
Q 2772 3750 2511 3984 
Q 2250 4219 1831 4219 
Q 1534 4219 1204 4116 
Q 875 4013 500 3803 
L 500 4441 
Q 881 4594 1212 4672 
Q 1544 4750 1819 4750 
Q 2544 4750 2975 4387 
Q 3406 4025 3406 3419 
Q 3406 3131 3298 2873 
Q 3191 2616 2906 2266 
Q 2828 2175 2409 1742 
Q 1991 1309 1228 531 
z
" transform="scale(0.015625)"/>
       </defs>
       <use xlink:href="#DejaVuSans-32"/>
       <use xlink:href="#DejaVuSans-30" x="63.623047"/>
      </g>
     </g>
    </g>
    <g id="xtick_4">
     <g id="line2d_4">
      <g>
       <use xlink:href="#m5dd0e2e7f7" x="211.319182" y="224.64" style="fill: #696969; stroke: #696969; stroke-width: 0.5"/>
      </g>
     </g>
     <g id="text_4">
      <!-- 30 -->
      <g style="fill: #696969" transform="translate(206.229182 237.71875)scale(0.08 -0.08)">
       <defs>
        <path id="DejaVuSans-33" d="M 2597 2516 
Q 3050 2419 3304 2112 
Q 3559 1806 3559 1356 
Q 3559 666 3084 287 
Q 2609 -91 1734 -91 
Q 1441 -91 1130 -33 
Q 819 25 488 141 
L 488 750 
Q 750 597 1062 519 
Q 1375 441 1716 441 
Q 2309 441 2620 675 
Q 2931 909 2931 1356 
Q 2931 1769 2642 2001 
Q 2353 2234 1838 2234 
L 1294 2234 
L 1294 2753 
L 1863 2753 
Q 2328 2753 2575 2939 
Q 2822 3125 2822 3475 
Q 2822 3834 2567 4026 
Q 2313 4219 1838 4219 
Q 1578 4219 1281 4162 
Q 984 4106 628 3988 
L 628 4550 
Q 988 4650 1302 4700 
Q 1616 4750 1894 4750 
Q 2613 4750 3031 4423 
Q 3450 4097 3450 3541 
Q 3450 3153 3228 2886 
Q 3006 2619 2597 2516 
z
" transform="scale(0.015625)"/>
       </defs>
       <use xlink:href="#DejaVuSans-33"/>
       <use xlink:href="#DejaVuSans-30" x="63.623047"/>
      </g>
     </g>
    </g>
    <g id="xtick_5">
     <g id="line2d_5">
      <g>
       <use xlink:href="#m5dd0e2e7f7" x="262.731958" y="224.64" style="fill: #696969; stroke: #696969; stroke-width: 0.5"/>
      </g>
     </g>
     <g id="text_5">
      <!-- 40 -->
      <g style="fill: #696969" transform="translate(257.641958 237.71875)scale(0.08 -0.08)">
       <defs>
        <path id="DejaVuSans-34" d="M 2419 4116 
L 825 1625 
L 2419 1625 
L 2419 4116 
z
M 2253 4666 
L 3047 4666 
L 3047 1625 
L 3713 1625 
L 3713 1100 
L 3047 1100 
L 3047 0 
L 2419 0 
L 2419 1100 
L 313 1100 
L 313 1709 
L 2253 4666 
z
" transform="scale(0.015625)"/>
       </defs>
       <use xlink:href="#DejaVuSans-34"/>
       <use xlink:href="#DejaVuSans-30" x="63.623047"/>
      </g>
     </g>
    </g>
    <g id="xtick_6">
     <g id="line2d_6">
      <g>
       <use xlink:href="#m5dd0e2e7f7" x="314.144734" y="224.64" style="fill: #696969; stroke: #696969; stroke-width: 0.5"/>
      </g>
     </g>
     <g id="text_6">
      <!-- 50 -->
      <g style="fill: #696969" transform="translate(309.054734 237.71875)scale(0.08 -0.08)">
       <defs>
        <path id="DejaVuSans-35" d="M 691 4666 
L 3169 4666 
L 3169 4134 
L 1269 4134 
L 1269 2991 
Q 1406 3038 1543 3061 
Q 1681 3084 1819 3084 
Q 2600 3084 3056 2656 
Q 3513 2228 3513 1497 
Q 3513 744 3044 326 
Q 2575 -91 1722 -91 
Q 1428 -91 1123 -41 
Q 819 9 494 109 
L 494 744 
Q 775 591 1075 516 
Q 1375 441 1709 441 
Q 2250 441 2565 725 
Q 2881 1009 2881 1497 
Q 2881 1984 2565 2268 
Q 2250 2553 1709 2553 
Q 1456 2553 1204 2497 
Q 953 2441 691 2322 
L 691 4666 
z
" transform="scale(0.015625)"/>
       </defs>
       <use xlink:href="#DejaVuSans-35"/>
       <use xlink:href="#DejaVuSans-30" x="63.623047"/>
      </g>
     </g>
    </g>
    <g id="xtick_7">
     <g id="line2d_7">
      <g>
       <use xlink:href="#m5dd0e2e7f7" x="365.557511" y="224.64" style="fill: #696969; stroke: #696969; stroke-width: 0.5"/>
      </g>
     </g>
     <g id="text_7">
      <!-- 60 -->
      <g style="fill: #696969" transform="translate(360.467511 237.71875)scale(0.08 -0.08)">
       <defs>
        <path id="DejaVuSans-36" d="M 2113 2584 
Q 1688 2584 1439 2293 
Q 1191 2003 1191 1497 
Q 1191 994 1439 701 
Q 1688 409 2113 409 
Q 2538 409 2786 701 
Q 3034 994 3034 1497 
Q 3034 2003 2786 2293 
Q 2538 2584 2113 2584 
z
M 3366 4563 
L 3366 3988 
Q 3128 4100 2886 4159 
Q 2644 4219 2406 4219 
Q 1781 4219 1451 3797 
Q 1122 3375 1075 2522 
Q 1259 2794 1537 2939 
Q 1816 3084 2150 3084 
Q 2853 3084 3261 2657 
Q 3669 2231 3669 1497 
Q 3669 778 3244 343 
Q 2819 -91 2113 -91 
Q 1303 -91 875 529 
Q 447 1150 447 2328 
Q 447 3434 972 4092 
Q 1497 4750 2381 4750 
Q 2619 4750 2861 4703 
Q 3103 4656 3366 4563 
z
" transform="scale(0.015625)"/>
       </defs>
       <use xlink:href="#DejaVuSans-36"/>
       <use xlink:href="#DejaVuSans-30" x="63.623047"/>
      </g>
     </g>
    </g>
    <g id="xtick_8">
     <g id="line2d_8">
      <g>
       <use xlink:href="#m5dd0e2e7f7" x="416.970287" y="224.64" style="fill: #696969; stroke: #696969; stroke-width: 0.5"/>
      </g>
     </g>
     <g id="text_8">
      <!-- 70 -->
      <g style="fill: #696969" transform="translate(411.880287 237.71875)scale(0.08 -0.08)">
       <defs>
        <path id="DejaVuSans-37" d="M 525 4666 
L 3525 4666 
L 3525 4397 
L 1831 0 
L 1172 0 
L 2766 4134 
L 525 4134 
L 525 4666 
z
" transform="scale(0.015625)"/>
       </defs>
       <use xlink:href="#DejaVuSans-37"/>
       <use xlink:href="#DejaVuSans-30" x="63.623047"/>
      </g>
     </g>
    </g>
    <g id="text_9">
     <!-- position -->
     <g style="fill: #696969" transform="translate(227.503438 250.980938)scale(0.1 -0.1)">
      <defs>
       <path id="DejaVuSans-70" d="M 1159 525 
L 1159 -1331 
L 581 -1331 
L 581 3500 
L 1159 3500 
L 1159 2969 
Q 1341 3281 1617 3432 
Q 1894 3584 2278 3584 
Q 2916 3584 3314 3078 
Q 3713 2572 3713 1747 
Q 3713 922 3314 415 
Q 2916 -91 2278 -91 
Q 1894 -91 1617 61 
Q 1341 213 1159 525 
z
M 3116 1747 
Q 3116 2381 2855 2742 
Q 2594 3103 2138 3103 
Q 1681 3103 1420 2742 
Q 1159 2381 1159 1747 
Q 1159 1113 1420 752 
Q 1681 391 2138 391 
Q 2594 391 2855 752 
Q 3116 1113 3116 1747 
z
" transform="scale(0.015625)"/>
       <path id="DejaVuSans-6f" d="M 1959 3097 
Q 1497 3097 1228 2736 
Q 959 2375 959 1747 
Q 959 1119 1226 758 
Q 1494 397 1959 397 
Q 2419 397 2687 759 
Q 2956 1122 2956 1747 
Q 2956 2369 2687 2733 
Q 2419 3097 1959 3097 
z
M 1959 3584 
Q 2709 3584 3137 3096 
Q 3566 2609 3566 1747 
Q 3566 888 3137 398 
Q 2709 -91 1959 -91 
Q 1206 -91 779 398 
Q 353 888 353 1747 
Q 353 2609 779 3096 
Q 1206 3584 1959 3584 
z
" transform="scale(0.015625)"/>
       <path id="DejaVuSans-73" d="M 2834 3397 
L 2834 2853 
Q 2591 2978 2328 3040 
Q 2066 3103 1784 3103 
Q 1356 3103 1142 2972 
Q 928 2841 928 2578 
Q 928 2378 1081 2264 
Q 1234 2150 1697 2047 
L 1894 2003 
Q 2506 1872 2764 1633 
Q 3022 1394 3022 966 
Q 3022 478 2636 193 
Q 2250 -91 1575 -91 
Q 1294 -91 989 -36 
Q 684 19 347 128 
L 347 722 
Q 666 556 975 473 
Q 1284 391 1588 391 
Q 1994 391 2212 530 
Q 2431 669 2431 922 
Q 2431 1156 2273 1281 
Q 2116 1406 1581 1522 
L 1381 1569 
Q 847 1681 609 1914 
Q 372 2147 372 2553 
Q 372 3047 722 3315 
Q 1072 3584 1716 3584 
Q 2034 3584 2315 3537 
Q 2597 3491 2834 3397 
z
" transform="scale(0.015625)"/>
       <path id="DejaVuSans-69" d="M 603 3500 
L 1178 3500 
L 1178 0 
L 603 0 
L 603 3500 
z
M 603 4863 
L 1178 4863 
L 1178 4134 
L 603 4134 
L 603 4863 
z
" transform="scale(0.015625)"/>
       <path id="DejaVuSans-74" d="M 1172 4494 
L 1172 3500 
L 2356 3500 
L 2356 3053 
L 1172 3053 
L 1172 1153 
Q 1172 725 1289 603 
Q 1406 481 1766 481 
L 2356 481 
L 2356 0 
L 1766 0 
Q 1100 0 847 248 
Q 594 497 594 1153 
L 594 3053 
L 172 3053 
L 172 3500 
L 594 3500 
L 594 4494 
L 1172 4494 
z
" transform="scale(0.015625)"/>
       <path id="DejaVuSans-6e" d="M 3513 2113 
L 3513 0 
L 2938 0 
L 2938 2094 
Q 2938 2591 2744 2837 
Q 2550 3084 2163 3084 
Q 1697 3084 1428 2787 
Q 1159 2491 1159 1978 
L 1159 0 
L 581 0 
L 581 3500 
L 1159 3500 
L 1159 2956 
Q 1366 3272 1645 3428 
Q 1925 3584 2291 3584 
Q 2894 3584 3203 3211 
Q 3513 2838 3513 2113 
z
" transform="scale(0.015625)"/>
      </defs>
      <use xlink:href="#DejaVuSans-70"/>
      <use xlink:href="#DejaVuSans-6f" x="63.476562"/>
      <use xlink:href="#DejaVuSans-73" x="124.658203"/>
      <use xlink:href="#DejaVuSans-69" x="176.757812"/>
      <use xlink:href="#DejaVuSans-74" x="204.541016"/>
      <use xlink:href="#DejaVuSans-69" x="243.75"/>
      <use xlink:href="#DejaVuSans-6f" x="271.533203"/>
      <use xlink:href="#DejaVuSans-6e" x="332.714844"/>
     </g>
    </g>
   </g>
   <g id="matplotlib.axis_2">
    <g id="ytick_1">
     <g id="line2d_9">
      <defs>
       <path id="m87e57a3529" d="M 0 0 
L -3.5 0 
" style="stroke: #696969; stroke-width: 0.5"/>
      </defs>
      <g>
       <use xlink:href="#m87e57a3529" x="38.058125" y="216.424488" style="fill: #696969; stroke: #696969; stroke-width: 0.5"/>
      </g>
     </g>
     <g id="text_10">
      <!-- 20 -->
      <g style="fill: #696969" transform="translate(20.878125 219.463863)scale(0.08 -0.08)">
       <use xlink:href="#DejaVuSans-32"/>
       <use xlink:href="#DejaVuSans-30" x="63.623047"/>
      </g>
     </g>
    </g>
    <g id="ytick_2">
     <g id="line2d_10">
      <g>
       <use xlink:href="#m87e57a3529" x="38.058125" y="191.923913" style="fill: #696969; stroke: #696969; stroke-width: 0.5"/>
      </g>
     </g>
     <g id="text_11">
      <!-- 25 -->
      <g style="fill: #696969" transform="translate(20.878125 194.963288)scale(0.08 -0.08)">
       <use xlink:href="#DejaVuSans-32"/>
       <use xlink:href="#DejaVuSans-35" x="63.623047"/>
      </g>
     </g>
    </g>
    <g id="ytick_3">
     <g id="line2d_11">
      <g>
       <use xlink:href="#m87e57a3529" x="38.058125" y="167.423337" style="fill: #696969; stroke: #696969; stroke-width: 0.5"/>
      </g>
     </g>
     <g id="text_12">
      <!-- 30 -->
      <g style="fill: #696969" transform="translate(20.878125 170.462712)scale(0.08 -0.08)">
       <use xlink:href="#DejaVuSans-33"/>
       <use xlink:href="#DejaVuSans-30" x="63.623047"/>
      </g>
     </g>
    </g>
    <g id="ytick_4">
     <g id="line2d_12">
      <g>
       <use xlink:href="#m87e57a3529" x="38.058125" y="142.922762" style="fill: #696969; stroke: #696969; stroke-width: 0.5"/>
      </g>
     </g>
     <g id="text_13">
      <!-- 35 -->
      <g style="fill: #696969" transform="translate(20.878125 145.962137)scale(0.08 -0.08)">
       <use xlink:href="#DejaVuSans-33"/>
       <use xlink:href="#DejaVuSans-35" x="63.623047"/>
      </g>
     </g>
    </g>
    <g id="ytick_5">
     <g id="line2d_13">
      <g>
       <use xlink:href="#m87e57a3529" x="38.058125" y="118.422186" style="fill: #696969; stroke: #696969; stroke-width: 0.5"/>
      </g>
     </g>
     <g id="text_14">
      <!-- 40 -->
      <g style="fill: #696969" transform="translate(20.878125 121.461561)scale(0.08 -0.08)">
       <use xlink:href="#DejaVuSans-34"/>
       <use xlink:href="#DejaVuSans-30" x="63.623047"/>
      </g>
     </g>
    </g>
    <g id="ytick_6">
     <g id="line2d_14">
      <g>
       <use xlink:href="#m87e57a3529" x="38.058125" y="93.921611" style="fill: #696969; stroke: #696969; stroke-width: 0.5"/>
      </g>
     </g>
     <g id="text_15">
      <!-- 45 -->
      <g style="fill: #696969" transform="translate(20.878125 96.960986)scale(0.08 -0.08)">
       <use xlink:href="#DejaVuSans-34"/>
       <use xlink:href="#DejaVuSans-35" x="63.623047"/>
      </g>
     </g>
    </g>
    <g id="ytick_7">
     <g id="line2d_15">
      <g>
       <use xlink:href="#m87e57a3529" x="38.058125" y="69.421036" style="fill: #696969; stroke: #696969; stroke-width: 0.5"/>
      </g>
     </g>
     <g id="text_16">
      <!-- 50 -->
      <g style="fill: #696969" transform="translate(20.878125 72.460411)scale(0.08 -0.08)">
       <use xlink:href="#DejaVuSans-35"/>
       <use xlink:href="#DejaVuSans-30" x="63.623047"/>
      </g>
     </g>
    </g>
    <g id="ytick_8">
     <g id="line2d_16">
      <g>
       <use xlink:href="#m87e57a3529" x="38.058125" y="44.92046" style="fill: #696969; stroke: #696969; stroke-width: 0.5"/>
      </g>
     </g>
     <g id="text_17">
      <!-- 55 -->
      <g style="fill: #696969" transform="translate(20.878125 47.959835)scale(0.08 -0.08)">
       <use xlink:href="#DejaVuSans-35"/>
       <use xlink:href="#DejaVuSans-35" x="63.623047"/>
      </g>
     </g>
    </g>
    <g id="ytick_9">
     <g id="line2d_17">
      <g>
       <use xlink:href="#m87e57a3529" x="38.058125" y="20.419885" style="fill: #696969; stroke: #696969; stroke-width: 0.5"/>
      </g>
     </g>
     <g id="text_18">
      <!-- 60 -->
      <g style="fill: #696969" transform="translate(20.878125 23.45926)scale(0.08 -0.08)">
       <use xlink:href="#DejaVuSans-36"/>
       <use xlink:href="#DejaVuSans-30" x="63.623047"/>
      </g>
     </g>
    </g>
    <g id="text_19">
     <!-- GC-content [%] -->
     <g style="fill: #696969" transform="translate(14.798438 154.473906)rotate(-90)scale(0.1 -0.1)">
      <defs>
       <path id="DejaVuSans-47" d="M 3809 666 
L 3809 1919 
L 2778 1919 
L 2778 2438 
L 4434 2438 
L 4434 434 
Q 4069 175 3628 42 
Q 3188 -91 2688 -91 
Q 1594 -91 976 548 
Q 359 1188 359 2328 
Q 359 3472 976 4111 
Q 1594 4750 2688 4750 
Q 3144 4750 3555 4637 
Q 3966 4525 4313 4306 
L 4313 3634 
Q 3963 3931 3569 4081 
Q 3175 4231 2741 4231 
Q 1884 4231 1454 3753 
Q 1025 3275 1025 2328 
Q 1025 1384 1454 906 
Q 1884 428 2741 428 
Q 3075 428 3337 486 
Q 3600 544 3809 666 
z
" transform="scale(0.015625)"/>
       <path id="DejaVuSans-43" d="M 4122 4306 
L 4122 3641 
Q 3803 3938 3442 4084 
Q 3081 4231 2675 4231 
Q 1875 4231 1450 3742 
Q 1025 3253 1025 2328 
Q 1025 1406 1450 917 
Q 1875 428 2675 428 
Q 3081 428 3442 575 
Q 3803 722 4122 1019 
L 4122 359 
Q 3791 134 3420 21 
Q 3050 -91 2638 -91 
Q 1578 -91 968 557 
Q 359 1206 359 2328 
Q 359 3453 968 4101 
Q 1578 4750 2638 4750 
Q 3056 4750 3426 4639 
Q 3797 4528 4122 4306 
z
" transform="scale(0.015625)"/>
       <path id="DejaVuSans-2d" d="M 313 2009 
L 1997 2009 
L 1997 1497 
L 313 1497 
L 313 2009 
z
" transform="scale(0.015625)"/>
       <path id="DejaVuSans-63" d="M 3122 3366 
L 3122 2828 
Q 2878 2963 2633 3030 
Q 2388 3097 2138 3097 
Q 1578 3097 1268 2742 
Q 959 2388 959 1747 
Q 959 1106 1268 751 
Q 1578 397 2138 397 
Q 2388 397 2633 464 
Q 2878 531 3122 666 
L 3122 134 
Q 2881 22 2623 -34 
Q 2366 -91 2075 -91 
Q 1284 -91 818 406 
Q 353 903 353 1747 
Q 353 2603 823 3093 
Q 1294 3584 2113 3584 
Q 2378 3584 2631 3529 
Q 2884 3475 3122 3366 
z
" transform="scale(0.015625)"/>
       <path id="DejaVuSans-65" d="M 3597 1894 
L 3597 1613 
L 953 1613 
Q 991 1019 1311 708 
Q 1631 397 2203 397 
Q 2534 397 2845 478 
Q 3156 559 3463 722 
L 3463 178 
Q 3153 47 2828 -22 
Q 2503 -91 2169 -91 
Q 1331 -91 842 396 
Q 353 884 353 1716 
Q 353 2575 817 3079 
Q 1281 3584 2069 3584 
Q 2775 3584 3186 3129 
Q 3597 2675 3597 1894 
z
M 3022 2063 
Q 3016 2534 2758 2815 
Q 2500 3097 2075 3097 
Q 1594 3097 1305 2825 
Q 1016 2553 972 2059 
L 3022 2063 
z
" transform="scale(0.015625)"/>
       <path id="DejaVuSans-20" transform="scale(0.015625)"/>
       <path id="DejaVuSans-5b" d="M 550 4863 
L 1875 4863 
L 1875 4416 
L 1125 4416 
L 1125 -397 
L 1875 -397 
L 1875 -844 
L 550 -844 
L 550 4863 
z
" transform="scale(0.015625)"/>
       <path id="DejaVuSans-25" d="M 4653 2053 
Q 4381 2053 4226 1822 
Q 4072 1591 4072 1178 
Q 4072 772 4226 539 
Q 4381 306 4653 306 
Q 4919 306 5073 539 
Q 5228 772 5228 1178 
Q 5228 1588 5073 1820 
Q 4919 2053 4653 2053 
z
M 4653 2450 
Q 5147 2450 5437 2106 
Q 5728 1763 5728 1178 
Q 5728 594 5436 251 
Q 5144 -91 4653 -91 
Q 4153 -91 3862 251 
Q 3572 594 3572 1178 
Q 3572 1766 3864 2108 
Q 4156 2450 4653 2450 
z
M 1428 4353 
Q 1159 4353 1004 4120 
Q 850 3888 850 3481 
Q 850 3069 1003 2837 
Q 1156 2606 1428 2606 
Q 1700 2606 1854 2837 
Q 2009 3069 2009 3481 
Q 2009 3884 1853 4118 
Q 1697 4353 1428 4353 
z
M 4250 4750 
L 4750 4750 
L 1831 -91 
L 1331 -91 
L 4250 4750 
z
M 1428 4750 
Q 1922 4750 2215 4408 
Q 2509 4066 2509 3481 
Q 2509 2891 2217 2550 
Q 1925 2209 1428 2209 
Q 931 2209 642 2551 
Q 353 2894 353 3481 
Q 353 4063 643 4406 
Q 934 4750 1428 4750 
z
" transform="scale(0.015625)"/>
       <path id="DejaVuSans-5d" d="M 1947 4863 
L 1947 -844 
L 622 -844 
L 622 -397 
L 1369 -397 
L 1369 4416 
L 622 4416 
L 622 4863 
L 1947 4863 
z
" transform="scale(0.015625)"/>
      </defs>
      <use xlink:href="#DejaVuSans-47"/>
      <use xlink:href="#DejaVuSans-43" x="77.490234"/>
      <use xlink:href="#DejaVuSans-2d" x="147.314453"/>
      <use xlink:href="#DejaVuSans-63" x="183.398438"/>
      <use xlink:href="#DejaVuSans-6f" x="238.378906"/>
      <use xlink:href="#DejaVuSans-6e" x="299.560547"/>
      <use xlink:href="#DejaVuSans-74" x="362.939453"/>
      <use xlink:href="#DejaVuSans-65" x="402.148438"/>
      <use xlink:href="#DejaVuSans-6e" x="463.671875"/>
      <use xlink:href="#DejaVuSans-74" x="527.050781"/>
      <use xlink:href="#DejaVuSans-20" x="566.259766"/>
      <use xlink:href="#DejaVuSans-5b" x="598.046875"/>
      <use xlink:href="#DejaVuSans-25" x="637.060547"/>
      <use xlink:href="#DejaVuSans-5d" x="732.080078"/>
     </g>
    </g>
   </g>
   <g id="line2d_18">
    <path d="M 57.080852 73.951918 
L 62.22213 69.21816 
L 67.363408 68.94766 
L 72.504685 70.029662 
L 77.645963 72.058415 
L 82.78724 64.754903 
L 87.928518 68.541909 
L 93.069796 67.595158 
L 98.211073 76.927422 
L 103.352351 67.324657 
L 108.493629 70.976413 
L 113.634906 70.029662 
L 118.776184 69.894411 
L 123.917462 68.406659 
L 129.058739 74.628169 
L 134.200017 74.087168 
L 139.341295 73.275667 
L 144.482572 74.898669 
L 149.62385 68.67716 
L 154.765127 80.714428 
L 159.906405 70.705913 
L 165.047683 76.792172 
L 170.18896 71.652664 
L 175.330238 61.644149 
L 180.471516 71.787914 
L 185.612793 68.406659 
L 190.754071 66.513156 
L 195.895349 72.193665 
L 201.036626 77.874174 
L 206.177904 60.832647 
L 211.319182 73.546167 
L 216.460459 67.324657 
L 221.601737 71.652664 
L 226.743014 75.43967 
L 231.884292 69.21816 
L 237.02557 70.164912 
L 242.166847 75.57492 
L 247.308125 70.976413 
L 252.449403 69.894411 
L 257.59068 76.521672 
L 262.731958 69.759161 
L 267.873236 70.705913 
L 273.014513 69.759161 
L 278.155791 69.21816 
L 283.297068 65.160654 
L 288.438346 75.980671 
L 293.579624 71.111663 
L 298.720901 77.333173 
L 303.862179 75.16917 
L 309.003457 69.08291 
L 314.144734 74.087168 
L 319.286012 67.865658 
L 324.42729 63.402401 
L 329.568567 62.996651 
L 334.709845 68.67716 
L 339.851123 71.111663 
L 344.9924 68.67716 
L 350.133678 70.705913 
L 355.274955 72.058415 
L 360.416233 65.972155 
L 365.557511 69.759161 
L 370.698788 72.058415 
L 375.840066 66.107406 
L 380.981344 71.652664 
L 386.122621 65.431155 
L 391.263899 62.861401 
L 396.405177 66.513156 
L 401.546454 63.267151 
L 406.687732 71.111663 
L 411.82901 65.160654 
L 416.970287 75.43967 
L 422.111565 67.324657 
L 427.252842 64.078652 
L 432.39412 71.382164 
L 437.535398 72.464165 
" clip-path="url(#pf331267b4b)" style="fill: none; stroke-dasharray: 8,2; stroke-dashoffset: 0; stroke: #d3d3d3; stroke-opacity: 0.9; stroke-width: 2"/>
   </g>
   <g id="line2d_19">
    <path d="M 57.080852 80.038177 
L 62.22213 90.858194 
L 67.363408 92.751697 
L 72.504685 101.001959 
L 77.645963 91.804945 
L 82.78724 93.563198 
L 87.928518 96.403452 
L 93.069796 93.833698 
L 98.211073 104.112714 
L 103.352351 99.378957 
L 108.493629 103.977464 
L 113.634906 98.567456 
L 118.776184 99.378957 
L 123.917462 100.731459 
L 129.058739 100.731459 
L 134.200017 95.05095 
L 139.341295 94.78045 
L 144.482572 107.088219 
L 149.62385 105.465216 
L 154.765127 84.230934 
L 159.906405 94.239449 
L 165.047683 74.357668 
L 170.18896 75.033919 
L 175.330238 67.324657 
L 180.471516 62.861401 
L 185.612793 62.45565 
L 190.754071 66.648406 
L 195.895349 65.566405 
L 201.036626 65.701655 
L 206.177904 79.091426 
L 211.319182 72.734666 
L 216.460459 77.333173 
L 221.601737 73.275667 
L 226.743014 68.406659 
L 231.884292 69.894411 
L 237.02557 72.058415 
L 242.166847 65.431155 
L 247.308125 70.029662 
L 252.449403 66.918907 
L 257.59068 68.81241 
L 262.731958 63.808152 
L 267.873236 72.328915 
L 273.014513 79.767677 
L 278.155791 82.878431 
L 283.297068 91.128694 
L 288.438346 88.69419 
L 293.579624 89.911442 
L 298.720901 95.997702 
L 303.862179 84.907185 
L 309.003457 93.563198 
L 314.144734 93.292698 
L 319.286012 87.612189 
L 324.42729 94.239449 
L 329.568567 101.40771 
L 334.709845 91.534445 
L 339.851123 98.026455 
L 344.9924 97.755954 
L 350.133678 95.727201 
L 355.274955 90.993444 
L 360.416233 96.403452 
L 365.557511 89.099941 
L 370.698788 89.505692 
L 375.840066 95.862452 
L 380.981344 87.071188 
L 386.122621 93.833698 
L 391.263899 88.964691 
L 396.405177 79.497176 
L 401.546454 86.124436 
L 406.687732 88.42369 
L 411.82901 82.337431 
L 416.970287 92.886947 
L 422.111565 88.15319 
L 427.252842 86.259687 
L 432.39412 82.20218 
L 437.535398 63.808152 
" clip-path="url(#pf331267b4b)" style="fill: none; stroke-dasharray: 8,2; stroke-dashoffset: 0; stroke: #e76a3c; stroke-opacity: 0.9; stroke-width: 2"/>
   </g>
   <g id="line2d_20">
    <path d="M 57.080852 88.53496 
L 62.22213 90.620115 
L 67.363408 92.70527 
L 72.504685 94.095374 
L 77.645963 86.032773 
L 82.78724 94.373395 
L 87.928518 89.230012 
L 93.069796 95.624488 
L 98.211073 82.974545 
L 103.352351 91.176157 
L 108.493629 83.808608 
L 113.634906 95.207457 
L 118.776184 90.898136 
L 123.917462 94.373395 
L 129.058739 92.70527 
L 134.200017 88.395949 
L 139.341295 86.588815 
L 144.482572 81.167411 
L 149.62385 88.81298 
L 154.765127 90.620115 
L 159.906405 84.086628 
L 165.047683 92.844281 
L 170.18896 89.091001 
L 175.330238 91.593188 
L 180.471516 98.265685 
L 185.612793 87.283867 
L 190.754071 86.171784 
L 195.895349 91.593188 
L 201.036626 92.42725 
L 206.177904 90.064074 
L 211.319182 91.593188 
L 216.460459 85.615742 
L 221.601737 86.310794 
L 226.743014 88.81298 
L 231.884292 87.422877 
L 237.02557 87.700898 
L 242.166847 91.732198 
L 247.308125 93.956364 
L 252.449403 84.503659 
L 257.59068 90.898136 
L 262.731958 89.230012 
L 267.873236 90.898136 
L 273.014513 86.727825 
L 278.155791 89.647043 
L 283.297068 89.647043 
L 288.438346 87.283867 
L 293.579624 95.763498 
L 298.720901 91.037146 
L 303.862179 87.700898 
L 309.003457 96.180529 
L 314.144734 90.342094 
L 319.286012 91.176157 
L 324.42729 92.70527 
L 329.568567 86.171784 
L 334.709845 95.346467 
L 339.851123 92.288239 
L 344.9924 89.230012 
L 350.133678 92.70527 
L 355.274955 85.754753 
L 360.416233 89.925063 
L 365.557511 94.234384 
L 370.698788 91.037146 
L 375.840066 90.481105 
L 380.981344 82.140483 
L 386.122621 92.70527 
L 391.263899 91.732198 
L 396.405177 90.064074 
L 401.546454 95.207457 
L 406.687732 83.530587 
L 411.82901 87.283867 
L 416.970287 87.561887 
L 422.111565 92.010219 
L 427.252842 94.512405 
L 432.39412 90.620115 
L 437.535398 92.42725 
" clip-path="url(#pf331267b4b)" style="fill: none; stroke-dasharray: 2,0; stroke-dashoffset: 0; stroke: #d3d3d3; stroke-opacity: 0.9; stroke-width: 2"/>
   </g>
   <g id="line2d_21">
    <path d="M 57.080852 112.16672 
L 62.22213 130.099056 
L 67.363408 113.417814 
L 72.504685 122.592497 
L 77.645963 106.745316 
L 82.78724 114.668907 
L 87.928518 120.507342 
L 93.069796 125.094684 
L 98.211073 130.099056 
L 103.352351 133.018274 
L 108.493629 140.941864 
L 113.634906 148.448423 
L 118.776184 157.623107 
L 123.917462 135.937491 
L 129.058739 162.210449 
L 134.200017 155.537952 
L 139.341295 152.201703 
L 144.482572 173.470288 
L 149.62385 178.891692 
L 154.765127 167.631853 
L 159.906405 138.022647 
L 165.047683 106.328285 
L 170.18896 75.467986 
L 175.330238 64.625178 
L 180.471516 55.033464 
L 185.612793 62.122992 
L 190.754071 40.437376 
L 195.895349 27.092382 
L 201.036626 18.751761 
L 206.177904 39.186283 
L 211.319182 65.876272 
L 216.460459 105.911254 
L 221.601737 109.664534 
L 226.743014 102.157975 
L 231.884292 65.876272 
L 237.02557 55.033464 
L 242.166847 40.854407 
L 247.308125 35.433003 
L 252.449403 49.61206 
L 257.59068 38.352221 
L 262.731958 17.083636 
L 267.873236 20.002854 
L 273.014513 33.347848 
L 278.155791 79.638297 
L 283.297068 107.162348 
L 288.438346 149.282486 
L 293.579624 191.402624 
L 298.720901 199.326214 
L 303.862179 206.415742 
L 309.003457 207.249804 
L 314.144734 214.756364 
L 319.286012 190.568562 
L 324.42729 180.976847 
L 329.568567 175.138412 
L 334.709845 176.806536 
L 339.851123 149.282486 
L 344.9924 151.367641 
L 350.133678 144.695144 
L 355.274955 130.933119 
L 360.416233 132.601243 
L 365.557511 133.435305 
L 370.698788 130.516087 
L 375.840066 127.179839 
L 380.981344 118.422186 
L 386.122621 115.085938 
L 391.263899 122.592497 
L 396.405177 113.000783 
L 401.546454 114.668907 
L 406.687732 130.933119 
L 411.82901 124.260621 
L 416.970287 109.247503 
L 422.111565 109.247503 
L 427.252842 106.745316 
L 432.39412 116.337031 
L 437.535398 112.583751 
" clip-path="url(#pf331267b4b)" style="fill: none; stroke-dasharray: 2,0; stroke-dashoffset: 0; stroke: #808080; stroke-opacity: 0.9; stroke-width: 2"/>
   </g>
   <g id="line2d_22"/>
   <g id="line2d_23"/>
   <g id="line2d_24"/>
   <g id="line2d_25"/>
   <g id="patch_3">
    <path d="M 38.058125 224.64 
L 38.058125 7.2 
" style="fill: none; stroke: #696969; stroke-width: 0.5; stroke-linejoin: miter; stroke-linecap: square"/>
   </g>
   <g id="patch_4">
    <path d="M 38.058125 224.64 
L 456.558125 224.64 
" style="fill: none; stroke: #696969; stroke-width: 0.5; stroke-linejoin: miter; stroke-linecap: square"/>
   </g>
   <g id="legend_1">
    <g id="line2d_26">
     <path d="M 464.743125 65.309638 
L 474.743125 65.309638 
L 484.743125 65.309638 
" style="fill: none; stroke-dasharray: 6,1.5; stroke-dashoffset: 0; stroke: #d3d3d3; stroke-width: 1.5"/>
    </g>
    <g id="text_20">
     <!-- artificial negative -->
     <g style="fill: #696969" transform="translate(492.743125 68.809638)scale(0.1 -0.1)">
      <defs>
       <path id="DejaVuSans-61" d="M 2194 1759 
Q 1497 1759 1228 1600 
Q 959 1441 959 1056 
Q 959 750 1161 570 
Q 1363 391 1709 391 
Q 2188 391 2477 730 
Q 2766 1069 2766 1631 
L 2766 1759 
L 2194 1759 
z
M 3341 1997 
L 3341 0 
L 2766 0 
L 2766 531 
Q 2569 213 2275 61 
Q 1981 -91 1556 -91 
Q 1019 -91 701 211 
Q 384 513 384 1019 
Q 384 1609 779 1909 
Q 1175 2209 1959 2209 
L 2766 2209 
L 2766 2266 
Q 2766 2663 2505 2880 
Q 2244 3097 1772 3097 
Q 1472 3097 1187 3025 
Q 903 2953 641 2809 
L 641 3341 
Q 956 3463 1253 3523 
Q 1550 3584 1831 3584 
Q 2591 3584 2966 3190 
Q 3341 2797 3341 1997 
z
" transform="scale(0.015625)"/>
       <path id="DejaVuSans-72" d="M 2631 2963 
Q 2534 3019 2420 3045 
Q 2306 3072 2169 3072 
Q 1681 3072 1420 2755 
Q 1159 2438 1159 1844 
L 1159 0 
L 581 0 
L 581 3500 
L 1159 3500 
L 1159 2956 
Q 1341 3275 1631 3429 
Q 1922 3584 2338 3584 
Q 2397 3584 2469 3576 
Q 2541 3569 2628 3553 
L 2631 2963 
z
" transform="scale(0.015625)"/>
       <path id="DejaVuSans-66" d="M 2375 4863 
L 2375 4384 
L 1825 4384 
Q 1516 4384 1395 4259 
Q 1275 4134 1275 3809 
L 1275 3500 
L 2222 3500 
L 2222 3053 
L 1275 3053 
L 1275 0 
L 697 0 
L 697 3053 
L 147 3053 
L 147 3500 
L 697 3500 
L 697 3744 
Q 697 4328 969 4595 
Q 1241 4863 1831 4863 
L 2375 4863 
z
" transform="scale(0.015625)"/>
       <path id="DejaVuSans-6c" d="M 603 4863 
L 1178 4863 
L 1178 0 
L 603 0 
L 603 4863 
z
" transform="scale(0.015625)"/>
       <path id="DejaVuSans-67" d="M 2906 1791 
Q 2906 2416 2648 2759 
Q 2391 3103 1925 3103 
Q 1463 3103 1205 2759 
Q 947 2416 947 1791 
Q 947 1169 1205 825 
Q 1463 481 1925 481 
Q 2391 481 2648 825 
Q 2906 1169 2906 1791 
z
M 3481 434 
Q 3481 -459 3084 -895 
Q 2688 -1331 1869 -1331 
Q 1566 -1331 1297 -1286 
Q 1028 -1241 775 -1147 
L 775 -588 
Q 1028 -725 1275 -790 
Q 1522 -856 1778 -856 
Q 2344 -856 2625 -561 
Q 2906 -266 2906 331 
L 2906 616 
Q 2728 306 2450 153 
Q 2172 0 1784 0 
Q 1141 0 747 490 
Q 353 981 353 1791 
Q 353 2603 747 3093 
Q 1141 3584 1784 3584 
Q 2172 3584 2450 3431 
Q 2728 3278 2906 2969 
L 2906 3500 
L 3481 3500 
L 3481 434 
z
" transform="scale(0.015625)"/>
       <path id="DejaVuSans-76" d="M 191 3500 
L 800 3500 
L 1894 563 
L 2988 3500 
L 3597 3500 
L 2284 0 
L 1503 0 
L 191 3500 
z
" transform="scale(0.015625)"/>
      </defs>
      <use xlink:href="#DejaVuSans-61"/>
      <use xlink:href="#DejaVuSans-72" x="61.279297"/>
      <use xlink:href="#DejaVuSans-74" x="102.392578"/>
      <use xlink:href="#DejaVuSans-69" x="141.601562"/>
      <use xlink:href="#DejaVuSans-66" x="169.384766"/>
      <use xlink:href="#DejaVuSans-69" x="204.589844"/>
      <use xlink:href="#DejaVuSans-63" x="232.373047"/>
      <use xlink:href="#DejaVuSans-69" x="287.353516"/>
      <use xlink:href="#DejaVuSans-61" x="315.136719"/>
      <use xlink:href="#DejaVuSans-6c" x="376.416016"/>
      <use xlink:href="#DejaVuSans-20" x="404.199219"/>
      <use xlink:href="#DejaVuSans-6e" x="435.986328"/>
      <use xlink:href="#DejaVuSans-65" x="499.365234"/>
      <use xlink:href="#DejaVuSans-67" x="560.888672"/>
      <use xlink:href="#DejaVuSans-61" x="624.365234"/>
      <use xlink:href="#DejaVuSans-74" x="685.644531"/>
      <use xlink:href="#DejaVuSans-69" x="724.853516"/>
      <use xlink:href="#DejaVuSans-76" x="752.636719"/>
      <use xlink:href="#DejaVuSans-65" x="811.816406"/>
     </g>
    </g>
    <g id="line2d_27">
     <path d="M 464.743125 79.987763 
L 474.743125 79.987763 
L 484.743125 79.987763 
" style="fill: none; stroke-dasharray: 6,1.5; stroke-dashoffset: 0; stroke: #e76a3c; stroke-width: 1.5"/>
    </g>
    <g id="text_21">
     <!-- artificial terminator -->
     <g style="fill: #696969" transform="translate(492.743125 83.487763)scale(0.1 -0.1)">
      <defs>
       <path id="DejaVuSans-6d" d="M 3328 2828 
Q 3544 3216 3844 3400 
Q 4144 3584 4550 3584 
Q 5097 3584 5394 3201 
Q 5691 2819 5691 2113 
L 5691 0 
L 5113 0 
L 5113 2094 
Q 5113 2597 4934 2840 
Q 4756 3084 4391 3084 
Q 3944 3084 3684 2787 
Q 3425 2491 3425 1978 
L 3425 0 
L 2847 0 
L 2847 2094 
Q 2847 2600 2669 2842 
Q 2491 3084 2119 3084 
Q 1678 3084 1418 2786 
Q 1159 2488 1159 1978 
L 1159 0 
L 581 0 
L 581 3500 
L 1159 3500 
L 1159 2956 
Q 1356 3278 1631 3431 
Q 1906 3584 2284 3584 
Q 2666 3584 2933 3390 
Q 3200 3197 3328 2828 
z
" transform="scale(0.015625)"/>
      </defs>
      <use xlink:href="#DejaVuSans-61"/>
      <use xlink:href="#DejaVuSans-72" x="61.279297"/>
      <use xlink:href="#DejaVuSans-74" x="102.392578"/>
      <use xlink:href="#DejaVuSans-69" x="141.601562"/>
      <use xlink:href="#DejaVuSans-66" x="169.384766"/>
      <use xlink:href="#DejaVuSans-69" x="204.589844"/>
      <use xlink:href="#DejaVuSans-63" x="232.373047"/>
      <use xlink:href="#DejaVuSans-69" x="287.353516"/>
      <use xlink:href="#DejaVuSans-61" x="315.136719"/>
      <use xlink:href="#DejaVuSans-6c" x="376.416016"/>
      <use xlink:href="#DejaVuSans-20" x="404.199219"/>
      <use xlink:href="#DejaVuSans-74" x="435.986328"/>
      <use xlink:href="#DejaVuSans-65" x="475.195312"/>
      <use xlink:href="#DejaVuSans-72" x="536.71875"/>
      <use xlink:href="#DejaVuSans-6d" x="576.082031"/>
      <use xlink:href="#DejaVuSans-69" x="673.494141"/>
      <use xlink:href="#DejaVuSans-6e" x="701.277344"/>
      <use xlink:href="#DejaVuSans-61" x="764.65625"/>
      <use xlink:href="#DejaVuSans-74" x="825.935547"/>
      <use xlink:href="#DejaVuSans-6f" x="865.144531"/>
      <use xlink:href="#DejaVuSans-72" x="926.326172"/>
     </g>
    </g>
    <g id="line2d_28">
     <path d="M 464.743125 94.665887 
L 474.743125 94.665887 
L 484.743125 94.665887 
" style="fill: none; stroke-dasharray: 1.5,0; stroke-dashoffset: 0; stroke: #d3d3d3; stroke-width: 1.5"/>
    </g>
    <g id="text_22">
     <!-- negative -->
     <g style="fill: #696969" transform="translate(492.743125 98.165887)scale(0.1 -0.1)">
      <use xlink:href="#DejaVuSans-6e"/>
      <use xlink:href="#DejaVuSans-65" x="63.378906"/>
      <use xlink:href="#DejaVuSans-67" x="124.902344"/>
      <use xlink:href="#DejaVuSans-61" x="188.378906"/>
      <use xlink:href="#DejaVuSans-74" x="249.658203"/>
      <use xlink:href="#DejaVuSans-69" x="288.867188"/>
      <use xlink:href="#DejaVuSans-76" x="316.650391"/>
      <use xlink:href="#DejaVuSans-65" x="375.830078"/>
     </g>
    </g>
    <g id="line2d_29">
     <path d="M 464.743125 109.344013 
L 474.743125 109.344013 
L 484.743125 109.344013 
" style="fill: none; stroke-dasharray: 1.5,0; stroke-dashoffset: 0; stroke: #808080; stroke-width: 1.5"/>
    </g>
    <g id="text_23">
     <!-- terminator -->
     <g style="fill: #696969" transform="translate(492.743125 112.844013)scale(0.1 -0.1)">
      <use xlink:href="#DejaVuSans-74"/>
      <use xlink:href="#DejaVuSans-65" x="39.208984"/>
      <use xlink:href="#DejaVuSans-72" x="100.732422"/>
      <use xlink:href="#DejaVuSans-6d" x="140.095703"/>
      <use xlink:href="#DejaVuSans-69" x="237.507812"/>
      <use xlink:href="#DejaVuSans-6e" x="265.291016"/>
      <use xlink:href="#DejaVuSans-61" x="328.669922"/>
      <use xlink:href="#DejaVuSans-74" x="389.949219"/>
      <use xlink:href="#DejaVuSans-6f" x="429.158203"/>
      <use xlink:href="#DejaVuSans-72" x="490.339844"/>
     </g>
    </g>
   </g>
  </g>
 </g>
 <defs>
  <clipPath id="pf331267b4b">
   <rect x="38.058125" y="7.2" width="418.5" height="217.44"/>
  </clipPath>
 </defs>
</svg>
