<?xml version="1.0" encoding="utf-8" standalone="no"?>
<!DOCTYPE svg PUBLIC "-//W3C//DTD SVG 1.1//EN"
  "http://www.w3.org/Graphics/SVG/1.1/DTD/svg11.dtd">
<svg height="179.427375pt" version="1.1" viewBox="0 0 396.194625 179.427375" width="396.194625pt" xmlns="http://www.w3.org/2000/svg" xmlns:xlink="http://www.w3.org/1999/xlink">
 <metadata>
  <rdf:RDF xmlns:cc="http://creativecommons.org/ns#" xmlns:dc="http://purl.org/dc/elements/1.1/" xmlns:rdf="http://www.w3.org/1999/02/22-rdf-syntax-ns#">
   <cc:Work>
    <dc:type rdf:resource="http://purl.org/dc/dcmitype/StillImage"/>
    <dc:date>2021-12-20T02:44:31.526855</dc:date>
    <dc:format>image/svg+xml</dc:format>
    <dc:creator>
     <cc:Agent>
      <dc:title>Matplotlib v3.4.3, https://matplotlib.org/</dc:title>
     </cc:Agent>
    </dc:creator>
   </cc:Work>
  </rdf:RDF>
 </metadata>
 <defs>
  <style type="text/css">*{stroke-linecap:butt;stroke-linejoin:round;}</style>
 </defs>
 <g id="figure_1">
  <g id="patch_1">
   <path d="M 0 179.427375 
L 396.194625 179.427375 
L 396.194625 0 
L 0 0 
z
" style="fill:#ffffff;"/>
  </g>
  <g id="axes_1">
   <g id="patch_2">
    <path d="M 40.741 143.1 
L 247.201 143.1 
L 247.201 7.2 
L 40.741 7.2 
z
" style="fill:#ffffff;"/>
   </g>
   <g id="matplotlib.axis_1">
    <g id="xtick_1">
     <g id="line2d_1">
      <path clip-path="url(#p9bd77299a7)" d="M 50.125545 143.1 
L 50.125545 7.2 
" style="fill:none;stroke:#cccccc;stroke-linecap:round;stroke-width:0.8;"/>
     </g>
     <g id="text_1">
      <!-- 0 -->
      <g style="fill:#262626;" transform="translate(47.678733 157.698875)scale(0.088 -0.088)">
       <defs>
        <path d="M 266 2259 
Q 266 3072 433 3567 
Q 600 4063 929 4331 
Q 1259 4600 1759 4600 
Q 2128 4600 2406 4451 
Q 2684 4303 2865 4023 
Q 3047 3744 3150 3342 
Q 3253 2941 3253 2259 
Q 3253 1453 3087 958 
Q 2922 463 2592 192 
Q 2263 -78 1759 -78 
Q 1097 -78 719 397 
Q 266 969 266 2259 
z
M 844 2259 
Q 844 1131 1108 757 
Q 1372 384 1759 384 
Q 2147 384 2411 759 
Q 2675 1134 2675 2259 
Q 2675 3391 2411 3762 
Q 2147 4134 1753 4134 
Q 1366 4134 1134 3806 
Q 844 3388 844 2259 
z
" id="ArialMT-30" transform="scale(0.015625)"/>
       </defs>
       <use xlink:href="#ArialMT-30"/>
      </g>
     </g>
    </g>
    <g id="xtick_2">
     <g id="line2d_2">
      <path clip-path="url(#p9bd77299a7)" d="M 99.51789 143.1 
L 99.51789 7.2 
" style="fill:none;stroke:#cccccc;stroke-linecap:round;stroke-width:0.8;"/>
     </g>
     <g id="text_2">
      <!-- 5 -->
      <g style="fill:#262626;" transform="translate(97.071077 157.698875)scale(0.088 -0.088)">
       <defs>
        <path d="M 266 1200 
L 856 1250 
Q 922 819 1161 601 
Q 1400 384 1738 384 
Q 2144 384 2425 690 
Q 2706 997 2706 1503 
Q 2706 1984 2436 2262 
Q 2166 2541 1728 2541 
Q 1456 2541 1237 2417 
Q 1019 2294 894 2097 
L 366 2166 
L 809 4519 
L 3088 4519 
L 3088 3981 
L 1259 3981 
L 1013 2750 
Q 1425 3038 1878 3038 
Q 2478 3038 2890 2622 
Q 3303 2206 3303 1553 
Q 3303 931 2941 478 
Q 2500 -78 1738 -78 
Q 1113 -78 717 272 
Q 322 622 266 1200 
z
" id="ArialMT-35" transform="scale(0.015625)"/>
       </defs>
       <use xlink:href="#ArialMT-35"/>
      </g>
     </g>
    </g>
    <g id="xtick_3">
     <g id="line2d_3">
      <path clip-path="url(#p9bd77299a7)" d="M 148.910234 143.1 
L 148.910234 7.2 
" style="fill:none;stroke:#cccccc;stroke-linecap:round;stroke-width:0.8;"/>
     </g>
     <g id="text_3">
      <!-- 10 -->
      <g style="fill:#262626;" transform="translate(144.016609 157.698875)scale(0.088 -0.088)">
       <defs>
        <path d="M 2384 0 
L 1822 0 
L 1822 3584 
Q 1619 3391 1289 3197 
Q 959 3003 697 2906 
L 697 3450 
Q 1169 3672 1522 3987 
Q 1875 4303 2022 4600 
L 2384 4600 
L 2384 0 
z
" id="ArialMT-31" transform="scale(0.015625)"/>
       </defs>
       <use xlink:href="#ArialMT-31"/>
       <use x="55.615234" xlink:href="#ArialMT-30"/>
      </g>
     </g>
    </g>
    <g id="xtick_4">
     <g id="line2d_4">
      <path clip-path="url(#p9bd77299a7)" d="M 198.302579 143.1 
L 198.302579 7.2 
" style="fill:none;stroke:#cccccc;stroke-linecap:round;stroke-width:0.8;"/>
     </g>
     <g id="text_4">
      <!-- 15 -->
      <g style="fill:#262626;" transform="translate(193.408954 157.698875)scale(0.088 -0.088)">
       <use xlink:href="#ArialMT-31"/>
       <use x="55.615234" xlink:href="#ArialMT-35"/>
      </g>
     </g>
    </g>
    <g id="text_5">
     <!-- mutated base pairs -->
     <g style="fill:#262626;" transform="translate(103.15075 170.319375)scale(0.096 -0.096)">
      <defs>
       <path d="M 422 0 
L 422 3319 
L 925 3319 
L 925 2853 
Q 1081 3097 1340 3245 
Q 1600 3394 1931 3394 
Q 2300 3394 2536 3241 
Q 2772 3088 2869 2813 
Q 3263 3394 3894 3394 
Q 4388 3394 4653 3120 
Q 4919 2847 4919 2278 
L 4919 0 
L 4359 0 
L 4359 2091 
Q 4359 2428 4304 2576 
Q 4250 2725 4106 2815 
Q 3963 2906 3769 2906 
Q 3419 2906 3187 2673 
Q 2956 2441 2956 1928 
L 2956 0 
L 2394 0 
L 2394 2156 
Q 2394 2531 2256 2718 
Q 2119 2906 1806 2906 
Q 1569 2906 1367 2781 
Q 1166 2656 1075 2415 
Q 984 2175 984 1722 
L 984 0 
L 422 0 
z
" id="ArialMT-6d" transform="scale(0.015625)"/>
       <path d="M 2597 0 
L 2597 488 
Q 2209 -75 1544 -75 
Q 1250 -75 995 37 
Q 741 150 617 320 
Q 494 491 444 738 
Q 409 903 409 1263 
L 409 3319 
L 972 3319 
L 972 1478 
Q 972 1038 1006 884 
Q 1059 663 1231 536 
Q 1403 409 1656 409 
Q 1909 409 2131 539 
Q 2353 669 2445 892 
Q 2538 1116 2538 1541 
L 2538 3319 
L 3100 3319 
L 3100 0 
L 2597 0 
z
" id="ArialMT-75" transform="scale(0.015625)"/>
       <path d="M 1650 503 
L 1731 6 
Q 1494 -44 1306 -44 
Q 1000 -44 831 53 
Q 663 150 594 308 
Q 525 466 525 972 
L 525 2881 
L 113 2881 
L 113 3319 
L 525 3319 
L 525 4141 
L 1084 4478 
L 1084 3319 
L 1650 3319 
L 1650 2881 
L 1084 2881 
L 1084 941 
Q 1084 700 1114 631 
Q 1144 563 1211 522 
Q 1278 481 1403 481 
Q 1497 481 1650 503 
z
" id="ArialMT-74" transform="scale(0.015625)"/>
       <path d="M 2588 409 
Q 2275 144 1986 34 
Q 1697 -75 1366 -75 
Q 819 -75 525 192 
Q 231 459 231 875 
Q 231 1119 342 1320 
Q 453 1522 633 1644 
Q 813 1766 1038 1828 
Q 1203 1872 1538 1913 
Q 2219 1994 2541 2106 
Q 2544 2222 2544 2253 
Q 2544 2597 2384 2738 
Q 2169 2928 1744 2928 
Q 1347 2928 1158 2789 
Q 969 2650 878 2297 
L 328 2372 
Q 403 2725 575 2942 
Q 747 3159 1072 3276 
Q 1397 3394 1825 3394 
Q 2250 3394 2515 3294 
Q 2781 3194 2906 3042 
Q 3031 2891 3081 2659 
Q 3109 2516 3109 2141 
L 3109 1391 
Q 3109 606 3145 398 
Q 3181 191 3288 0 
L 2700 0 
Q 2613 175 2588 409 
z
M 2541 1666 
Q 2234 1541 1622 1453 
Q 1275 1403 1131 1340 
Q 988 1278 909 1158 
Q 831 1038 831 891 
Q 831 666 1001 516 
Q 1172 366 1500 366 
Q 1825 366 2078 508 
Q 2331 650 2450 897 
Q 2541 1088 2541 1459 
L 2541 1666 
z
" id="ArialMT-61" transform="scale(0.015625)"/>
       <path d="M 2694 1069 
L 3275 997 
Q 3138 488 2766 206 
Q 2394 -75 1816 -75 
Q 1088 -75 661 373 
Q 234 822 234 1631 
Q 234 2469 665 2931 
Q 1097 3394 1784 3394 
Q 2450 3394 2872 2941 
Q 3294 2488 3294 1666 
Q 3294 1616 3291 1516 
L 816 1516 
Q 847 969 1125 678 
Q 1403 388 1819 388 
Q 2128 388 2347 550 
Q 2566 713 2694 1069 
z
M 847 1978 
L 2700 1978 
Q 2663 2397 2488 2606 
Q 2219 2931 1791 2931 
Q 1403 2931 1139 2672 
Q 875 2413 847 1978 
z
" id="ArialMT-65" transform="scale(0.015625)"/>
       <path d="M 2575 0 
L 2575 419 
Q 2259 -75 1647 -75 
Q 1250 -75 917 144 
Q 584 363 401 755 
Q 219 1147 219 1656 
Q 219 2153 384 2558 
Q 550 2963 881 3178 
Q 1213 3394 1622 3394 
Q 1922 3394 2156 3267 
Q 2391 3141 2538 2938 
L 2538 4581 
L 3097 4581 
L 3097 0 
L 2575 0 
z
M 797 1656 
Q 797 1019 1065 703 
Q 1334 388 1700 388 
Q 2069 388 2326 689 
Q 2584 991 2584 1609 
Q 2584 2291 2321 2609 
Q 2059 2928 1675 2928 
Q 1300 2928 1048 2622 
Q 797 2316 797 1656 
z
" id="ArialMT-64" transform="scale(0.015625)"/>
       <path id="ArialMT-20" transform="scale(0.015625)"/>
       <path d="M 941 0 
L 419 0 
L 419 4581 
L 981 4581 
L 981 2947 
Q 1338 3394 1891 3394 
Q 2197 3394 2470 3270 
Q 2744 3147 2920 2923 
Q 3097 2700 3197 2384 
Q 3297 2069 3297 1709 
Q 3297 856 2875 390 
Q 2453 -75 1863 -75 
Q 1275 -75 941 416 
L 941 0 
z
M 934 1684 
Q 934 1088 1097 822 
Q 1363 388 1816 388 
Q 2184 388 2453 708 
Q 2722 1028 2722 1663 
Q 2722 2313 2464 2622 
Q 2206 2931 1841 2931 
Q 1472 2931 1203 2611 
Q 934 2291 934 1684 
z
" id="ArialMT-62" transform="scale(0.015625)"/>
       <path d="M 197 991 
L 753 1078 
Q 800 744 1014 566 
Q 1228 388 1613 388 
Q 2000 388 2187 545 
Q 2375 703 2375 916 
Q 2375 1106 2209 1216 
Q 2094 1291 1634 1406 
Q 1016 1563 777 1677 
Q 538 1791 414 1992 
Q 291 2194 291 2438 
Q 291 2659 392 2848 
Q 494 3038 669 3163 
Q 800 3259 1026 3326 
Q 1253 3394 1513 3394 
Q 1903 3394 2198 3281 
Q 2494 3169 2634 2976 
Q 2775 2784 2828 2463 
L 2278 2388 
Q 2241 2644 2061 2787 
Q 1881 2931 1553 2931 
Q 1166 2931 1000 2803 
Q 834 2675 834 2503 
Q 834 2394 903 2306 
Q 972 2216 1119 2156 
Q 1203 2125 1616 2013 
Q 2213 1853 2448 1751 
Q 2684 1650 2818 1456 
Q 2953 1263 2953 975 
Q 2953 694 2789 445 
Q 2625 197 2315 61 
Q 2006 -75 1616 -75 
Q 969 -75 630 194 
Q 291 463 197 991 
z
" id="ArialMT-73" transform="scale(0.015625)"/>
       <path d="M 422 -1272 
L 422 3319 
L 934 3319 
L 934 2888 
Q 1116 3141 1344 3267 
Q 1572 3394 1897 3394 
Q 2322 3394 2647 3175 
Q 2972 2956 3137 2557 
Q 3303 2159 3303 1684 
Q 3303 1175 3120 767 
Q 2938 359 2589 142 
Q 2241 -75 1856 -75 
Q 1575 -75 1351 44 
Q 1128 163 984 344 
L 984 -1272 
L 422 -1272 
z
M 931 1641 
Q 931 1000 1190 694 
Q 1450 388 1819 388 
Q 2194 388 2461 705 
Q 2728 1022 2728 1688 
Q 2728 2322 2467 2637 
Q 2206 2953 1844 2953 
Q 1484 2953 1207 2617 
Q 931 2281 931 1641 
z
" id="ArialMT-70" transform="scale(0.015625)"/>
       <path d="M 425 3934 
L 425 4581 
L 988 4581 
L 988 3934 
L 425 3934 
z
M 425 0 
L 425 3319 
L 988 3319 
L 988 0 
L 425 0 
z
" id="ArialMT-69" transform="scale(0.015625)"/>
       <path d="M 416 0 
L 416 3319 
L 922 3319 
L 922 2816 
Q 1116 3169 1280 3281 
Q 1444 3394 1641 3394 
Q 1925 3394 2219 3213 
L 2025 2691 
Q 1819 2813 1613 2813 
Q 1428 2813 1281 2702 
Q 1134 2591 1072 2394 
Q 978 2094 978 1738 
L 978 0 
L 416 0 
z
" id="ArialMT-72" transform="scale(0.015625)"/>
      </defs>
      <use xlink:href="#ArialMT-6d"/>
      <use x="83.300781" xlink:href="#ArialMT-75"/>
      <use x="138.916016" xlink:href="#ArialMT-74"/>
      <use x="166.699219" xlink:href="#ArialMT-61"/>
      <use x="222.314453" xlink:href="#ArialMT-74"/>
      <use x="250.097656" xlink:href="#ArialMT-65"/>
      <use x="305.712891" xlink:href="#ArialMT-64"/>
      <use x="361.328125" xlink:href="#ArialMT-20"/>
      <use x="389.111328" xlink:href="#ArialMT-62"/>
      <use x="444.726562" xlink:href="#ArialMT-61"/>
      <use x="500.341797" xlink:href="#ArialMT-73"/>
      <use x="550.341797" xlink:href="#ArialMT-65"/>
      <use x="605.957031" xlink:href="#ArialMT-20"/>
      <use x="633.740234" xlink:href="#ArialMT-70"/>
      <use x="689.355469" xlink:href="#ArialMT-61"/>
      <use x="744.970703" xlink:href="#ArialMT-69"/>
      <use x="767.1875" xlink:href="#ArialMT-72"/>
      <use x="800.488281" xlink:href="#ArialMT-73"/>
     </g>
    </g>
   </g>
   <g id="matplotlib.axis_2">
    <g id="ytick_1">
     <g id="line2d_5">
      <path clip-path="url(#p9bd77299a7)" d="M 40.741 129.961351 
L 247.201 129.961351 
" style="fill:none;stroke:#cccccc;stroke-linecap:round;stroke-width:0.8;"/>
     </g>
     <g id="text_6">
      <!-- 0.0 -->
      <g style="fill:#262626;" transform="translate(20.209 133.110789)scale(0.088 -0.088)">
       <defs>
        <path d="M 581 0 
L 581 641 
L 1222 641 
L 1222 0 
L 581 0 
z
" id="ArialMT-2e" transform="scale(0.015625)"/>
       </defs>
       <use xlink:href="#ArialMT-30"/>
       <use x="55.615234" xlink:href="#ArialMT-2e"/>
       <use x="83.398438" xlink:href="#ArialMT-30"/>
      </g>
     </g>
    </g>
    <g id="ytick_2">
     <g id="line2d_6">
      <path clip-path="url(#p9bd77299a7)" d="M 40.741 106.603349 
L 247.201 106.603349 
" style="fill:none;stroke:#cccccc;stroke-linecap:round;stroke-width:0.8;"/>
     </g>
     <g id="text_7">
      <!-- 0.2 -->
      <g style="fill:#262626;" transform="translate(20.209 109.752787)scale(0.088 -0.088)">
       <defs>
        <path d="M 3222 541 
L 3222 0 
L 194 0 
Q 188 203 259 391 
Q 375 700 629 1000 
Q 884 1300 1366 1694 
Q 2113 2306 2375 2664 
Q 2638 3022 2638 3341 
Q 2638 3675 2398 3904 
Q 2159 4134 1775 4134 
Q 1369 4134 1125 3890 
Q 881 3647 878 3216 
L 300 3275 
Q 359 3922 746 4261 
Q 1134 4600 1788 4600 
Q 2447 4600 2831 4234 
Q 3216 3869 3216 3328 
Q 3216 3053 3103 2787 
Q 2991 2522 2730 2228 
Q 2469 1934 1863 1422 
Q 1356 997 1212 845 
Q 1069 694 975 541 
L 3222 541 
z
" id="ArialMT-32" transform="scale(0.015625)"/>
       </defs>
       <use xlink:href="#ArialMT-30"/>
       <use x="55.615234" xlink:href="#ArialMT-2e"/>
       <use x="83.398438" xlink:href="#ArialMT-32"/>
      </g>
     </g>
    </g>
    <g id="ytick_3">
     <g id="line2d_7">
      <path clip-path="url(#p9bd77299a7)" d="M 40.741 83.245347 
L 247.201 83.245347 
" style="fill:none;stroke:#cccccc;stroke-linecap:round;stroke-width:0.8;"/>
     </g>
     <g id="text_8">
      <!-- 0.4 -->
      <g style="fill:#262626;" transform="translate(20.209 86.394785)scale(0.088 -0.088)">
       <defs>
        <path d="M 2069 0 
L 2069 1097 
L 81 1097 
L 81 1613 
L 2172 4581 
L 2631 4581 
L 2631 1613 
L 3250 1613 
L 3250 1097 
L 2631 1097 
L 2631 0 
L 2069 0 
z
M 2069 1613 
L 2069 3678 
L 634 1613 
L 2069 1613 
z
" id="ArialMT-34" transform="scale(0.015625)"/>
       </defs>
       <use xlink:href="#ArialMT-30"/>
       <use x="55.615234" xlink:href="#ArialMT-2e"/>
       <use x="83.398438" xlink:href="#ArialMT-34"/>
      </g>
     </g>
    </g>
    <g id="ytick_4">
     <g id="line2d_8">
      <path clip-path="url(#p9bd77299a7)" d="M 40.741 59.887345 
L 247.201 59.887345 
" style="fill:none;stroke:#cccccc;stroke-linecap:round;stroke-width:0.8;"/>
     </g>
     <g id="text_9">
      <!-- 0.6 -->
      <g style="fill:#262626;" transform="translate(20.209 63.036783)scale(0.088 -0.088)">
       <defs>
        <path d="M 3184 3459 
L 2625 3416 
Q 2550 3747 2413 3897 
Q 2184 4138 1850 4138 
Q 1581 4138 1378 3988 
Q 1113 3794 959 3422 
Q 806 3050 800 2363 
Q 1003 2672 1297 2822 
Q 1591 2972 1913 2972 
Q 2475 2972 2870 2558 
Q 3266 2144 3266 1488 
Q 3266 1056 3080 686 
Q 2894 316 2569 119 
Q 2244 -78 1831 -78 
Q 1128 -78 684 439 
Q 241 956 241 2144 
Q 241 3472 731 4075 
Q 1159 4600 1884 4600 
Q 2425 4600 2770 4297 
Q 3116 3994 3184 3459 
z
M 888 1484 
Q 888 1194 1011 928 
Q 1134 663 1356 523 
Q 1578 384 1822 384 
Q 2178 384 2434 671 
Q 2691 959 2691 1453 
Q 2691 1928 2437 2201 
Q 2184 2475 1800 2475 
Q 1419 2475 1153 2201 
Q 888 1928 888 1484 
z
" id="ArialMT-36" transform="scale(0.015625)"/>
       </defs>
       <use xlink:href="#ArialMT-30"/>
       <use x="55.615234" xlink:href="#ArialMT-2e"/>
       <use x="83.398438" xlink:href="#ArialMT-36"/>
      </g>
     </g>
    </g>
    <g id="ytick_5">
     <g id="line2d_9">
      <path clip-path="url(#p9bd77299a7)" d="M 40.741 36.529343 
L 247.201 36.529343 
" style="fill:none;stroke:#cccccc;stroke-linecap:round;stroke-width:0.8;"/>
     </g>
     <g id="text_10">
      <!-- 0.8 -->
      <g style="fill:#262626;" transform="translate(20.209 39.67878)scale(0.088 -0.088)">
       <defs>
        <path d="M 1131 2484 
Q 781 2613 612 2850 
Q 444 3088 444 3419 
Q 444 3919 803 4259 
Q 1163 4600 1759 4600 
Q 2359 4600 2725 4251 
Q 3091 3903 3091 3403 
Q 3091 3084 2923 2848 
Q 2756 2613 2416 2484 
Q 2838 2347 3058 2040 
Q 3278 1734 3278 1309 
Q 3278 722 2862 322 
Q 2447 -78 1769 -78 
Q 1091 -78 675 323 
Q 259 725 259 1325 
Q 259 1772 486 2073 
Q 713 2375 1131 2484 
z
M 1019 3438 
Q 1019 3113 1228 2906 
Q 1438 2700 1772 2700 
Q 2097 2700 2305 2904 
Q 2513 3109 2513 3406 
Q 2513 3716 2298 3927 
Q 2084 4138 1766 4138 
Q 1444 4138 1231 3931 
Q 1019 3725 1019 3438 
z
M 838 1322 
Q 838 1081 952 856 
Q 1066 631 1291 507 
Q 1516 384 1775 384 
Q 2178 384 2440 643 
Q 2703 903 2703 1303 
Q 2703 1709 2433 1975 
Q 2163 2241 1756 2241 
Q 1359 2241 1098 1978 
Q 838 1716 838 1322 
z
" id="ArialMT-38" transform="scale(0.015625)"/>
       </defs>
       <use xlink:href="#ArialMT-30"/>
       <use x="55.615234" xlink:href="#ArialMT-2e"/>
       <use x="83.398438" xlink:href="#ArialMT-38"/>
      </g>
     </g>
    </g>
    <g id="ytick_6">
     <g id="line2d_10">
      <path clip-path="url(#p9bd77299a7)" d="M 40.741 13.171341 
L 247.201 13.171341 
" style="fill:none;stroke:#cccccc;stroke-linecap:round;stroke-width:0.8;"/>
     </g>
     <g id="text_11">
      <!-- 1.0 -->
      <g style="fill:#262626;" transform="translate(20.209 16.320778)scale(0.088 -0.088)">
       <use xlink:href="#ArialMT-31"/>
       <use x="55.615234" xlink:href="#ArialMT-2e"/>
       <use x="83.398438" xlink:href="#ArialMT-30"/>
      </g>
     </g>
    </g>
    <g id="text_12">
     <!-- impact of basepairing -->
     <g style="fill:#262626;" transform="translate(14.1885 120.7725)rotate(-90)scale(0.096 -0.096)">
      <defs>
       <path d="M 2588 1216 
L 3141 1144 
Q 3050 572 2676 248 
Q 2303 -75 1759 -75 
Q 1078 -75 664 370 
Q 250 816 250 1647 
Q 250 2184 428 2587 
Q 606 2991 970 3192 
Q 1334 3394 1763 3394 
Q 2303 3394 2647 3120 
Q 2991 2847 3088 2344 
L 2541 2259 
Q 2463 2594 2264 2762 
Q 2066 2931 1784 2931 
Q 1359 2931 1093 2626 
Q 828 2322 828 1663 
Q 828 994 1084 691 
Q 1341 388 1753 388 
Q 2084 388 2306 591 
Q 2528 794 2588 1216 
z
" id="ArialMT-63" transform="scale(0.015625)"/>
       <path d="M 213 1659 
Q 213 2581 725 3025 
Q 1153 3394 1769 3394 
Q 2453 3394 2887 2945 
Q 3322 2497 3322 1706 
Q 3322 1066 3130 698 
Q 2938 331 2570 128 
Q 2203 -75 1769 -75 
Q 1072 -75 642 372 
Q 213 819 213 1659 
z
M 791 1659 
Q 791 1022 1069 705 
Q 1347 388 1769 388 
Q 2188 388 2466 706 
Q 2744 1025 2744 1678 
Q 2744 2294 2464 2611 
Q 2184 2928 1769 2928 
Q 1347 2928 1069 2612 
Q 791 2297 791 1659 
z
" id="ArialMT-6f" transform="scale(0.015625)"/>
       <path d="M 556 0 
L 556 2881 
L 59 2881 
L 59 3319 
L 556 3319 
L 556 3672 
Q 556 4006 616 4169 
Q 697 4388 901 4523 
Q 1106 4659 1475 4659 
Q 1713 4659 2000 4603 
L 1916 4113 
Q 1741 4144 1584 4144 
Q 1328 4144 1222 4034 
Q 1116 3925 1116 3625 
L 1116 3319 
L 1763 3319 
L 1763 2881 
L 1116 2881 
L 1116 0 
L 556 0 
z
" id="ArialMT-66" transform="scale(0.015625)"/>
       <path d="M 422 0 
L 422 3319 
L 928 3319 
L 928 2847 
Q 1294 3394 1984 3394 
Q 2284 3394 2536 3286 
Q 2788 3178 2913 3003 
Q 3038 2828 3088 2588 
Q 3119 2431 3119 2041 
L 3119 0 
L 2556 0 
L 2556 2019 
Q 2556 2363 2490 2533 
Q 2425 2703 2258 2804 
Q 2091 2906 1866 2906 
Q 1506 2906 1245 2678 
Q 984 2450 984 1813 
L 984 0 
L 422 0 
z
" id="ArialMT-6e" transform="scale(0.015625)"/>
       <path d="M 319 -275 
L 866 -356 
Q 900 -609 1056 -725 
Q 1266 -881 1628 -881 
Q 2019 -881 2231 -725 
Q 2444 -569 2519 -288 
Q 2563 -116 2559 434 
Q 2191 0 1641 0 
Q 956 0 581 494 
Q 206 988 206 1678 
Q 206 2153 378 2554 
Q 550 2956 876 3175 
Q 1203 3394 1644 3394 
Q 2231 3394 2613 2919 
L 2613 3319 
L 3131 3319 
L 3131 450 
Q 3131 -325 2973 -648 
Q 2816 -972 2473 -1159 
Q 2131 -1347 1631 -1347 
Q 1038 -1347 672 -1080 
Q 306 -813 319 -275 
z
M 784 1719 
Q 784 1066 1043 766 
Q 1303 466 1694 466 
Q 2081 466 2343 764 
Q 2606 1063 2606 1700 
Q 2606 2309 2336 2618 
Q 2066 2928 1684 2928 
Q 1309 2928 1046 2623 
Q 784 2319 784 1719 
z
" id="ArialMT-67" transform="scale(0.015625)"/>
      </defs>
      <use xlink:href="#ArialMT-69"/>
      <use x="22.216797" xlink:href="#ArialMT-6d"/>
      <use x="105.517578" xlink:href="#ArialMT-70"/>
      <use x="161.132812" xlink:href="#ArialMT-61"/>
      <use x="216.748047" xlink:href="#ArialMT-63"/>
      <use x="266.748047" xlink:href="#ArialMT-74"/>
      <use x="294.53125" xlink:href="#ArialMT-20"/>
      <use x="322.314453" xlink:href="#ArialMT-6f"/>
      <use x="377.929688" xlink:href="#ArialMT-66"/>
      <use x="405.712891" xlink:href="#ArialMT-20"/>
      <use x="433.496094" xlink:href="#ArialMT-62"/>
      <use x="489.111328" xlink:href="#ArialMT-61"/>
      <use x="544.726562" xlink:href="#ArialMT-73"/>
      <use x="594.726562" xlink:href="#ArialMT-65"/>
      <use x="650.341797" xlink:href="#ArialMT-70"/>
      <use x="705.957031" xlink:href="#ArialMT-61"/>
      <use x="761.572266" xlink:href="#ArialMT-69"/>
      <use x="783.789062" xlink:href="#ArialMT-72"/>
      <use x="817.089844" xlink:href="#ArialMT-69"/>
      <use x="839.306641" xlink:href="#ArialMT-6e"/>
      <use x="894.921875" xlink:href="#ArialMT-67"/>
     </g>
    </g>
   </g>
   <g id="PolyCollection_1">
    <defs>
     <path d="M 50.125545 -49.466024 
L 50.125545 -49.466024 
L 60.004014 -49.394806 
L 69.882483 -49.482164 
L 79.760952 -49.528003 
L 89.639421 -49.214966 
L 99.51789 -49.393075 
L 109.396359 -49.08077 
L 119.274828 -48.117278 
L 129.153297 -48.357199 
L 139.031766 -48.387142 
L 148.910234 -48.065877 
L 158.788703 -48.479835 
L 168.667172 -49.143059 
L 178.545641 -48.831552 
L 188.42411 -49.001652 
L 198.302579 -49.113699 
L 208.181048 -53.340649 
L 218.059517 -58.004428 
L 227.937986 -58.273244 
L 237.816455 -69.382925 
L 237.816455 -75.547356 
L 237.816455 -75.547356 
L 227.937986 -67.06268 
L 218.059517 -63.481962 
L 208.181048 -58.656765 
L 198.302579 -54.256413 
L 188.42411 -52.965053 
L 178.545641 -52.434239 
L 168.667172 -52.096638 
L 158.788703 -50.441309 
L 148.910234 -50.383157 
L 139.031766 -49.938432 
L 129.153297 -50.110177 
L 119.274828 -49.440535 
L 109.396359 -49.814855 
L 99.51789 -49.795211 
L 89.639421 -49.587943 
L 79.760952 -49.833666 
L 69.882483 -49.704627 
L 60.004014 -49.590487 
L 50.125545 -49.466024 
z
" id="m8f6b417111" style="stroke:#084068;stroke-opacity:0.2;stroke-width:0.8;"/>
    </defs>
    <g clip-path="url(#p9bd77299a7)">
     <use style="fill:#084068;fill-opacity:0.2;stroke:#084068;stroke-opacity:0.2;stroke-width:0.8;" x="0" xlink:href="#m8f6b417111" y="179.427375"/>
    </g>
   </g>
   <g id="PolyCollection_2">
    <defs>
     <path d="M 50.125545 -49.466024 
L 50.125545 -49.466024 
L 60.004014 -49.570297 
L 69.882483 -49.99424 
L 79.760952 -50.737298 
L 89.639421 -51.733267 
L 99.51789 -54.02351 
L 109.396359 -56.687748 
L 119.274828 -60.56041 
L 129.153297 -64.668833 
L 139.031766 -70.354454 
L 148.910234 -78.020253 
L 158.788703 -85.568956 
L 168.667172 -94.806488 
L 178.545641 -102.319983 
L 188.42411 -112.77992 
L 198.302579 -121.381326 
L 208.181048 -130.014945 
L 218.059517 -136.823408 
L 227.937986 -143.150223 
L 237.816455 -149.399613 
L 237.816455 -153.432646 
L 237.816455 -153.432646 
L 227.937986 -147.604463 
L 218.059517 -143.369245 
L 208.181048 -136.794576 
L 198.302579 -127.422749 
L 188.42411 -119.841762 
L 178.545641 -111.16988 
L 168.667172 -101.182044 
L 158.788703 -92.281486 
L 148.910234 -84.077212 
L 139.031766 -76.348619 
L 129.153297 -69.529571 
L 119.274828 -63.774987 
L 109.396359 -59.045059 
L 99.51789 -55.64005 
L 89.639421 -53.206965 
L 79.760952 -51.637639 
L 69.882483 -50.473616 
L 60.004014 -49.855756 
L 50.125545 -49.466024 
z
" id="m5457d93809" style="stroke:#084068;stroke-opacity:0.2;stroke-width:0.8;"/>
    </defs>
    <g clip-path="url(#p9bd77299a7)">
     <use style="fill:#084068;fill-opacity:0.2;stroke:#084068;stroke-opacity:0.2;stroke-width:0.8;" x="0" xlink:href="#m5457d93809" y="179.427375"/>
    </g>
   </g>
   <g id="PolyCollection_3">
    <defs>
     <path d="M 50.125545 -49.466024 
L 50.125545 -49.466024 
L 60.004014 -49.506966 
L 69.882483 -49.765366 
L 79.760952 -50.197546 
L 89.639421 -50.466689 
L 99.51789 -51.997455 
L 109.396359 -53.587642 
L 119.274828 -55.350958 
L 129.153297 -58.34845 
L 139.031766 -61.564652 
L 148.910234 -66.303216 
L 158.788703 -72.255894 
L 168.667172 -80.845272 
L 178.545641 -85.19477 
L 188.42411 -94.000669 
L 198.302579 -100.346833 
L 208.181048 -108.699978 
L 218.059517 -116.317774 
L 227.937986 -122.02956 
L 237.816455 -127.553856 
L 237.816455 -134.913492 
L 237.816455 -134.913492 
L 227.937986 -128.293813 
L 218.059517 -123.580115 
L 208.181048 -114.839648 
L 198.302579 -107.356306 
L 188.42411 -98.793284 
L 178.545641 -91.465025 
L 168.667172 -85.02316 
L 158.788703 -76.825458 
L 148.910234 -70.630654 
L 139.031766 -66.089376 
L 129.153297 -61.691826 
L 119.274828 -57.188916 
L 109.396359 -54.912761 
L 99.51789 -53.525807 
L 89.639421 -51.665612 
L 79.760952 -50.595852 
L 69.882483 -50.211157 
L 60.004014 -49.766176 
L 50.125545 -49.466024 
z
" id="m2be0687e00" style="stroke:#5e799d;stroke-opacity:0.2;stroke-width:0.8;"/>
    </defs>
    <g clip-path="url(#p9bd77299a7)">
     <use style="fill:#5e799d;fill-opacity:0.2;stroke:#5e799d;stroke-opacity:0.2;stroke-width:0.8;" x="0" xlink:href="#m2be0687e00" y="179.427375"/>
    </g>
   </g>
   <g id="PolyCollection_4">
    <defs>
     <path d="M 50.125545 -49.466024 
L 50.125545 -49.466024 
L 60.004014 -50.938615 
L 69.882483 -57.143977 
L 79.760952 -69.095866 
L 89.639421 -87.648886 
L 99.51789 -106.534421 
L 109.396359 -123.617738 
L 119.274828 -137.680104 
L 129.153297 -147.87453 
L 139.031766 -154.340871 
L 148.910234 -159.002421 
L 158.788703 -161.658847 
L 168.667172 -163.436473 
L 178.545641 -164.524502 
L 188.42411 -165.196367 
L 198.302579 -165.472384 
L 208.181048 -165.661499 
L 218.059517 -165.784247 
L 227.937986 -165.909181 
L 237.816455 -165.907871 
L 237.816455 -166.050102 
L 237.816455 -166.050102 
L 227.937986 -166.023897 
L 218.059517 -165.987594 
L 208.181048 -165.944868 
L 198.302579 -165.797087 
L 188.42411 -165.643334 
L 178.545641 -165.287882 
L 168.667172 -164.767833 
L 158.788703 -163.957634 
L 148.910234 -162.203161 
L 139.031766 -159.317226 
L 129.153297 -154.870911 
L 119.274828 -147.069518 
L 109.396359 -136.305656 
L 99.51789 -120.538352 
L 89.639421 -100.213959 
L 79.760952 -80.076506 
L 69.882483 -63.270366 
L 60.004014 -52.92504 
L 50.125545 -49.466024 
z
" id="mdb19be725a" style="stroke:#5e799d;stroke-opacity:0.2;stroke-width:0.8;"/>
    </defs>
    <g clip-path="url(#p9bd77299a7)">
     <use style="fill:#5e799d;fill-opacity:0.2;stroke:#5e799d;stroke-opacity:0.2;stroke-width:0.8;" x="0" xlink:href="#mdb19be725a" y="179.427375"/>
    </g>
   </g>
   <g id="PolyCollection_5">
    <defs>
     <path d="M 50.125545 -49.466024 
L 50.125545 -49.466024 
L 60.004014 -49.287137 
L 69.882483 -49.18714 
L 79.760952 -49.25675 
L 89.639421 -49.104034 
L 99.51789 -48.641809 
L 109.396359 -47.573369 
L 119.274828 -47.153205 
L 129.153297 -47.025579 
L 139.031766 -46.290576 
L 148.910234 -45.199205 
L 158.788703 -44.510403 
L 168.667172 -43.583366 
L 178.545641 -43.958766 
L 188.42411 -42.504648 
L 198.302579 -42.815221 
L 208.181048 -44.528829 
L 218.059517 -48.164721 
L 227.937986 -51.446384 
L 237.816455 -58.291579 
L 237.816455 -72.104228 
L 237.816455 -72.104228 
L 227.937986 -61.810032 
L 218.059517 -57.487901 
L 208.181048 -52.389022 
L 198.302579 -49.469184 
L 188.42411 -49.531041 
L 178.545641 -47.599881 
L 168.667172 -47.295744 
L 158.788703 -47.083197 
L 148.910234 -48.242228 
L 139.031766 -47.873868 
L 129.153297 -48.785861 
L 119.274828 -48.256851 
L 109.396359 -48.990174 
L 99.51789 -49.484902 
L 89.639421 -49.568189 
L 79.760952 -49.707664 
L 69.882483 -49.560544 
L 60.004014 -49.591215 
L 50.125545 -49.466024 
z
" id="md6bc01a001" style="stroke:#aab5cc;stroke-opacity:0.2;stroke-width:0.8;"/>
    </defs>
    <g clip-path="url(#p9bd77299a7)">
     <use style="fill:#aab5cc;fill-opacity:0.2;stroke:#aab5cc;stroke-opacity:0.2;stroke-width:0.8;" x="0" xlink:href="#md6bc01a001" y="179.427375"/>
    </g>
   </g>
   <g id="PolyCollection_6">
    <defs>
     <path d="M 50.125545 -49.466024 
L 50.125545 -49.466024 
L 60.004014 -49.650285 
L 69.882483 -50.01332 
L 79.760952 -51.113334 
L 89.639421 -52.669851 
L 99.51789 -55.037625 
L 109.396359 -58.136475 
L 119.274828 -62.224369 
L 129.153297 -67.317218 
L 139.031766 -73.792046 
L 148.910234 -81.724149 
L 158.788703 -89.254239 
L 168.667172 -99.164605 
L 178.545641 -108.077122 
L 188.42411 -118.150775 
L 198.302579 -126.760301 
L 208.181048 -135.865572 
L 218.059517 -144.279256 
L 227.937986 -149.729699 
L 237.816455 -155.592643 
L 237.816455 -157.308577 
L 237.816455 -157.308577 
L 227.937986 -152.542271 
L 218.059517 -148.170053 
L 208.181048 -140.769564 
L 198.302579 -132.140283 
L 188.42411 -124.20606 
L 178.545641 -114.912072 
L 168.667172 -105.232103 
L 158.788703 -95.13839 
L 148.910234 -87.258378 
L 139.031766 -78.523435 
L 129.153297 -72.113852 
L 119.274828 -65.328143 
L 109.396359 -60.173978 
L 99.51789 -56.651028 
L 89.639421 -54.064482 
L 79.760952 -51.739726 
L 69.882483 -50.653642 
L 60.004014 -49.893446 
L 50.125545 -49.466024 
z
" id="m49e25c6c18" style="stroke:#aab5cc;stroke-opacity:0.2;stroke-width:0.8;"/>
    </defs>
    <g clip-path="url(#p9bd77299a7)">
     <use style="fill:#aab5cc;fill-opacity:0.2;stroke:#aab5cc;stroke-opacity:0.2;stroke-width:0.8;" x="0" xlink:href="#m49e25c6c18" y="179.427375"/>
    </g>
   </g>
   <g id="line2d_11">
    <path clip-path="url(#p9bd77299a7)" d="M 50.125545 129.961351 
L 60.004014 129.94453 
L 69.882483 129.832553 
L 79.760952 129.758344 
L 89.639421 130.030908 
L 99.51789 129.818561 
L 109.396359 129.955121 
L 119.274828 130.658522 
L 129.153297 130.16948 
L 139.031766 130.271185 
L 148.910234 130.128884 
L 158.788703 129.910332 
L 168.667172 128.812331 
L 178.545641 128.696969 
L 188.42411 128.484292 
L 198.302579 127.750031 
L 208.181048 123.412984 
L 218.059517 118.635247 
L 227.937986 116.347047 
L 237.816455 106.881227 
" style="fill:none;stroke:#084068;stroke-linecap:round;stroke-width:2;"/>
   </g>
   <g id="line2d_12">
    <path clip-path="url(#p9bd77299a7)" d="M 50.125545 129.961351 
L 60.004014 129.716483 
L 69.882483 129.212873 
L 79.760952 128.276602 
L 89.639421 126.951155 
L 99.51789 124.574543 
L 109.396359 121.515917 
L 119.274828 117.141927 
L 129.153297 112.329333 
L 139.031766 105.772473 
L 148.910234 98.323345 
L 158.788703 90.324957 
L 168.667172 81.320574 
L 178.545641 72.586765 
L 188.42411 62.972536 
L 198.302579 55.089659 
L 208.181048 45.968721 
L 218.059517 39.087728 
L 227.937986 33.978985 
L 237.816455 27.931017 
" style="fill:none;stroke:#084068;stroke-dasharray:8,3;stroke-dashoffset:0;stroke-width:2;"/>
   </g>
   <g id="line2d_13">
    <path clip-path="url(#p9bd77299a7)" d="M 50.125545 129.961351 
L 60.004014 129.794549 
L 69.882483 129.444519 
L 79.760952 129.018761 
L 89.639421 128.384076 
L 99.51789 126.634618 
L 109.396359 125.16341 
L 119.274828 123.06245 
L 129.153297 119.468937 
L 139.031766 115.491369 
L 148.910234 110.79954 
L 158.788703 104.805825 
L 168.667172 96.649737 
L 178.545641 91.006668 
L 188.42411 83.030458 
L 198.302579 75.698698 
L 208.181048 67.590464 
L 218.059517 59.54101 
L 227.937986 54.031207 
L 237.816455 48.289781 
" style="fill:none;stroke:#5e799d;stroke-linecap:round;stroke-width:2;"/>
   </g>
   <g id="line2d_14">
    <path clip-path="url(#p9bd77299a7)" d="M 50.125545 129.961351 
L 60.004014 127.58406 
L 69.882483 119.484982 
L 79.760952 104.681798 
L 89.639421 85.477467 
L 99.51789 65.568232 
L 109.396359 48.722032 
L 119.274828 36.686882 
L 129.153297 27.748736 
L 139.031766 22.164576 
L 148.910234 18.601665 
L 158.788703 16.436152 
L 168.667172 15.228561 
L 178.545641 14.498162 
L 188.42411 13.995792 
L 198.302579 13.780528 
L 208.181048 13.608215 
L 218.059517 13.531773 
L 227.937986 13.458321 
L 237.816455 13.438755 
" style="fill:none;stroke:#5e799d;stroke-dasharray:8,3;stroke-dashoffset:0;stroke-width:2;"/>
   </g>
   <g id="line2d_15">
    <path clip-path="url(#p9bd77299a7)" d="M 50.125545 129.961351 
L 60.004014 129.982583 
L 69.882483 130.05241 
L 79.760952 129.969625 
L 89.639421 130.078106 
L 99.51789 130.371977 
L 109.396359 131.108702 
L 119.274828 131.677478 
L 129.153297 131.523128 
L 139.031766 132.351924 
L 148.910234 132.662507 
L 158.788703 133.697263 
L 168.667172 133.745861 
L 178.545641 133.552879 
L 188.42411 133.243413 
L 198.302579 133.324986 
L 208.181048 130.824233 
L 218.059517 126.589302 
L 227.937986 123.487202 
L 237.816455 114.130011 
" style="fill:none;stroke:#aab5cc;stroke-linecap:round;stroke-width:2;"/>
   </g>
   <g id="line2d_16">
    <path clip-path="url(#p9bd77299a7)" d="M 50.125545 129.961351 
L 60.004014 129.660549 
L 69.882483 129.111024 
L 79.760952 128.040743 
L 89.639421 126.056259 
L 99.51789 123.65147 
L 109.396359 120.367238 
L 119.274828 115.867092 
L 129.153297 109.883837 
L 139.031766 103.482809 
L 148.910234 95.083286 
L 158.788703 87.300724 
L 168.667172 77.402968 
L 178.545641 68.018181 
L 188.42411 58.201574 
L 198.302579 50.026073 
L 208.181048 41.139822 
L 218.059517 33.382793 
L 227.937986 28.085913 
L 237.816455 22.997201 
" style="fill:none;stroke:#aab5cc;stroke-dasharray:8,3;stroke-dashoffset:0;stroke-width:2;"/>
   </g>
   <g id="line2d_17"/>
   <g id="line2d_18"/>
   <g id="line2d_19"/>
   <g id="line2d_20"/>
   <g id="line2d_21"/>
   <g id="line2d_22"/>
   <g id="line2d_23"/>
   <g id="line2d_24"/>
   <g id="patch_3">
    <path d="M 40.741 143.1 
L 40.741 7.2 
" style="fill:none;stroke:#cccccc;stroke-linecap:square;stroke-linejoin:miter;"/>
   </g>
   <g id="patch_4">
    <path d="M 247.201 143.1 
L 247.201 7.2 
" style="fill:none;stroke:#cccccc;stroke-linecap:square;stroke-linejoin:miter;"/>
   </g>
   <g id="patch_5">
    <path d="M 40.741 143.1 
L 247.201 143.1 
" style="fill:none;stroke:#cccccc;stroke-linecap:square;stroke-linejoin:miter;"/>
   </g>
   <g id="patch_6">
    <path d="M 40.741 7.2 
L 247.201 7.2 
" style="fill:none;stroke:#cccccc;stroke-linecap:square;stroke-linejoin:miter;"/>
   </g>
   <g id="legend_1">
    <g id="patch_7">
     <path d="M 259.284 134.96225 
L 387.234625 134.96225 
Q 388.994625 134.96225 388.994625 133.20225 
L 388.994625 8.96 
Q 388.994625 7.2 387.234625 7.2 
L 259.284 7.2 
Q 257.524 7.2 257.524 8.96 
L 257.524 133.20225 
Q 257.524 134.96225 259.284 134.96225 
z
" style="fill:#ffffff;opacity:0.8;stroke:#cccccc;stroke-linejoin:miter;stroke-width:0.8;"/>
    </g>
    <g id="text_13">
     <!-- model -->
     <g style="fill:#262626;" transform="translate(285.684 17.018875)scale(0.088 -0.088)">
      <defs>
       <path d="M 409 0 
L 409 4581 
L 972 4581 
L 972 0 
L 409 0 
z
" id="ArialMT-6c" transform="scale(0.015625)"/>
      </defs>
      <use xlink:href="#ArialMT-6d"/>
      <use x="83.300781" xlink:href="#ArialMT-6f"/>
      <use x="138.916016" xlink:href="#ArialMT-64"/>
      <use x="194.53125" xlink:href="#ArialMT-65"/>
      <use x="250.146484" xlink:href="#ArialMT-6c"/>
     </g>
    </g>
    <g id="line2d_25">
     <path d="M 261.044 26.494 
L 278.644 26.494 
" style="fill:none;stroke:#084068;stroke-linecap:round;stroke-width:2;"/>
    </g>
    <g id="line2d_26"/>
    <g id="text_14">
     <!-- CNN_onehot -->
     <g style="fill:#262626;" transform="translate(285.684 29.574)scale(0.088 -0.088)">
      <defs>
       <path d="M 3763 1606 
L 4369 1453 
Q 4178 706 3683 314 
Q 3188 -78 2472 -78 
Q 1731 -78 1267 223 
Q 803 525 561 1097 
Q 319 1669 319 2325 
Q 319 3041 592 3573 
Q 866 4106 1370 4382 
Q 1875 4659 2481 4659 
Q 3169 4659 3637 4309 
Q 4106 3959 4291 3325 
L 3694 3184 
Q 3534 3684 3231 3912 
Q 2928 4141 2469 4141 
Q 1941 4141 1586 3887 
Q 1231 3634 1087 3207 
Q 944 2781 944 2328 
Q 944 1744 1114 1308 
Q 1284 872 1643 656 
Q 2003 441 2422 441 
Q 2931 441 3284 734 
Q 3638 1028 3763 1606 
z
" id="ArialMT-43" transform="scale(0.015625)"/>
       <path d="M 488 0 
L 488 4581 
L 1109 4581 
L 3516 984 
L 3516 4581 
L 4097 4581 
L 4097 0 
L 3475 0 
L 1069 3600 
L 1069 0 
L 488 0 
z
" id="ArialMT-4e" transform="scale(0.015625)"/>
       <path d="M -97 -1272 
L -97 -866 
L 3631 -866 
L 3631 -1272 
L -97 -1272 
z
" id="ArialMT-5f" transform="scale(0.015625)"/>
       <path d="M 422 0 
L 422 4581 
L 984 4581 
L 984 2938 
Q 1378 3394 1978 3394 
Q 2347 3394 2619 3248 
Q 2891 3103 3008 2847 
Q 3125 2591 3125 2103 
L 3125 0 
L 2563 0 
L 2563 2103 
Q 2563 2525 2380 2717 
Q 2197 2909 1863 2909 
Q 1613 2909 1392 2779 
Q 1172 2650 1078 2428 
Q 984 2206 984 1816 
L 984 0 
L 422 0 
z
" id="ArialMT-68" transform="scale(0.015625)"/>
      </defs>
      <use xlink:href="#ArialMT-43"/>
      <use x="72.216797" xlink:href="#ArialMT-4e"/>
      <use x="144.433594" xlink:href="#ArialMT-4e"/>
      <use x="216.650391" xlink:href="#ArialMT-5f"/>
      <use x="272.265625" xlink:href="#ArialMT-6f"/>
      <use x="327.880859" xlink:href="#ArialMT-6e"/>
      <use x="383.496094" xlink:href="#ArialMT-65"/>
      <use x="439.111328" xlink:href="#ArialMT-68"/>
      <use x="494.726562" xlink:href="#ArialMT-6f"/>
      <use x="550.341797" xlink:href="#ArialMT-74"/>
     </g>
    </g>
    <g id="line2d_27">
     <path d="M 261.044 39.049125 
L 278.644 39.049125 
" style="fill:none;stroke:#084068;stroke-linecap:round;stroke-width:2;"/>
    </g>
    <g id="line2d_28"/>
    <g id="text_15">
     <!-- CNN_onehot_pretrained -->
     <g style="fill:#262626;" transform="translate(285.684 42.129125)scale(0.088 -0.088)">
      <use xlink:href="#ArialMT-43"/>
      <use x="72.216797" xlink:href="#ArialMT-4e"/>
      <use x="144.433594" xlink:href="#ArialMT-4e"/>
      <use x="216.650391" xlink:href="#ArialMT-5f"/>
      <use x="272.265625" xlink:href="#ArialMT-6f"/>
      <use x="327.880859" xlink:href="#ArialMT-6e"/>
      <use x="383.496094" xlink:href="#ArialMT-65"/>
      <use x="439.111328" xlink:href="#ArialMT-68"/>
      <use x="494.726562" xlink:href="#ArialMT-6f"/>
      <use x="550.341797" xlink:href="#ArialMT-74"/>
      <use x="578.125" xlink:href="#ArialMT-5f"/>
      <use x="633.740234" xlink:href="#ArialMT-70"/>
      <use x="689.355469" xlink:href="#ArialMT-72"/>
      <use x="722.65625" xlink:href="#ArialMT-65"/>
      <use x="778.271484" xlink:href="#ArialMT-74"/>
      <use x="806.054688" xlink:href="#ArialMT-72"/>
      <use x="839.355469" xlink:href="#ArialMT-61"/>
      <use x="894.970703" xlink:href="#ArialMT-69"/>
      <use x="917.1875" xlink:href="#ArialMT-6e"/>
      <use x="972.802734" xlink:href="#ArialMT-65"/>
      <use x="1028.417969" xlink:href="#ArialMT-64"/>
     </g>
    </g>
    <g id="line2d_29">
     <path d="M 261.044 51.60425 
L 278.644 51.60425 
" style="fill:none;stroke:#5e799d;stroke-linecap:round;stroke-width:2;"/>
    </g>
    <g id="line2d_30"/>
    <g id="text_16">
     <!-- CNN_matrix -->
     <g style="fill:#262626;" transform="translate(285.684 54.68425)scale(0.088 -0.088)">
      <defs>
       <path d="M 47 0 
L 1259 1725 
L 138 3319 
L 841 3319 
L 1350 2541 
Q 1494 2319 1581 2169 
Q 1719 2375 1834 2534 
L 2394 3319 
L 3066 3319 
L 1919 1756 
L 3153 0 
L 2463 0 
L 1781 1031 
L 1600 1309 
L 728 0 
L 47 0 
z
" id="ArialMT-78" transform="scale(0.015625)"/>
      </defs>
      <use xlink:href="#ArialMT-43"/>
      <use x="72.216797" xlink:href="#ArialMT-4e"/>
      <use x="144.433594" xlink:href="#ArialMT-4e"/>
      <use x="216.650391" xlink:href="#ArialMT-5f"/>
      <use x="272.265625" xlink:href="#ArialMT-6d"/>
      <use x="355.566406" xlink:href="#ArialMT-61"/>
      <use x="411.181641" xlink:href="#ArialMT-74"/>
      <use x="438.964844" xlink:href="#ArialMT-72"/>
      <use x="472.265625" xlink:href="#ArialMT-69"/>
      <use x="494.482422" xlink:href="#ArialMT-78"/>
     </g>
    </g>
    <g id="line2d_31">
     <path d="M 261.044 64.159375 
L 278.644 64.159375 
" style="fill:none;stroke:#5e799d;stroke-linecap:round;stroke-width:2;"/>
    </g>
    <g id="line2d_32"/>
    <g id="text_17">
     <!-- CNN_matrix_pretrained -->
     <g style="fill:#262626;" transform="translate(285.684 67.239375)scale(0.088 -0.088)">
      <use xlink:href="#ArialMT-43"/>
      <use x="72.216797" xlink:href="#ArialMT-4e"/>
      <use x="144.433594" xlink:href="#ArialMT-4e"/>
      <use x="216.650391" xlink:href="#ArialMT-5f"/>
      <use x="272.265625" xlink:href="#ArialMT-6d"/>
      <use x="355.566406" xlink:href="#ArialMT-61"/>
      <use x="411.181641" xlink:href="#ArialMT-74"/>
      <use x="438.964844" xlink:href="#ArialMT-72"/>
      <use x="472.265625" xlink:href="#ArialMT-69"/>
      <use x="494.482422" xlink:href="#ArialMT-78"/>
      <use x="544.482422" xlink:href="#ArialMT-5f"/>
      <use x="600.097656" xlink:href="#ArialMT-70"/>
      <use x="655.712891" xlink:href="#ArialMT-72"/>
      <use x="689.013672" xlink:href="#ArialMT-65"/>
      <use x="744.628906" xlink:href="#ArialMT-74"/>
      <use x="772.412109" xlink:href="#ArialMT-72"/>
      <use x="805.712891" xlink:href="#ArialMT-61"/>
      <use x="861.328125" xlink:href="#ArialMT-69"/>
      <use x="883.544922" xlink:href="#ArialMT-6e"/>
      <use x="939.160156" xlink:href="#ArialMT-65"/>
      <use x="994.775391" xlink:href="#ArialMT-64"/>
     </g>
    </g>
    <g id="line2d_33">
     <path d="M 261.044 76.7145 
L 278.644 76.7145 
" style="fill:none;stroke:#aab5cc;stroke-linecap:round;stroke-width:2;"/>
    </g>
    <g id="line2d_34"/>
    <g id="text_18">
     <!-- LSTM_onehot -->
     <g style="fill:#262626;" transform="translate(285.684 79.7945)scale(0.088 -0.088)">
      <defs>
       <path d="M 469 0 
L 469 4581 
L 1075 4581 
L 1075 541 
L 3331 541 
L 3331 0 
L 469 0 
z
" id="ArialMT-4c" transform="scale(0.015625)"/>
       <path d="M 288 1472 
L 859 1522 
Q 900 1178 1048 958 
Q 1197 738 1509 602 
Q 1822 466 2213 466 
Q 2559 466 2825 569 
Q 3091 672 3220 851 
Q 3350 1031 3350 1244 
Q 3350 1459 3225 1620 
Q 3100 1781 2813 1891 
Q 2628 1963 1997 2114 
Q 1366 2266 1113 2400 
Q 784 2572 623 2826 
Q 463 3081 463 3397 
Q 463 3744 659 4045 
Q 856 4347 1234 4503 
Q 1613 4659 2075 4659 
Q 2584 4659 2973 4495 
Q 3363 4331 3572 4012 
Q 3781 3694 3797 3291 
L 3216 3247 
Q 3169 3681 2898 3903 
Q 2628 4125 2100 4125 
Q 1550 4125 1298 3923 
Q 1047 3722 1047 3438 
Q 1047 3191 1225 3031 
Q 1400 2872 2139 2705 
Q 2878 2538 3153 2413 
Q 3553 2228 3743 1945 
Q 3934 1663 3934 1294 
Q 3934 928 3725 604 
Q 3516 281 3123 101 
Q 2731 -78 2241 -78 
Q 1619 -78 1198 103 
Q 778 284 539 648 
Q 300 1013 288 1472 
z
" id="ArialMT-53" transform="scale(0.015625)"/>
       <path d="M 1659 0 
L 1659 4041 
L 150 4041 
L 150 4581 
L 3781 4581 
L 3781 4041 
L 2266 4041 
L 2266 0 
L 1659 0 
z
" id="ArialMT-54" transform="scale(0.015625)"/>
       <path d="M 475 0 
L 475 4581 
L 1388 4581 
L 2472 1338 
Q 2622 884 2691 659 
Q 2769 909 2934 1394 
L 4031 4581 
L 4847 4581 
L 4847 0 
L 4263 0 
L 4263 3834 
L 2931 0 
L 2384 0 
L 1059 3900 
L 1059 0 
L 475 0 
z
" id="ArialMT-4d" transform="scale(0.015625)"/>
      </defs>
      <use xlink:href="#ArialMT-4c"/>
      <use x="55.615234" xlink:href="#ArialMT-53"/>
      <use x="122.314453" xlink:href="#ArialMT-54"/>
      <use x="183.398438" xlink:href="#ArialMT-4d"/>
      <use x="266.699219" xlink:href="#ArialMT-5f"/>
      <use x="322.314453" xlink:href="#ArialMT-6f"/>
      <use x="377.929688" xlink:href="#ArialMT-6e"/>
      <use x="433.544922" xlink:href="#ArialMT-65"/>
      <use x="489.160156" xlink:href="#ArialMT-68"/>
      <use x="544.775391" xlink:href="#ArialMT-6f"/>
      <use x="600.390625" xlink:href="#ArialMT-74"/>
     </g>
    </g>
    <g id="line2d_35">
     <path d="M 261.044 89.269625 
L 278.644 89.269625 
" style="fill:none;stroke:#aab5cc;stroke-linecap:round;stroke-width:2;"/>
    </g>
    <g id="line2d_36"/>
    <g id="text_19">
     <!-- LSTM_onehot_pretrained -->
     <g style="fill:#262626;" transform="translate(285.684 92.349625)scale(0.088 -0.088)">
      <use xlink:href="#ArialMT-4c"/>
      <use x="55.615234" xlink:href="#ArialMT-53"/>
      <use x="122.314453" xlink:href="#ArialMT-54"/>
      <use x="183.398438" xlink:href="#ArialMT-4d"/>
      <use x="266.699219" xlink:href="#ArialMT-5f"/>
      <use x="322.314453" xlink:href="#ArialMT-6f"/>
      <use x="377.929688" xlink:href="#ArialMT-6e"/>
      <use x="433.544922" xlink:href="#ArialMT-65"/>
      <use x="489.160156" xlink:href="#ArialMT-68"/>
      <use x="544.775391" xlink:href="#ArialMT-6f"/>
      <use x="600.390625" xlink:href="#ArialMT-74"/>
      <use x="628.173828" xlink:href="#ArialMT-5f"/>
      <use x="683.789062" xlink:href="#ArialMT-70"/>
      <use x="739.404297" xlink:href="#ArialMT-72"/>
      <use x="772.705078" xlink:href="#ArialMT-65"/>
      <use x="828.320312" xlink:href="#ArialMT-74"/>
      <use x="856.103516" xlink:href="#ArialMT-72"/>
      <use x="889.404297" xlink:href="#ArialMT-61"/>
      <use x="945.019531" xlink:href="#ArialMT-69"/>
      <use x="967.236328" xlink:href="#ArialMT-6e"/>
      <use x="1022.851562" xlink:href="#ArialMT-65"/>
      <use x="1078.466797" xlink:href="#ArialMT-64"/>
     </g>
    </g>
    <g id="text_20">
     <!-- pretrained -->
     <g style="fill:#262626;" transform="translate(285.684 104.7975)scale(0.088 -0.088)">
      <use xlink:href="#ArialMT-70"/>
      <use x="55.615234" xlink:href="#ArialMT-72"/>
      <use x="88.916016" xlink:href="#ArialMT-65"/>
      <use x="144.53125" xlink:href="#ArialMT-74"/>
      <use x="172.314453" xlink:href="#ArialMT-72"/>
      <use x="205.615234" xlink:href="#ArialMT-61"/>
      <use x="261.230469" xlink:href="#ArialMT-69"/>
      <use x="283.447266" xlink:href="#ArialMT-6e"/>
      <use x="339.0625" xlink:href="#ArialMT-65"/>
      <use x="394.677734" xlink:href="#ArialMT-64"/>
     </g>
    </g>
    <g id="line2d_37">
     <path d="M 261.044 114.165375 
L 278.644 114.165375 
" style="fill:none;stroke:#333333;stroke-linecap:round;stroke-width:2;"/>
    </g>
    <g id="line2d_38"/>
    <g id="text_21">
     <!-- False -->
     <g style="fill:#262626;" transform="translate(285.684 117.245375)scale(0.088 -0.088)">
      <defs>
       <path d="M 525 0 
L 525 4581 
L 3616 4581 
L 3616 4041 
L 1131 4041 
L 1131 2622 
L 3281 2622 
L 3281 2081 
L 1131 2081 
L 1131 0 
L 525 0 
z
" id="ArialMT-46" transform="scale(0.015625)"/>
      </defs>
      <use xlink:href="#ArialMT-46"/>
      <use x="61.083984" xlink:href="#ArialMT-61"/>
      <use x="116.699219" xlink:href="#ArialMT-6c"/>
      <use x="138.916016" xlink:href="#ArialMT-73"/>
      <use x="188.916016" xlink:href="#ArialMT-65"/>
     </g>
    </g>
    <g id="line2d_39">
     <path d="M 261.044 126.61325 
L 278.644 126.61325 
" style="fill:none;stroke:#333333;stroke-dasharray:8,3;stroke-dashoffset:0;stroke-width:2;"/>
    </g>
    <g id="line2d_40"/>
    <g id="text_22">
     <!-- True -->
     <g style="fill:#262626;" transform="translate(285.684 129.69325)scale(0.088 -0.088)">
      <use xlink:href="#ArialMT-54"/>
      <use x="57.333984" xlink:href="#ArialMT-72"/>
      <use x="90.634766" xlink:href="#ArialMT-75"/>
      <use x="146.25" xlink:href="#ArialMT-65"/>
     </g>
    </g>
   </g>
  </g>
 </g>
 <defs>
  <clipPath id="p9bd77299a7">
   <rect height="135.9" width="206.46" x="40.741" y="7.2"/>
  </clipPath>
 </defs>
</svg>
